<svg width="388" height="37" viewBox="0 0 388 37" fill="none" xmlns="http://www.w3.org/2000/svg">
<g clip-path="url(#clip0_94_2)">
<path d="M5.25368 25.0001V13.5001L1.05078 20.0001V25.0001H5.25368Z" fill="white"/>
<path d="M7.35513 1.00009H2.10151V1.50009L13.6595 18.0001L22.0653 6.50009H22.5906V25.0001H27.3189V1.00009H21.0146L13.6595 10.5001L7.35513 1.00009Z" fill="white"/>
<path d="M39.9276 25.0001H34.1486V1.00009H38.3515V19.0001H38.8769L51.4856 1.00009H56.7392V25.0001H52.5363V7.50009H52.0109L39.9276 25.0001Z" fill="white"/>
<path fill-rule="evenodd" clip-rule="evenodd" d="M60.9421 21.5001V28.5001H65.145V25.0001H85.6341V28.5001H89.837V21.5001H85.6341V1.00009H66.7211C66.8962 6.33342 66.5109 17.9001 63.5689 21.5001H60.9421ZM81.4312 21.5001H68.8225C70.5037 19.1001 71.2742 9.50009 71.4493 5.00009H81.4312V21.5001Z" fill="white"/>
<path d="M94.0399 1.00009V25.0001H99.8189L111.902 8.00009H112.428V25.0001H117.156V1.00009H111.377L99.2935 19.0001H98.7682V1.00009H94.0399Z" fill="white"/>
<path d="M144.475 20.0001C139.746 26.0001 121.884 28.5001 120.833 13.0001C120.308 4.50009 132.917 -5.49991 144.475 6.50009L140.797 8.50009C132.917 9.15527e-05 124.511 7.50009 125.036 13.0001C126.14 24.5499 138.17 21.5001 140.797 17.5001L144.475 20.0001Z" fill="white"/>
</g>
<path d="M185.567 2.68799V12H183.79V4.34473C183.633 4.39128 183.421 4.4611 183.155 4.5542C182.892 4.64307 182.594 4.75309 182.26 4.88428C181.925 5.01546 181.566 5.16781 181.181 5.34131C180.8 5.51058 180.413 5.70101 180.019 5.9126C179.625 6.11995 179.234 6.34635 178.845 6.5918C178.46 6.83301 178.098 7.09115 177.759 7.36621C178.043 7.72591 178.261 8.07715 178.413 8.41992C178.565 8.75846 178.665 9.05892 178.711 9.32129C178.762 9.58366 178.788 9.81429 178.788 10.0132C178.788 10.0936 178.779 10.2205 178.762 10.394C178.75 10.5675 178.707 10.7643 178.635 10.9844C178.568 11.2002 178.483 11.3885 178.381 11.5493C178.28 11.7101 178.18 11.835 178.083 11.9238C177.884 12.11 177.656 12.2454 177.397 12.3301C177.139 12.4147 176.877 12.457 176.61 12.457C176.323 12.457 176.045 12.4105 175.779 12.3174C175.512 12.2285 175.288 12.0973 175.106 11.9238C174.899 11.7292 174.729 11.4689 174.598 11.1431C174.471 10.8172 174.408 10.4512 174.408 10.0449C174.408 9.63867 174.486 9.20703 174.643 8.75C174.803 8.28874 175.066 7.82747 175.43 7.36621C175.129 7.12077 174.81 6.88802 174.471 6.66797C174.137 6.44792 173.792 6.24056 173.437 6.0459C173.085 5.84701 172.73 5.66292 172.37 5.49365C172.01 5.32015 171.657 5.16357 171.31 5.02393C170.967 4.88005 170.633 4.75098 170.307 4.63672C169.981 4.52246 169.679 4.42513 169.399 4.34473V12H167.622V2.68799H169.234C169.56 2.77686 169.92 2.889 170.313 3.02441C170.707 3.1556 171.118 3.30583 171.545 3.4751C171.977 3.64437 172.417 3.83268 172.865 4.04004C173.318 4.24316 173.762 4.46322 174.198 4.7002C174.634 4.93717 175.055 5.18896 175.461 5.45557C175.872 5.72217 176.251 5.99935 176.598 6.28711C177 5.9528 177.459 5.61849 177.975 5.28418C178.491 4.94987 179.058 4.62826 179.676 4.31934C180.298 4.00618 180.967 3.71208 181.682 3.43701C182.402 3.15771 183.161 2.90804 183.961 2.68799H185.567ZM177.169 10.0894C177.169 9.79313 177.118 9.51172 177.017 9.24512C176.915 8.97428 176.775 8.71191 176.598 8.45801C176.42 8.71191 176.28 8.97428 176.179 9.24512C176.077 9.51172 176.026 9.79313 176.026 10.0894C176.026 10.1909 176.033 10.2925 176.045 10.394C176.062 10.4956 176.09 10.5887 176.128 10.6733C176.17 10.758 176.229 10.8278 176.306 10.8828C176.382 10.9336 176.481 10.959 176.604 10.959C176.722 10.959 176.818 10.9315 176.89 10.8765C176.966 10.8215 177.023 10.7516 177.061 10.667C177.103 10.5824 177.131 10.4893 177.144 10.3877C177.16 10.2819 177.169 10.1825 177.169 10.0894ZM188.636 4.21777V6.57275H190.756V8.10254H188.636V10.4575H191.206V11.9937H187.017V2.68799L191.206 2.68164V4.21777H188.636ZM197.005 7.34717L200.458 12H198.788L196.814 9.34033V12H195.411V9.34033L193.437 12H191.723L195.176 7.34717L191.723 2.68799H193.437L195.411 5.34766V2.68799H196.814V5.34766L198.788 2.68799H200.458L197.005 7.34717ZM202.974 2.69434C204.218 2.7028 205.384 2.76416 206.472 2.87842C207.559 2.99268 208.556 3.15137 209.462 3.35449C210.367 3.55762 211.173 3.80094 211.88 4.08447C212.591 4.368 213.192 4.68115 213.683 5.02393C214.174 5.3667 214.548 5.73486 214.806 6.12842C215.064 6.51774 215.193 6.92399 215.193 7.34717C215.193 7.77035 215.064 8.17871 214.806 8.57227C214.548 8.96582 214.174 9.33398 213.683 9.67676C213.192 10.0195 212.591 10.3327 211.88 10.6162C211.173 10.8955 210.367 11.1367 209.462 11.3398C208.556 11.543 207.559 11.7017 206.472 11.8159C205.384 11.9302 204.218 11.9915 202.974 12H201.273V2.69434H202.974ZM202.974 10.5527C203.829 10.5443 204.671 10.5083 205.501 10.4448C206.334 10.3813 207.128 10.2904 207.881 10.1719C208.634 10.0492 209.33 9.89893 209.969 9.72119C210.613 9.54346 211.167 9.33822 211.632 9.10547C212.102 8.86849 212.468 8.604 212.731 8.31201C212.997 8.02002 213.13 7.6984 213.13 7.34717C213.13 6.99593 212.997 6.67432 212.731 6.38232C212.468 6.09033 212.102 5.82796 211.632 5.59521C211.167 5.35824 210.613 5.15088 209.969 4.97314C209.33 4.79541 208.634 4.6473 207.881 4.52881C207.128 4.40609 206.334 4.31299 205.501 4.24951C204.667 4.1818 203.825 4.14583 202.974 4.1416V10.5527ZM220.985 8.40723C220.985 9.17318 220.935 9.80794 220.833 10.3115C220.731 10.8151 220.581 11.2171 220.382 11.5176C220.188 11.8138 219.942 12.0233 219.646 12.146C219.354 12.2687 219.015 12.3301 218.63 12.3301C218.283 12.3301 217.977 12.2793 217.71 12.1777C217.448 12.0762 217.221 11.9429 217.031 11.7778C216.84 11.6128 216.682 11.4287 216.555 11.2256C216.428 11.0225 216.326 10.8193 216.25 10.6162C216.174 10.4131 216.121 10.2205 216.091 10.0386C216.062 9.85661 216.047 9.70638 216.047 9.58789H217.558C217.558 10.0618 217.651 10.4215 217.837 10.667C218.027 10.9082 218.271 11.0288 218.567 11.0288C218.736 11.0288 218.874 10.9759 218.979 10.8701C219.085 10.7601 219.168 10.6035 219.227 10.4004C219.29 10.1973 219.333 9.95394 219.354 9.67041C219.375 9.38265 219.386 9.06104 219.386 8.70557V8.69287C219.242 8.71403 219.104 8.73096 218.973 8.74365C218.846 8.75635 218.723 8.7627 218.605 8.7627C218.106 8.7627 217.689 8.67594 217.354 8.50244C217.02 8.32894 216.751 8.10042 216.548 7.81689C216.345 7.52913 216.195 7.2054 216.098 6.8457C216.005 6.48177 215.947 6.10938 215.926 5.72852C215.918 5.58464 215.914 5.43864 215.914 5.29053C215.914 4.51188 216.026 3.64648 216.25 2.69434H217.881C217.674 3.58724 217.564 4.38281 217.551 5.08105C217.551 5.11068 217.551 5.14242 217.551 5.17627C217.551 5.43864 217.568 5.70736 217.602 5.98242C217.636 6.25326 217.704 6.50081 217.805 6.7251C217.911 6.94515 218.055 7.125 218.237 7.26465C218.423 7.40007 218.66 7.46777 218.948 7.46777C219.07 7.46777 219.216 7.45085 219.386 7.41699V2.69434H220.985V8.40723ZM227.996 2.69434V12H226.25V8.0708H224.289V12H222.543V2.69434H224.289V6.60449H226.25V2.69434H227.996ZM238.898 8.19775C238.893 8.28239 238.891 8.36914 238.891 8.45801C238.891 8.62305 238.9 8.81348 238.917 9.0293C238.938 9.24512 238.976 9.4694 239.031 9.70215C239.086 9.93066 239.154 10.1296 239.234 10.2988C239.314 10.4639 239.405 10.5739 239.507 10.6289L238.688 12.1587C238.523 12.0825 238.375 11.9852 238.244 11.8667C238.117 11.744 238.003 11.6064 237.901 11.4541C237.799 11.3018 237.711 11.1388 237.634 10.9653C237.562 10.7918 237.499 10.6141 237.444 10.4321C237.203 10.6903 236.934 10.9272 236.638 11.1431C236.342 11.3589 236.02 11.5472 235.673 11.708C235.33 11.8646 234.964 11.9873 234.575 12.0762C234.19 12.1693 233.786 12.2222 233.362 12.2349C233.307 12.2349 233.255 12.2349 233.204 12.2349C232.848 12.2349 232.497 12.1947 232.15 12.1143C231.803 12.0381 231.473 11.9238 231.16 11.7715C230.851 11.6149 230.572 11.4329 230.322 11.2256C230.076 11.014 229.867 10.7876 229.694 10.5464C229.52 10.3052 229.387 10.0555 229.294 9.79736C229.205 9.53499 229.16 9.27897 229.16 9.0293C229.16 8.61458 229.228 8.26335 229.363 7.97559C229.503 7.68359 229.681 7.44027 229.897 7.24561C230.117 7.04671 230.362 6.88802 230.633 6.76953C230.908 6.65104 231.181 6.56006 231.452 6.49658C231.727 6.43311 231.985 6.38867 232.226 6.36328C232.472 6.33789 232.675 6.31885 232.836 6.30615L232.924 6.2998C233.183 6.27865 233.479 6.26172 233.813 6.24902C234.152 6.2321 234.507 6.22152 234.88 6.21729C235.252 6.20882 235.631 6.20459 236.016 6.20459C236.405 6.20459 236.78 6.20671 237.139 6.21094C237.139 5.96973 237.057 5.72005 236.892 5.46191C236.727 5.19954 236.5 4.96045 236.213 4.74463C235.925 4.52458 235.582 4.34473 235.184 4.20508C234.791 4.0612 234.365 3.98926 233.908 3.98926C233.654 3.98926 233.392 4.01465 233.121 4.06543C232.855 4.11621 232.582 4.19873 232.302 4.31299C232.027 4.42725 231.748 4.57536 231.465 4.75732C231.181 4.93506 230.9 5.15299 230.62 5.41113L229.503 4.40186C229.808 4.05908 230.142 3.76497 230.506 3.51953C230.874 3.27409 231.251 3.07308 231.636 2.9165C232.025 2.75993 232.412 2.64567 232.798 2.57373C233.187 2.49756 233.557 2.45947 233.908 2.45947C234.535 2.45947 235.093 2.52507 235.584 2.65625C236.075 2.78743 236.505 2.96094 236.873 3.17676C237.245 3.38835 237.558 3.62956 237.812 3.90039C238.07 4.17122 238.28 4.44629 238.441 4.72559C238.601 5.00488 238.718 5.27572 238.79 5.53809C238.862 5.80046 238.898 6.03109 238.898 6.22998C238.898 6.23421 238.893 6.23633 238.885 6.23633C238.881 6.23633 238.879 6.23844 238.879 6.24268H238.898V8.19775ZM231.268 9.89893C231.577 10.1782 231.917 10.3835 232.29 10.5146C232.662 10.6458 233.047 10.7114 233.445 10.7114C233.877 10.7114 234.304 10.6395 234.727 10.4956C235.15 10.3517 235.538 10.1486 235.889 9.88623C236.244 9.61963 236.547 9.30225 236.797 8.93408C237.046 8.56169 237.211 8.14697 237.292 7.68994C236.932 7.68571 236.555 7.68359 236.162 7.68359C235.772 7.68359 235.389 7.68783 235.013 7.69629C234.636 7.70052 234.279 7.70898 233.94 7.72168C233.602 7.73438 233.305 7.7513 233.051 7.77246L232.956 7.77881C232.529 7.81689 232.178 7.86556 231.903 7.9248C231.627 7.98405 231.409 8.06234 231.249 8.15967C231.088 8.257 230.976 8.3776 230.912 8.52148C230.849 8.66113 230.817 8.8304 230.817 9.0293C230.817 9.1901 230.857 9.34245 230.938 9.48633C231.022 9.62598 231.132 9.76351 231.268 9.89893ZM249.006 7.9375C248.642 8.26758 248.208 8.51725 247.705 8.68652C247.205 8.85156 246.653 8.93408 246.048 8.93408C245.578 8.93408 245.149 8.89388 244.759 8.81348C244.37 8.72884 244.017 8.61458 243.699 8.4707C243.382 8.32682 243.098 8.16178 242.849 7.97559C242.599 7.78516 242.377 7.58626 242.182 7.37891V12H240.449V2.68799H242.182V3.95117C242.195 4.02734 242.212 4.12891 242.233 4.25586C242.258 4.38281 242.292 4.52458 242.334 4.68115C242.381 4.8335 242.438 4.99854 242.506 5.17627C242.578 5.34977 242.665 5.52539 242.766 5.70312C243.439 6.87956 244.533 7.46777 246.048 7.46777C246.471 7.46777 246.85 7.41488 247.184 7.30908C247.518 7.20329 247.8 7.04883 248.028 6.8457C248.21 6.6849 248.348 6.50081 248.441 6.29346C248.538 6.08187 248.587 5.8597 248.587 5.62695C248.587 5.4196 248.545 5.21436 248.46 5.01123C248.38 4.80811 248.253 4.62614 248.079 4.46533C247.91 4.30029 247.692 4.16911 247.425 4.07178C247.163 3.97021 246.852 3.91943 246.492 3.91943C245.887 3.91943 245.356 4.03581 244.899 4.26855C244.442 4.49707 244.044 4.85042 243.706 5.32861L242.506 4.47803C242.98 3.80941 243.553 3.30583 244.226 2.96729C244.899 2.62451 245.654 2.45312 246.492 2.45312C247.021 2.45312 247.506 2.53353 247.946 2.69434C248.39 2.85514 248.777 3.09424 249.107 3.41162C249.412 3.70785 249.645 4.04639 249.806 4.42725C249.971 4.80387 250.053 5.20378 250.053 5.62695C250.053 6.07552 249.964 6.49658 249.787 6.89014C249.609 7.28369 249.349 7.63281 249.006 7.9375ZM254.956 2.64355C255.299 2.64355 255.642 2.6901 255.985 2.7832C256.328 2.8763 256.655 3.01383 256.969 3.1958C257.286 3.37777 257.58 3.60417 257.851 3.875C258.122 4.1416 258.357 4.4484 258.556 4.79541C258.754 5.14242 258.911 5.53174 259.025 5.96338C259.14 6.39079 259.197 6.85417 259.197 7.35352C259.197 7.86133 259.14 8.33105 259.025 8.7627C258.911 9.19434 258.754 9.58366 258.556 9.93066C258.357 10.2777 258.122 10.5845 257.851 10.8511C257.58 11.1177 257.286 11.3398 256.969 11.5176C256.655 11.6953 256.328 11.8307 255.985 11.9238C255.642 12.0127 255.299 12.0571 254.956 12.0571C254.614 12.0571 254.269 12.0127 253.922 11.9238C253.579 11.8307 253.249 11.6953 252.932 11.5176C252.618 11.3398 252.326 11.1177 252.056 10.8511C251.785 10.5845 251.55 10.2777 251.351 9.93066C251.152 9.58366 250.995 9.19434 250.881 8.7627C250.767 8.33105 250.71 7.86133 250.71 7.35352C250.71 6.84993 250.767 6.38444 250.881 5.95703C250.995 5.52962 251.152 5.14242 251.351 4.79541C251.55 4.4484 251.785 4.1416 252.056 3.875C252.326 3.60417 252.618 3.37777 252.932 3.1958C253.249 3.01383 253.579 2.8763 253.922 2.7832C254.269 2.6901 254.614 2.64355 254.956 2.64355ZM254.956 10.7495C255.291 10.7453 255.608 10.6712 255.909 10.5273C256.209 10.3792 256.471 10.1634 256.696 9.87988C256.924 9.59212 257.104 9.23877 257.235 8.81982C257.371 8.39665 257.438 7.90788 257.438 7.35352C257.438 6.79492 257.371 6.30615 257.235 5.88721C257.104 5.46403 256.924 5.11068 256.696 4.82715C256.471 4.54362 256.209 4.32992 255.909 4.18604C255.608 4.03792 255.291 3.96175 254.956 3.95752C254.622 3.96175 254.303 4.03792 253.998 4.18604C253.697 4.32992 253.433 4.54362 253.204 4.82715C252.976 5.11068 252.794 5.46403 252.659 5.88721C252.523 6.30615 252.455 6.79492 252.455 7.35352C252.455 7.90788 252.523 8.39665 252.659 8.81982C252.794 9.23877 252.976 9.59212 253.204 9.87988C253.433 10.1634 253.697 10.3792 253.998 10.5273C254.303 10.6712 254.622 10.7453 254.956 10.7495ZM261.948 2.69434C263.192 2.7028 264.358 2.76416 265.446 2.87842C266.533 2.99268 267.53 3.15137 268.435 3.35449C269.341 3.55762 270.147 3.80094 270.854 4.08447C271.565 4.368 272.166 4.68115 272.656 5.02393C273.147 5.3667 273.522 5.73486 273.78 6.12842C274.038 6.51774 274.167 6.92399 274.167 7.34717C274.167 7.77035 274.038 8.17871 273.78 8.57227C273.522 8.96582 273.147 9.33398 272.656 9.67676C272.166 10.0195 271.565 10.3327 270.854 10.6162C270.147 10.8955 269.341 11.1367 268.435 11.3398C267.53 11.543 266.533 11.7017 265.446 11.8159C264.358 11.9302 263.192 11.9915 261.948 12H260.247V2.69434H261.948ZM261.948 10.5527C262.803 10.5443 263.645 10.5083 264.474 10.4448C265.308 10.3813 266.101 10.2904 266.855 10.1719C267.608 10.0492 268.304 9.89893 268.943 9.72119C269.586 9.54346 270.141 9.33822 270.606 9.10547C271.076 8.86849 271.442 8.604 271.704 8.31201C271.971 8.02002 272.104 7.6984 272.104 7.34717C272.104 6.99593 271.971 6.67432 271.704 6.38232C271.442 6.09033 271.076 5.82796 270.606 5.59521C270.141 5.35824 269.586 5.15088 268.943 4.97314C268.304 4.79541 267.608 4.6473 266.855 4.52881C266.101 4.40609 265.308 4.31299 264.474 4.24951C263.641 4.1818 262.799 4.14583 261.948 4.1416V10.5527ZM280.499 2.69434V12H278.753V8.0708H276.792V12H275.046V2.69434H276.792V6.60449H278.753V2.69434H280.499ZM290.632 6.75684C290.971 7.06152 291.229 7.41064 291.407 7.8042C291.589 8.19775 291.68 8.61882 291.68 9.06738C291.68 9.49056 291.597 9.89258 291.432 10.2734C291.271 10.6501 291.039 10.9865 290.734 11.2827C290.404 11.6001 290.017 11.8392 289.572 12C289.132 12.1608 288.648 12.2412 288.119 12.2412C287.281 12.2412 286.525 12.0719 285.853 11.7334C285.18 11.3906 284.606 10.8849 284.132 10.2163L285.326 9.36572C285.664 9.84391 286.062 10.1994 286.519 10.4321C286.98 10.6606 287.513 10.7749 288.119 10.7749C288.478 10.7749 288.789 10.7241 289.052 10.6226C289.318 10.521 289.536 10.3898 289.706 10.229C289.879 10.0682 290.006 9.88623 290.086 9.68311C290.171 9.47998 290.213 9.27474 290.213 9.06738C290.213 8.83464 290.165 8.61458 290.067 8.40723C289.97 8.19564 289.832 8.00944 289.655 7.84863C289.426 7.64551 289.145 7.49105 288.811 7.38525C288.476 7.27946 288.097 7.22656 287.674 7.22656C286.155 7.22656 285.061 7.81266 284.393 8.98486C284.291 9.1626 284.204 9.34033 284.132 9.51807C284.065 9.69157 284.007 9.85661 283.961 10.0132C283.919 10.1698 283.885 10.3115 283.859 10.4385C283.834 10.5654 283.817 10.667 283.809 10.7432V12.0063H282.076V2.69434H283.809V7.31543C284.003 7.10384 284.225 6.90495 284.475 6.71875C284.725 6.52832 285.008 6.36328 285.326 6.22363C285.643 6.07975 285.996 5.96549 286.386 5.88086C286.775 5.79622 287.205 5.75391 287.674 5.75391C288.279 5.75391 288.832 5.83854 289.331 6.00781C289.83 6.17708 290.264 6.42676 290.632 6.75684ZM294.257 2.69434V12.0063H292.524V2.69434H294.257ZM300.43 2.11035H297.744L298.347 0.777344H300.43V2.11035ZM302.112 2.69434V12H300.499V5.77295L297.681 12H296.062V2.69434H297.675V8.92139L300.493 2.68799L302.112 2.69434ZM317.231 8.28662C317.227 8.36702 317.225 8.44954 317.225 8.53418C317.225 8.70345 317.235 8.89811 317.256 9.11816C317.278 9.33398 317.314 9.55827 317.364 9.79102C317.419 10.0195 317.487 10.2184 317.567 10.3877C317.648 10.5527 317.739 10.6628 317.84 10.7178L317.047 12.2412C316.861 12.1439 316.681 12.0021 316.507 11.8159C316.334 11.6255 316.179 11.4076 316.044 11.1621C315.913 10.9124 315.807 10.6416 315.727 10.3496C315.65 10.0534 315.612 9.75081 315.612 9.44189C315.549 9.5096 315.458 9.61328 315.339 9.75293C315.225 9.89258 315.088 10.0492 314.927 10.2227C314.77 10.3919 314.59 10.5718 314.387 10.7622C314.184 10.9484 313.962 11.1283 313.721 11.3018C313.484 11.4753 313.226 11.634 312.946 11.7778C312.671 11.9175 312.381 12.0233 312.077 12.0952C311.95 12.1291 311.8 12.1566 311.626 12.1777C311.457 12.1989 311.273 12.2095 311.074 12.2095C310.875 12.2095 310.668 12.1947 310.452 12.165C310.236 12.1354 310.022 12.0804 309.811 12C309.599 11.9238 309.394 11.8223 309.195 11.6953C309 11.5641 308.82 11.4012 308.655 11.2065C308.49 11.0076 308.346 10.7707 308.224 10.4956C308.105 10.2205 308.018 9.90104 307.963 9.53711C307.917 9.23242 307.881 8.9362 307.856 8.64844C307.834 8.35645 307.82 8.09619 307.811 7.86768C307.803 7.66455 307.798 7.46989 307.798 7.28369V2.69434H309.519V7.87402C309.519 8.37337 309.559 8.79443 309.639 9.13721C309.724 9.47998 309.836 9.75716 309.976 9.96875C310.12 10.1761 310.287 10.3263 310.477 10.4194C310.672 10.5083 310.879 10.5527 311.099 10.5527C311.328 10.5527 311.565 10.5125 311.81 10.4321C312.06 10.3475 312.305 10.2375 312.546 10.1021C312.788 9.96663 313.02 9.81217 313.245 9.63867C313.473 9.46517 313.678 9.28955 313.86 9.11182C314.284 8.70133 314.626 8.32682 314.889 7.98828C315.155 7.64551 315.363 7.35563 315.511 7.11865V2.69434H317.231V8.28662ZM324.267 2.69434V12H322.521V8.0708H320.56V12H318.814V2.69434H320.56V6.60449H322.521V2.69434H324.267ZM331.874 12.0254C331.282 12.0254 330.708 11.9852 330.154 11.9048C329.6 11.8244 329.079 11.7038 328.593 11.543C328.106 11.3779 327.662 11.1706 327.26 10.9209C326.858 10.6712 326.511 10.375 326.219 10.0322C325.931 9.68522 325.706 9.28955 325.546 8.84521C325.385 8.40088 325.304 7.90576 325.304 7.35986C325.304 6.83936 325.385 6.36328 325.546 5.93164C325.706 5.5 325.931 5.11068 326.219 4.76367C326.511 4.41667 326.858 4.1141 327.26 3.85596C327.662 3.59359 328.106 3.37565 328.593 3.20215C329.079 3.02865 329.6 2.89958 330.154 2.81494C330.708 2.72607 331.282 2.68164 331.874 2.68164L331.868 4.24316C331.077 4.2474 330.376 4.34049 329.767 4.52246C329.162 4.7002 328.654 4.93506 328.243 5.22705C327.833 5.51481 327.52 5.84489 327.304 6.21729C327.092 6.58545 326.982 6.96419 326.974 7.35352C326.974 7.37044 326.974 7.38737 326.974 7.4043C326.974 7.77669 327.071 8.14486 327.266 8.50879C327.461 8.87272 327.761 9.20068 328.167 9.49268C328.578 9.78467 329.09 10.0216 329.703 10.2036C330.321 10.3856 331.043 10.4787 331.868 10.4829L331.874 12.0254ZM337.882 2.69434V4.16064H336.257V12H334.588V4.16064H332.969V2.69434H337.882ZM345.058 2.69434V12H343.452V5.77295L340.633 12H339.015V2.69434H340.621V8.92139L343.439 2.68799L345.058 2.69434ZM351.091 2.69434V4.16064H349.466V12H347.796V4.16064H346.178V2.69434H351.091ZM357.086 8.40723C357.086 9.17318 357.035 9.80794 356.933 10.3115C356.832 10.8151 356.682 11.2171 356.483 11.5176C356.288 11.8138 356.043 12.0233 355.746 12.146C355.454 12.2687 355.116 12.3301 354.731 12.3301C354.384 12.3301 354.077 12.2793 353.81 12.1777C353.548 12.0762 353.321 11.9429 353.131 11.7778C352.941 11.6128 352.782 11.4287 352.655 11.2256C352.528 11.0225 352.426 10.8193 352.35 10.6162C352.274 10.4131 352.221 10.2205 352.192 10.0386C352.162 9.85661 352.147 9.70638 352.147 9.58789H353.658C353.658 10.0618 353.751 10.4215 353.937 10.667C354.128 10.9082 354.371 11.0288 354.667 11.0288C354.836 11.0288 354.974 10.9759 355.08 10.8701C355.186 10.7601 355.268 10.6035 355.327 10.4004C355.391 10.1973 355.433 9.95394 355.454 9.67041C355.475 9.38265 355.486 9.06104 355.486 8.70557V8.69287C355.342 8.71403 355.205 8.73096 355.073 8.74365C354.946 8.75635 354.824 8.7627 354.705 8.7627C354.206 8.7627 353.789 8.67594 353.455 8.50244C353.12 8.32894 352.852 8.10042 352.649 7.81689C352.446 7.52913 352.295 7.2054 352.198 6.8457C352.105 6.48177 352.048 6.10938 352.027 5.72852C352.018 5.58464 352.014 5.43864 352.014 5.29053C352.014 4.51188 352.126 3.64648 352.35 2.69434H353.982C353.774 3.58724 353.664 4.38281 353.652 5.08105C353.652 5.11068 353.652 5.14242 353.652 5.17627C353.652 5.43864 353.668 5.70736 353.702 5.98242C353.736 6.25326 353.804 6.50081 353.905 6.7251C354.011 6.94515 354.155 7.125 354.337 7.26465C354.523 7.40007 354.76 7.46777 355.048 7.46777C355.171 7.46777 355.317 7.45085 355.486 7.41699V2.69434H357.086V8.40723ZM363.068 2.69434V4.16064H361.443V12H359.773V4.16064H358.155V2.69434H363.068ZM167.781 18.6436C167.92 18.6266 168.096 18.6097 168.308 18.5928C168.519 18.5716 168.756 18.5526 169.019 18.5356C169.281 18.5187 169.567 18.506 169.875 18.4976C170.189 18.4849 170.517 18.4785 170.859 18.4785C171.338 18.4785 171.839 18.4933 172.364 18.5229C172.893 18.5526 173.424 18.6055 173.957 18.6816C174.49 18.7536 175.015 18.8551 175.531 18.9863C176.052 19.1133 176.543 19.2783 177.004 19.4814C177.469 19.6803 177.897 19.9194 178.286 20.1987C178.675 20.478 179.008 20.806 179.283 21.1826C179.558 21.555 179.757 21.957 179.879 22.3887C180.006 22.8203 180.07 23.2646 180.07 23.7217C180.07 23.8359 180.066 23.9523 180.057 24.0708C180.032 24.5278 179.947 24.9489 179.803 25.334C179.659 25.7191 179.471 26.0661 179.238 26.375C179.01 26.6797 178.743 26.9484 178.438 27.1812C178.138 27.4139 177.812 27.6086 177.461 27.7651C177.11 27.9217 176.742 28.0381 176.356 28.1143C175.971 28.1947 175.584 28.2349 175.195 28.2349C174.687 28.2349 174.188 28.1672 173.697 28.0317C173.206 27.9006 172.751 27.6995 172.332 27.4287C171.917 27.1579 171.556 26.8193 171.247 26.4131C170.942 26.0026 170.72 25.5244 170.58 24.9785L172.002 24.6167C172.07 24.8791 172.173 25.116 172.313 25.3276C172.453 25.535 172.616 25.7191 172.802 25.8799C172.988 26.0407 173.189 26.1782 173.405 26.2925C173.621 26.4025 173.836 26.4935 174.052 26.5654C174.272 26.6331 174.486 26.6839 174.693 26.7178C174.901 26.7516 175.087 26.7686 175.252 26.7686C175.603 26.7686 175.938 26.7072 176.255 26.5845C176.572 26.4618 176.86 26.2967 177.118 26.0894C177.381 25.882 177.605 25.6387 177.791 25.3594C177.981 25.0758 178.121 24.7839 178.21 24.4834C178.303 24.1829 178.35 23.8846 178.35 23.5884C178.35 23.5545 178.345 23.4466 178.337 23.2646C178.333 23.0785 178.259 22.8267 178.115 22.5093C177.971 22.1877 177.757 21.8851 177.474 21.6016C177.19 21.3138 176.822 21.0599 176.369 20.8398C175.921 20.6198 175.381 20.4421 174.75 20.3066C174.12 20.1712 173.388 20.0951 172.554 20.0781L168.987 28H167.152L170.732 20.0527C170.462 20.0527 170.184 20.0591 169.901 20.0718C169.617 20.0845 169.344 20.1014 169.082 20.1226C168.82 20.1395 168.574 20.1585 168.346 20.1797C168.121 20.2008 167.933 20.2199 167.781 20.2368V18.6436ZM187.391 18.6943V28H185.786V21.7729L182.967 28H181.348V18.6943H182.954V24.9214L185.773 18.688L187.391 18.6943ZM200.794 23.3408C200.947 23.4466 201.093 23.599 201.232 23.7979C201.376 23.9925 201.484 24.2062 201.556 24.439C201.628 24.6717 201.664 24.9066 201.664 25.1436C201.664 25.1816 201.66 25.2811 201.651 25.4419C201.647 25.6027 201.569 25.8228 201.416 26.1021C201.264 26.3813 201.027 26.6501 200.705 26.9082C200.388 27.1621 199.958 27.3885 199.417 27.5874C198.879 27.7821 198.219 27.9365 197.436 28.0508C196.653 28.1693 195.722 28.2285 194.643 28.2285C193.949 28.2285 193.285 28.1904 192.65 28.1143C192.015 28.0381 191.423 27.9408 190.873 27.8223C190.327 27.7038 189.825 27.5768 189.368 27.4414C188.916 27.3018 188.524 27.1706 188.194 27.0479L188.803 25.7021C189.112 25.8122 189.476 25.9307 189.895 26.0576C190.314 26.1803 190.775 26.2946 191.279 26.4004C191.787 26.502 192.326 26.5887 192.898 26.6606C193.473 26.7284 194.072 26.7622 194.694 26.7622C195.545 26.7622 196.273 26.7305 196.878 26.667C197.487 26.6035 197.997 26.521 198.407 26.4194C198.818 26.3136 199.14 26.193 199.372 26.0576C199.609 25.918 199.779 25.7741 199.88 25.626C199.986 25.4779 200.039 25.3319 200.039 25.188C200.039 25.1795 200.037 25.1372 200.032 25.061C200.032 24.9806 199.999 24.8748 199.931 24.7437C199.863 24.6082 199.774 24.4897 199.664 24.3882C199.554 24.2824 199.444 24.202 199.334 24.147C198.953 24.3078 198.541 24.4474 198.096 24.5659C197.652 24.6802 197.193 24.7754 196.719 24.8516C196.249 24.9235 195.771 24.9785 195.284 25.0166C194.802 25.0505 194.326 25.0674 193.856 25.0674C193.353 25.0674 192.868 25.0483 192.403 25.0103C191.941 24.9679 191.516 24.9087 191.127 24.8325C190.742 24.7563 190.405 24.6632 190.117 24.5532C189.83 24.4432 189.61 24.3184 189.457 24.1787C189.347 24.0771 189.252 23.9629 189.172 23.8359C189.095 23.709 189.053 23.6032 189.045 23.5186C189.036 23.4297 189.032 23.3704 189.032 23.3408C189.032 23.2223 189.059 23.0933 189.114 22.9536C189.174 22.8097 189.288 22.6595 189.457 22.5029C189.61 22.3633 189.83 22.2384 190.117 22.1284C190.409 22.0142 190.748 21.9189 191.133 21.8428C191.522 21.7666 191.95 21.7095 192.415 21.6714C192.881 21.6291 193.367 21.6079 193.875 21.6079C194.341 21.6079 194.815 21.627 195.297 21.665C195.78 21.6989 196.256 21.7539 196.725 21.8301C197.199 21.902 197.656 21.9972 198.096 22.1157C198.541 22.23 198.953 22.3675 199.334 22.5283C199.444 22.4733 199.554 22.395 199.664 22.2935C199.774 22.1877 199.863 22.0692 199.931 21.938C199.999 21.8026 200.032 21.6968 200.032 21.6206C200.037 21.5402 200.039 21.4958 200.039 21.4873C200.039 21.3434 199.988 21.1974 199.886 21.0493C199.785 20.9012 199.616 20.7594 199.379 20.624C199.142 20.4844 198.818 20.3638 198.407 20.2622C197.997 20.1564 197.487 20.0718 196.878 20.0083C196.273 19.9448 195.545 19.9131 194.694 19.9131C194.169 19.9131 193.659 19.9385 193.164 19.9893C192.669 20.04 192.197 20.1056 191.749 20.186C191.304 20.2664 190.885 20.3574 190.492 20.459C190.103 20.5605 189.747 20.6621 189.426 20.7637L190.225 19.0054C190.843 18.853 191.524 18.724 192.269 18.6182C193.014 18.5081 193.805 18.4531 194.643 18.4531C195.638 18.4531 196.507 18.5081 197.252 18.6182C198.001 18.7282 198.644 18.8763 199.182 19.0625C199.719 19.2487 200.159 19.4645 200.502 19.71C200.845 19.9554 201.107 20.2157 201.289 20.4907C201.475 20.7616 201.583 20.9964 201.613 21.1953C201.647 21.3942 201.664 21.5508 201.664 21.665C201.664 21.8216 201.641 21.9993 201.594 22.1982C201.547 22.3971 201.45 22.6045 201.302 22.8203C201.158 23.0319 200.989 23.2054 200.794 23.3408ZM192.599 23.709C192.773 23.7174 192.944 23.7238 193.113 23.728C193.287 23.728 193.41 23.728 193.482 23.728C193.697 23.728 193.949 23.7259 194.237 23.7217C194.529 23.7132 194.859 23.7005 195.227 23.6836C195.595 23.6667 195.959 23.6434 196.319 23.6138C196.679 23.5799 197.026 23.5418 197.36 23.4995C197.694 23.453 197.993 23.4001 198.255 23.3408C197.959 23.2731 197.618 23.2139 197.233 23.1631C196.852 23.1123 196.452 23.0721 196.033 23.0425C195.619 23.0086 195.202 22.9854 194.783 22.9727C194.368 22.9557 193.979 22.9473 193.615 22.9473C193.37 22.9473 193.133 22.9515 192.904 22.96C192.68 22.9642 192.455 22.979 192.231 23.0044C192.011 23.0298 191.789 23.0658 191.565 23.1123C191.345 23.1589 191.114 23.2223 190.873 23.3027C190.852 23.3112 190.841 23.3239 190.841 23.3408C190.841 23.3577 190.852 23.3704 190.873 23.3789C191.025 23.4339 191.239 23.4974 191.514 23.5693C191.789 23.637 192.151 23.6836 192.599 23.709ZM212.286 24.1978C212.282 24.2824 212.28 24.3691 212.28 24.458C212.28 24.623 212.288 24.8135 212.305 25.0293C212.326 25.2451 212.364 25.4694 212.42 25.7021C212.475 25.9307 212.542 26.1296 212.623 26.2988C212.703 26.4639 212.794 26.5739 212.896 26.6289L212.077 28.1587C211.912 28.0825 211.764 27.9852 211.632 27.8667C211.505 27.744 211.391 27.6064 211.29 27.4541C211.188 27.3018 211.099 27.1388 211.023 26.9653C210.951 26.7918 210.888 26.6141 210.833 26.4321C210.591 26.6903 210.323 26.9272 210.026 27.1431C209.73 27.3589 209.409 27.5472 209.062 27.708C208.719 27.8646 208.353 27.9873 207.963 28.0762C207.578 28.1693 207.174 28.2222 206.751 28.2349C206.696 28.2349 206.643 28.2349 206.592 28.2349C206.237 28.2349 205.886 28.1947 205.539 28.1143C205.192 28.0381 204.862 27.9238 204.548 27.7715C204.239 27.6149 203.96 27.4329 203.711 27.2256C203.465 27.014 203.256 26.7876 203.082 26.5464C202.909 26.3052 202.775 26.0555 202.682 25.7974C202.593 25.535 202.549 25.279 202.549 25.0293C202.549 24.6146 202.617 24.2633 202.752 23.9756C202.892 23.6836 203.069 23.4403 203.285 23.2456C203.505 23.0467 203.751 22.888 204.022 22.7695C204.297 22.651 204.57 22.5601 204.84 22.4966C205.115 22.4331 205.374 22.3887 205.615 22.3633C205.86 22.3379 206.063 22.3188 206.224 22.3062L206.313 22.2998C206.571 22.2786 206.867 22.2617 207.202 22.249C207.54 22.2321 207.896 22.2215 208.268 22.2173C208.641 22.2088 209.019 22.2046 209.404 22.2046C209.794 22.2046 210.168 22.2067 210.528 22.2109C210.528 21.9697 210.445 21.7201 210.28 21.4619C210.115 21.1995 209.889 20.9604 209.601 20.7446C209.313 20.5246 208.971 20.3447 208.573 20.2051C208.179 20.0612 207.754 19.9893 207.297 19.9893C207.043 19.9893 206.781 20.0146 206.51 20.0654C206.243 20.1162 205.97 20.1987 205.691 20.313C205.416 20.4272 205.137 20.5754 204.853 20.7573C204.57 20.9351 204.288 21.153 204.009 21.4111L202.892 20.4019C203.196 20.0591 203.531 19.765 203.895 19.5195C204.263 19.2741 204.639 19.0731 205.024 18.9165C205.414 18.7599 205.801 18.6457 206.186 18.5737C206.575 18.4976 206.946 18.4595 207.297 18.4595C207.923 18.4595 208.482 18.5251 208.973 18.6562C209.464 18.7874 209.893 18.9609 210.261 19.1768C210.634 19.3883 210.947 19.6296 211.201 19.9004C211.459 20.1712 211.668 20.4463 211.829 20.7256C211.99 21.0049 212.106 21.2757 212.178 21.5381C212.25 21.8005 212.286 22.0311 212.286 22.23C212.286 22.2342 212.282 22.2363 212.274 22.2363C212.269 22.2363 212.267 22.2384 212.267 22.2427H212.286V24.1978ZM204.656 25.8989C204.965 26.1782 205.306 26.3835 205.678 26.5146C206.051 26.6458 206.436 26.7114 206.834 26.7114C207.265 26.7114 207.693 26.6395 208.116 26.4956C208.539 26.3517 208.926 26.1486 209.277 25.8862C209.633 25.6196 209.935 25.3022 210.185 24.9341C210.435 24.5617 210.6 24.147 210.68 23.6899C210.321 23.6857 209.944 23.6836 209.55 23.6836C209.161 23.6836 208.778 23.6878 208.401 23.6963C208.025 23.7005 207.667 23.709 207.329 23.7217C206.99 23.7344 206.694 23.7513 206.44 23.7725L206.345 23.7788C205.917 23.8169 205.566 23.8656 205.291 23.9248C205.016 23.984 204.798 24.0623 204.637 24.1597C204.476 24.257 204.364 24.3776 204.301 24.5215C204.237 24.6611 204.206 24.8304 204.206 25.0293C204.206 25.1901 204.246 25.3424 204.326 25.4863C204.411 25.626 204.521 25.7635 204.656 25.8989ZM218.319 18.1104H215.634L216.237 16.7773H218.319V18.1104ZM220.001 18.6943V28H218.389V21.7729L215.571 28H213.952V18.6943H215.564V24.9214L218.383 18.688L220.001 18.6943ZM227.158 18.6943V28H225.412V24.0708H223.451V28H221.705V18.6943H223.451V22.6045H225.412V18.6943H227.158ZM238.06 24.1978C238.055 24.2824 238.053 24.3691 238.053 24.458C238.053 24.623 238.062 24.8135 238.079 25.0293C238.1 25.2451 238.138 25.4694 238.193 25.7021C238.248 25.9307 238.316 26.1296 238.396 26.2988C238.477 26.4639 238.568 26.5739 238.669 26.6289L237.85 28.1587C237.685 28.0825 237.537 27.9852 237.406 27.8667C237.279 27.744 237.165 27.6064 237.063 27.4541C236.962 27.3018 236.873 27.1388 236.797 26.9653C236.725 26.7918 236.661 26.6141 236.606 26.4321C236.365 26.6903 236.096 26.9272 235.8 27.1431C235.504 27.3589 235.182 27.5472 234.835 27.708C234.492 27.8646 234.126 27.9873 233.737 28.0762C233.352 28.1693 232.948 28.2222 232.525 28.2349C232.47 28.2349 232.417 28.2349 232.366 28.2349C232.01 28.2349 231.659 28.1947 231.312 28.1143C230.965 28.0381 230.635 27.9238 230.322 27.7715C230.013 27.6149 229.734 27.4329 229.484 27.2256C229.239 27.014 229.029 26.7876 228.856 26.5464C228.682 26.3052 228.549 26.0555 228.456 25.7974C228.367 25.535 228.322 25.279 228.322 25.0293C228.322 24.6146 228.39 24.2633 228.526 23.9756C228.665 23.6836 228.843 23.4403 229.059 23.2456C229.279 23.0467 229.524 22.888 229.795 22.7695C230.07 22.651 230.343 22.5601 230.614 22.4966C230.889 22.4331 231.147 22.3887 231.388 22.3633C231.634 22.3379 231.837 22.3188 231.998 22.3062L232.087 22.2998C232.345 22.2786 232.641 22.2617 232.975 22.249C233.314 22.2321 233.669 22.2215 234.042 22.2173C234.414 22.2088 234.793 22.2046 235.178 22.2046C235.567 22.2046 235.942 22.2067 236.301 22.2109C236.301 21.9697 236.219 21.7201 236.054 21.4619C235.889 21.1995 235.662 20.9604 235.375 20.7446C235.087 20.5246 234.744 20.3447 234.346 20.2051C233.953 20.0612 233.528 19.9893 233.07 19.9893C232.817 19.9893 232.554 20.0146 232.283 20.0654C232.017 20.1162 231.744 20.1987 231.465 20.313C231.189 20.4272 230.91 20.5754 230.627 20.7573C230.343 20.9351 230.062 21.153 229.782 21.4111L228.665 20.4019C228.97 20.0591 229.304 19.765 229.668 19.5195C230.036 19.2741 230.413 19.0731 230.798 18.9165C231.187 18.7599 231.575 18.6457 231.96 18.5737C232.349 18.4976 232.719 18.4595 233.07 18.4595C233.697 18.4595 234.255 18.5251 234.746 18.6562C235.237 18.7874 235.667 18.9609 236.035 19.1768C236.407 19.3883 236.72 19.6296 236.974 19.9004C237.232 20.1712 237.442 20.4463 237.603 20.7256C237.764 21.0049 237.88 21.2757 237.952 21.5381C238.024 21.8005 238.06 22.0311 238.06 22.23C238.06 22.2342 238.055 22.2363 238.047 22.2363C238.043 22.2363 238.041 22.2384 238.041 22.2427H238.06V24.1978ZM230.43 25.8989C230.739 26.1782 231.079 26.3835 231.452 26.5146C231.824 26.6458 232.209 26.7114 232.607 26.7114C233.039 26.7114 233.466 26.6395 233.889 26.4956C234.312 26.3517 234.7 26.1486 235.051 25.8862C235.406 25.6196 235.709 25.3022 235.959 24.9341C236.208 24.5617 236.373 24.147 236.454 23.6899C236.094 23.6857 235.717 23.6836 235.324 23.6836C234.935 23.6836 234.552 23.6878 234.175 23.6963C233.798 23.7005 233.441 23.709 233.102 23.7217C232.764 23.7344 232.467 23.7513 232.214 23.7725L232.118 23.7788C231.691 23.8169 231.34 23.8656 231.065 23.9248C230.79 23.984 230.572 24.0623 230.411 24.1597C230.25 24.257 230.138 24.3776 230.074 24.5215C230.011 24.6611 229.979 24.8304 229.979 25.0293C229.979 25.1901 230.019 25.3424 230.1 25.4863C230.184 25.626 230.294 25.7635 230.43 25.8989ZM249.878 18.6943V28H248.272V21.7729L245.454 28H243.835V18.6943H245.441V24.9214L248.26 18.688L249.878 18.6943ZM267.473 25.8291C267.19 26.1719 266.843 26.4914 266.432 26.7876C266.026 27.0796 265.575 27.3335 265.08 27.5493C264.589 27.7651 264.065 27.9323 263.506 28.0508C262.947 28.1735 262.376 28.2349 261.792 28.2349C261.2 28.2349 260.62 28.1756 260.053 28.0571C259.49 27.9386 258.959 27.7715 258.46 27.5557C257.96 27.3398 257.501 27.0817 257.082 26.7812C256.663 26.4808 256.303 26.1507 256.003 25.791C255.703 25.4271 255.468 25.0399 255.298 24.6294C255.129 24.2147 255.045 23.7873 255.045 23.3472C255.045 22.9071 255.129 22.4818 255.298 22.0713C255.468 21.6566 255.703 21.2694 256.003 20.9097C256.303 20.5457 256.663 20.2135 257.082 19.9131C257.501 19.6126 257.96 19.3545 258.46 19.1387C258.959 18.9229 259.49 18.7557 260.053 18.6372C260.62 18.5187 261.2 18.4595 261.792 18.4595C262.376 18.4595 262.947 18.5208 263.506 18.6436C264.065 18.762 264.589 18.9292 265.08 19.145C265.575 19.3566 266.026 19.6105 266.432 19.9067C266.843 20.1987 267.19 20.5161 267.473 20.8589L266.026 21.7412C265.988 21.6947 265.922 21.6206 265.829 21.519C265.74 21.4132 265.618 21.2969 265.461 21.1699C265.304 21.0387 265.114 20.9054 264.89 20.77C264.67 20.6304 264.409 20.5055 264.109 20.3955C263.813 20.2812 263.474 20.1882 263.093 20.1162C262.717 20.04 262.296 20.002 261.83 20.002C261.026 20.002 260.319 20.0993 259.71 20.2939C259.101 20.4844 258.589 20.7362 258.174 21.0493C257.763 21.3625 257.452 21.7201 257.241 22.1221C257.029 22.5199 256.921 22.8267 256.917 23.0425C256.913 23.2583 256.911 23.3726 256.911 23.3853C256.911 23.7915 257.008 24.1914 257.203 24.585C257.402 24.9785 257.704 25.3319 258.11 25.645C258.517 25.9582 259.029 26.2121 259.647 26.4067C260.269 26.5972 260.997 26.6924 261.83 26.6924C262.3 26.6924 262.725 26.6543 263.106 26.5781C263.487 26.502 263.828 26.4067 264.128 26.2925C264.428 26.1782 264.689 26.0513 264.909 25.9116C265.133 25.7677 265.321 25.6323 265.474 25.5054C265.63 25.3784 265.753 25.2642 265.842 25.1626C265.931 25.061 265.992 24.9912 266.026 24.9531L267.473 25.8291ZM270.04 20.2178V22.5728H272.161V24.1025H270.04V26.4575H272.611V27.9937H268.422V18.688L272.611 18.6816V20.2178H270.04ZM282.529 23.9375C282.165 24.2676 281.731 24.5173 281.228 24.6865C280.729 24.8516 280.176 24.9341 279.571 24.9341C279.101 24.9341 278.672 24.8939 278.283 24.8135C277.893 24.7288 277.54 24.6146 277.222 24.4707C276.905 24.3268 276.622 24.1618 276.372 23.9756C276.122 23.7852 275.9 23.5863 275.705 23.3789V28H273.972V18.688H275.705V19.9512C275.718 20.0273 275.735 20.1289 275.756 20.2559C275.782 20.3828 275.815 20.5246 275.858 20.6812C275.904 20.8335 275.961 20.9985 276.029 21.1763C276.101 21.3498 276.188 21.5254 276.289 21.7031C276.962 22.8796 278.056 23.4678 279.571 23.4678C279.994 23.4678 280.373 23.4149 280.707 23.3091C281.042 23.2033 281.323 23.0488 281.552 22.8457C281.734 22.6849 281.871 22.5008 281.964 22.2935C282.062 22.0819 282.11 21.8597 282.11 21.627C282.11 21.4196 282.068 21.2144 281.983 21.0112C281.903 20.8081 281.776 20.6261 281.602 20.4653C281.433 20.3003 281.215 20.1691 280.949 20.0718C280.686 19.9702 280.375 19.9194 280.015 19.9194C279.41 19.9194 278.879 20.0358 278.422 20.2686C277.965 20.4971 277.567 20.8504 277.229 21.3286L276.029 20.478C276.503 19.8094 277.076 19.3058 277.749 18.9673C278.422 18.6245 279.178 18.4531 280.015 18.4531C280.544 18.4531 281.029 18.5335 281.469 18.6943C281.913 18.8551 282.301 19.0942 282.631 19.4116C282.935 19.7078 283.168 20.0464 283.329 20.4272C283.494 20.8039 283.576 21.2038 283.576 21.627C283.576 22.0755 283.488 22.4966 283.31 22.8901C283.132 23.2837 282.872 23.6328 282.529 23.9375ZM289.292 22.5791C289.576 22.7822 289.789 23.0213 289.933 23.2964C290.081 23.5672 290.162 23.7979 290.174 23.9883C290.191 24.1745 290.2 24.3014 290.2 24.3691C290.2 24.6104 290.162 24.8727 290.086 25.1562C290.014 25.4398 289.889 25.7339 289.711 26.0386C289.533 26.3433 289.315 26.631 289.057 26.9019C288.799 27.1727 288.507 27.4097 288.181 27.6128C287.86 27.8159 287.508 27.9767 287.128 28.0952C286.751 28.2137 286.355 28.2729 285.941 28.2729C285.704 28.2729 285.458 28.2306 285.204 28.146C284.95 28.0614 284.713 27.9344 284.493 27.7651C284.278 27.5916 284.089 27.3737 283.928 27.1113C283.772 26.849 283.672 26.5908 283.63 26.3369C283.592 26.0788 283.573 25.8608 283.573 25.6831C283.573 25.4631 283.6 25.1774 283.655 24.8262C283.71 24.4707 283.863 24.0179 284.112 23.4678C284.214 23.2393 284.324 22.9959 284.443 22.7378C284.561 22.4754 284.68 22.2088 284.798 21.938C284.921 21.6672 285.043 21.3984 285.166 21.1318C285.289 20.8652 285.405 20.6092 285.515 20.3638C285.778 19.7882 286.04 19.2127 286.302 18.6372C286.442 18.6118 286.597 18.5885 286.766 18.5674C286.91 18.5462 287.077 18.5293 287.267 18.5166C287.458 18.5039 287.661 18.4976 287.877 18.4976C288.097 18.4976 288.321 18.5081 288.549 18.5293C288.782 18.5505 289.009 18.5885 289.229 18.6436C289.453 18.6986 289.662 18.7726 289.857 18.8657C290.056 18.9588 290.227 19.0794 290.371 19.2275C290.519 19.3714 290.636 19.547 290.72 19.7544C290.809 19.9575 290.854 20.1966 290.854 20.4717C290.854 20.6706 290.809 20.8674 290.72 21.062C290.636 21.2524 290.519 21.4365 290.371 21.6143C290.227 21.792 290.062 21.9634 289.876 22.1284C289.69 22.2892 289.495 22.4395 289.292 22.5791ZM286.099 26.8193C286.328 26.8193 286.552 26.7728 286.772 26.6797C286.996 26.5866 287.206 26.4639 287.401 26.3115C287.595 26.1549 287.771 25.9793 287.927 25.7847C288.084 25.5858 288.213 25.3848 288.315 25.1816C288.42 24.9785 288.486 24.805 288.511 24.6611C288.541 24.5173 288.556 24.4051 288.556 24.3247C288.556 24.2274 288.539 24.1195 288.505 24.001C288.471 23.8825 288.387 23.7767 288.251 23.6836C288.12 23.5905 287.932 23.5439 287.686 23.5439C287.441 23.5439 287.134 23.6011 286.766 23.7153L286.315 22.6807C286.865 22.3971 287.358 22.12 287.794 21.8491C287.98 21.7349 288.16 21.6164 288.334 21.4937C288.511 21.3667 288.668 21.2419 288.803 21.1191C288.943 20.9964 289.055 20.8779 289.14 20.7637C289.224 20.6494 289.267 20.5457 289.267 20.4526C289.267 20.3384 289.22 20.2453 289.127 20.1733C289.038 20.0972 288.924 20.0358 288.784 19.9893C288.649 19.9427 288.499 19.911 288.334 19.894C288.169 19.8729 288.01 19.8623 287.858 19.8623C287.777 19.8623 287.703 19.8644 287.635 19.8687C287.568 19.8729 287.504 19.8792 287.445 19.8877L286.163 22.6362C285.854 23.2795 285.608 23.8592 285.426 24.3755C285.249 24.8918 285.153 25.2515 285.141 25.4546C285.132 25.6535 285.128 25.772 285.128 25.8101C285.128 26.1147 285.2 26.3602 285.344 26.5464C285.492 26.7284 285.744 26.8193 286.099 26.8193ZM297.794 18.6943V28H296.189V21.7729L293.37 28H291.752V18.6943H293.357V24.9214L296.176 18.688L297.794 18.6943ZM305.383 28.0254C304.79 28.0254 304.217 27.9852 303.663 27.9048C303.108 27.8244 302.588 27.7038 302.101 27.543C301.614 27.3779 301.17 27.1706 300.768 26.9209C300.366 26.6712 300.019 26.375 299.727 26.0322C299.439 25.6852 299.215 25.2896 299.054 24.8452C298.893 24.4009 298.813 23.9058 298.813 23.3599C298.813 22.8394 298.893 22.3633 299.054 21.9316C299.215 21.5 299.439 21.1107 299.727 20.7637C300.019 20.4167 300.366 20.1141 300.768 19.856C301.17 19.5936 301.614 19.3757 302.101 19.2021C302.588 19.0286 303.108 18.8996 303.663 18.8149C304.217 18.7261 304.79 18.6816 305.383 18.6816L305.376 20.2432C304.585 20.2474 303.885 20.3405 303.275 20.5225C302.67 20.7002 302.162 20.9351 301.752 21.2271C301.341 21.5148 301.028 21.8449 300.812 22.2173C300.601 22.5854 300.491 22.9642 300.482 23.3535C300.482 23.3704 300.482 23.3874 300.482 23.4043C300.482 23.7767 300.58 24.1449 300.774 24.5088C300.969 24.8727 301.269 25.2007 301.676 25.4927C302.086 25.7847 302.598 26.0216 303.212 26.2036C303.83 26.3856 304.551 26.4787 305.376 26.4829L305.383 28.0254ZM315.77 24.1978C315.766 24.2824 315.764 24.3691 315.764 24.458C315.764 24.623 315.772 24.8135 315.789 25.0293C315.81 25.2451 315.849 25.4694 315.904 25.7021C315.959 25.9307 316.026 26.1296 316.107 26.2988C316.187 26.4639 316.278 26.5739 316.38 26.6289L315.561 28.1587C315.396 28.0825 315.248 27.9852 315.116 27.8667C314.99 27.744 314.875 27.6064 314.774 27.4541C314.672 27.3018 314.583 27.1388 314.507 26.9653C314.435 26.7918 314.372 26.6141 314.317 26.4321C314.075 26.6903 313.807 26.9272 313.511 27.1431C313.214 27.3589 312.893 27.5472 312.546 27.708C312.203 27.8646 311.837 27.9873 311.448 28.0762C311.062 28.1693 310.658 28.2222 310.235 28.2349C310.18 28.2349 310.127 28.2349 310.076 28.2349C309.721 28.2349 309.37 28.1947 309.023 28.1143C308.676 28.0381 308.346 27.9238 308.032 27.7715C307.724 27.6149 307.444 27.4329 307.195 27.2256C306.949 27.014 306.74 26.7876 306.566 26.5464C306.393 26.3052 306.259 26.0555 306.166 25.7974C306.077 25.535 306.033 25.279 306.033 25.0293C306.033 24.6146 306.101 24.2633 306.236 23.9756C306.376 23.6836 306.553 23.4403 306.769 23.2456C306.989 23.0467 307.235 22.888 307.506 22.7695C307.781 22.651 308.054 22.5601 308.324 22.4966C308.6 22.4331 308.858 22.3887 309.099 22.3633C309.344 22.3379 309.547 22.3188 309.708 22.3062L309.797 22.2998C310.055 22.2786 310.351 22.2617 310.686 22.249C311.024 22.2321 311.38 22.2215 311.752 22.2173C312.125 22.2088 312.503 22.2046 312.888 22.2046C313.278 22.2046 313.652 22.2067 314.012 22.2109C314.012 21.9697 313.929 21.7201 313.764 21.4619C313.599 21.1995 313.373 20.9604 313.085 20.7446C312.797 20.5246 312.455 20.3447 312.057 20.2051C311.663 20.0612 311.238 19.9893 310.781 19.9893C310.527 19.9893 310.265 20.0146 309.994 20.0654C309.727 20.1162 309.454 20.1987 309.175 20.313C308.9 20.4272 308.621 20.5754 308.337 20.7573C308.054 20.9351 307.772 21.153 307.493 21.4111L306.376 20.4019C306.68 20.0591 307.015 19.765 307.379 19.5195C307.747 19.2741 308.123 19.0731 308.509 18.9165C308.898 18.7599 309.285 18.6457 309.67 18.5737C310.06 18.4976 310.43 18.4595 310.781 18.4595C311.407 18.4595 311.966 18.5251 312.457 18.6562C312.948 18.7874 313.377 18.9609 313.745 19.1768C314.118 19.3883 314.431 19.6296 314.685 19.9004C314.943 20.1712 315.152 20.4463 315.313 20.7256C315.474 21.0049 315.59 21.2757 315.662 21.5381C315.734 21.8005 315.77 22.0311 315.77 22.23C315.77 22.2342 315.766 22.2363 315.758 22.2363C315.753 22.2363 315.751 22.2384 315.751 22.2427H315.77V24.1978ZM308.14 25.8989C308.449 26.1782 308.79 26.3835 309.162 26.5146C309.535 26.6458 309.92 26.7114 310.318 26.7114C310.749 26.7114 311.177 26.6395 311.6 26.4956C312.023 26.3517 312.41 26.1486 312.761 25.8862C313.117 25.6196 313.42 25.3022 313.669 24.9341C313.919 24.5617 314.084 24.147 314.164 23.6899C313.805 23.6857 313.428 23.6836 313.034 23.6836C312.645 23.6836 312.262 23.6878 311.886 23.6963C311.509 23.7005 311.151 23.709 310.813 23.7217C310.474 23.7344 310.178 23.7513 309.924 23.7725L309.829 23.7788C309.401 23.8169 309.05 23.8656 308.775 23.9248C308.5 23.984 308.282 24.0623 308.121 24.1597C307.961 24.257 307.848 24.3776 307.785 24.5215C307.721 24.6611 307.69 24.8304 307.69 25.0293C307.69 25.1901 307.73 25.3424 307.81 25.4863C307.895 25.626 308.005 25.7635 308.14 25.8989Z" fill="white"/>
<defs>
<clipPath id="clip0_94_2">
<rect width="145" height="28" fill="white" transform="translate(0 1)"/>
</clipPath>
</defs>
</svg>
