<svg width="63" height="25" viewBox="0 0 63 25" fill="none" xmlns="http://www.w3.org/2000/svg">
<path d="M26.4046 12.5C26.4046 19.0997 20.7158 24.5 13.6344 24.5C6.55307 24.5 0.864258 19.0997 0.864258 12.5C0.864258 5.90033 6.55307 0.5 13.6344 0.5C20.7158 0.5 26.4046 5.90033 26.4046 12.5Z" stroke="#303030"/>
<path d="M8.15833 16V9.88672H8.1388L6.27357 11.2295V10.3018L8.14857 8.9541H9.00794V16H8.15833ZM11.0511 10.9854C11.0511 9.75488 12.0472 8.83691 13.3753 8.83691C14.6351 8.83691 15.6263 9.69141 15.6263 10.7705C15.6263 11.5566 15.2699 12.1426 14.0931 13.3584L12.3109 15.1992V15.2188H15.7435V16H11.0951V15.3945L13.5755 12.7822C14.5228 11.7861 14.7474 11.4102 14.7474 10.8242C14.7474 10.1455 14.1273 9.60352 13.3509 9.60352C12.5257 9.60352 11.9007 10.1992 11.9007 10.9854V10.9902H11.0511V10.9854ZM19.9058 13.6172V15.8535H19.1148V13.6172H17.0298V12.8262H19.1148V10.6436H19.9058V12.8262H21.9908V13.6172H19.9058Z" fill="#303030"/>
<path d="M62.5003 12.5C62.5003 19.0997 56.8115 24.5 49.7301 24.5C42.6488 24.5 36.96 19.0997 36.96 12.5C36.96 5.90033 42.6488 0.5 49.7301 0.5C56.8115 0.5 62.5003 5.90033 62.5003 12.5Z" stroke="#303030"/>
<path d="M42.2983 12.4855C44.5985 9.4855 50.7912 5.2855 57.1609 12.4855" stroke="#303030" stroke-linecap="round"/>
<path d="M42.2983 12.4855C44.5985 15.504 50.7912 19.7299 57.1609 12.4855" stroke="#303030" stroke-linecap="round"/>
<path d="M52.4136 12.4855C52.4136 13.8385 51.2402 14.9855 49.7288 14.9855C48.2174 14.9855 47.0439 13.8385 47.0439 12.4855C47.0439 11.1325 48.2174 9.9855 49.7288 9.9855C51.2402 9.9855 52.4136 11.1325 52.4136 12.4855Z" stroke="#303030"/>
</svg>
