<svg width="664" height="47" viewBox="0 0 664 47" fill="none" xmlns="http://www.w3.org/2000/svg">
<path d="M44.1426 27.8613C44.123 28.2324 44.1133 28.6133 44.1133 29.0039C44.1133 29.7852 44.1621 30.6836 44.2598 31.6992C44.3574 32.6953 44.5234 33.7305 44.7578 34.8047C45.0117 35.8594 45.3242 36.7773 45.6953 37.5586C46.0664 38.3203 46.4863 38.8281 46.9551 39.082L43.293 46.1133C42.4336 45.6641 41.6035 45.0098 40.8027 44.1504C40.002 43.2715 39.2891 42.2656 38.6641 41.1328C38.0586 39.9805 37.5703 38.7305 37.1992 37.3828C36.8477 36.0156 36.6719 34.6191 36.6719 33.1934C36.3789 33.5059 35.959 33.9844 35.4121 34.6289C34.8848 35.2734 34.25 35.9961 33.5078 36.7969C32.7852 37.5781 31.9551 38.4082 31.0176 39.2871C30.0801 40.1465 29.0547 40.9766 27.9414 41.7773C26.8477 42.5781 25.6562 43.3105 24.3672 43.9746C23.0977 44.6191 21.7598 45.1074 20.3535 45.4395C19.7676 45.5957 19.0742 45.7227 18.2734 45.8203C17.4922 45.918 16.6426 45.9668 15.7246 45.9668C14.8066 45.9668 13.8496 45.8984 12.8535 45.7617C11.8574 45.625 10.8711 45.3711 9.89453 45C8.91797 44.6484 7.9707 44.1797 7.05273 43.5938C6.1543 42.9883 5.32422 42.2363 4.5625 41.3379C3.80078 40.4199 3.13672 39.3262 2.57031 38.0566C2.02344 36.7871 1.62305 35.3125 1.36914 33.6328C1.1543 32.2266 0.988281 30.8594 0.871094 29.5312C0.773438 28.1836 0.705078 26.9824 0.666016 25.9277C0.626953 24.9902 0.607422 24.0918 0.607422 23.2324V2.05078H8.54688V25.957C8.54688 28.2617 8.73242 30.2051 9.10352 31.7871C9.49414 33.3691 10.0117 34.6484 10.6562 35.625C11.3203 36.582 12.0918 37.2754 12.9707 37.7051C13.8691 38.1152 14.8262 38.3203 15.8418 38.3203C16.8965 38.3203 17.9902 38.1348 19.123 37.7637C20.2754 37.373 21.4082 36.8652 22.5215 36.2402C23.6348 35.6152 24.709 34.9023 25.7441 34.1016C26.7988 33.3008 27.7461 32.4902 28.5859 31.6699C30.5391 29.7754 32.1211 28.0469 33.332 26.4844C34.5625 24.9023 35.5195 23.5645 36.2031 22.4707V2.05078H44.1426V27.8613ZM79.8684 45.1172C77.134 45.1172 74.4875 44.9316 71.9289 44.5605C69.3703 44.1895 66.968 43.6328 64.7219 42.8906C62.4758 42.1289 60.425 41.1719 58.5695 40.0195C56.7141 38.8672 55.1125 37.5 53.7648 35.918C52.4367 34.3164 51.4016 32.4902 50.6594 30.4395C49.9172 28.3887 49.5461 26.1035 49.5461 23.584C49.5461 21.1816 49.9172 18.9844 50.6594 16.9922C51.4016 15 52.4367 13.2031 53.7648 11.6016C55.1125 10 56.7141 8.60352 58.5695 7.41211C60.425 6.20117 62.4758 5.19531 64.7219 4.39453C66.968 3.59375 69.3703 2.99805 71.9289 2.60742C74.4875 2.19727 77.134 1.99219 79.8684 1.99219L79.8391 9.19922C76.1867 9.21875 72.9543 9.64844 70.1418 10.4883C67.3488 11.3086 65.0051 12.3926 63.1105 13.7402C61.216 15.0684 59.7707 16.5918 58.7746 18.3105C57.798 20.0098 57.2902 21.7578 57.2512 23.5547C57.2512 23.6328 57.2512 23.7109 57.2512 23.7891C57.2512 25.5078 57.7004 27.207 58.5988 28.8867C59.4973 30.5664 60.884 32.0801 62.759 33.4277C64.6535 34.7754 67.0168 35.8691 69.8488 36.709C72.7004 37.5488 76.0305 37.9785 79.8391 37.998L79.8684 45.1172ZM107.596 2.05078V8.81836H100.096V45H92.391V8.81836H84.9203V2.05078H107.596ZM127.589 1.81641C129.171 1.81641 130.754 2.03125 132.336 2.46094C133.918 2.89063 135.431 3.52539 136.877 4.36523C138.341 5.20508 139.699 6.25 140.949 7.5C142.199 8.73047 143.283 10.1465 144.201 11.748C145.119 13.3496 145.841 15.1465 146.369 17.1387C146.896 19.1113 147.16 21.25 147.16 23.5547C147.16 25.8984 146.896 28.0664 146.369 30.0586C145.841 32.0508 145.119 33.8477 144.201 35.4492C143.283 37.0508 142.199 38.4668 140.949 39.6973C139.699 40.9277 138.341 41.9531 136.877 42.7734C135.431 43.5938 133.918 44.2188 132.336 44.6484C130.754 45.0586 129.171 45.2637 127.589 45.2637C126.007 45.2637 124.416 45.0586 122.814 44.6484C121.232 44.2188 119.709 43.5938 118.244 42.7734C116.798 41.9531 115.451 40.9277 114.201 39.6973C112.951 38.4668 111.867 37.0508 110.949 35.4492C110.031 33.8477 109.308 32.0508 108.781 30.0586C108.254 28.0664 107.99 25.8984 107.99 23.5547C107.99 21.2305 108.254 19.082 108.781 17.1094C109.308 15.1367 110.031 13.3496 110.949 11.748C111.867 10.1465 112.951 8.73047 114.201 7.5C115.451 6.25 116.798 5.20508 118.244 4.36523C119.709 3.52539 121.232 2.89063 122.814 2.46094C124.416 2.03125 126.007 1.81641 127.589 1.81641ZM127.589 39.2285C129.132 39.209 130.597 38.8672 131.984 38.2031C133.371 37.5195 134.582 36.5234 135.617 35.2148C136.671 33.8867 137.502 32.2559 138.107 30.3223C138.732 28.3691 139.045 26.1133 139.045 23.5547C139.045 20.9766 138.732 18.7207 138.107 16.7871C137.502 14.834 136.671 13.2031 135.617 11.8945C134.582 10.5859 133.371 9.59961 131.984 8.93555C130.597 8.25195 129.132 7.90039 127.589 7.88086C126.046 7.90039 124.572 8.25195 123.166 8.93555C121.779 9.59961 120.558 10.5859 119.504 11.8945C118.449 13.2031 117.609 14.834 116.984 16.7871C116.359 18.7207 116.046 20.9766 116.046 23.5547C116.046 26.1133 116.359 28.3691 116.984 30.3223C117.609 32.2559 118.449 33.8867 119.504 35.2148C120.558 36.5234 121.779 37.5195 123.166 38.2031C124.572 38.8672 126.046 39.209 127.589 39.2285ZM191.85 26.25C190.171 27.7734 188.169 28.9258 185.845 29.707C183.54 30.4688 180.991 30.8496 178.198 30.8496C176.03 30.8496 174.048 30.6641 172.251 30.293C170.454 29.9023 168.823 29.375 167.358 28.7109C165.893 28.0469 164.585 27.2852 163.432 26.4258C162.28 25.5469 161.255 24.6289 160.356 23.6719V45H152.358V2.02148H160.356V7.85156C160.415 8.20312 160.493 8.67188 160.591 9.25781C160.708 9.84375 160.864 10.498 161.059 11.2207C161.274 11.9238 161.538 12.6855 161.85 13.5059C162.182 14.3066 162.583 15.1172 163.052 15.9375C166.157 21.3672 171.206 24.082 178.198 24.082C180.151 24.082 181.899 23.8379 183.442 23.3496C184.985 22.8613 186.284 22.1484 187.339 21.2109C188.179 20.4688 188.813 19.6191 189.243 18.6621C189.692 17.6855 189.917 16.6602 189.917 15.5859C189.917 14.6289 189.721 13.6816 189.331 12.7441C188.96 11.8066 188.374 10.9668 187.573 10.2246C186.792 9.46289 185.786 8.85742 184.555 8.4082C183.345 7.93945 181.909 7.70508 180.249 7.70508C177.456 7.70508 175.005 8.24219 172.895 9.31641C170.786 10.3711 168.95 12.002 167.387 14.209L161.85 10.2832C164.038 7.19727 166.684 4.87305 169.79 3.31055C172.895 1.72852 176.382 0.9375 180.249 0.9375C182.69 0.9375 184.927 1.30859 186.958 2.05078C189.009 2.79297 190.796 3.89648 192.319 5.36133C193.725 6.72852 194.8 8.29102 195.542 10.0488C196.304 11.7871 196.684 13.6328 196.684 15.5859C196.684 17.6562 196.274 19.5996 195.454 21.416C194.634 23.2324 193.432 24.8438 191.85 26.25ZM229.041 2.05078V45H221.629V16.2598L208.621 45H201.15V2.05078H208.562V30.791L221.57 2.02148L229.041 2.05078ZM256.271 1.08398C257.872 1.08398 259.435 1.35742 260.958 1.9043C262.482 2.43164 263.868 3.21289 265.118 4.24805C266.368 5.2832 267.443 6.55273 268.341 8.05664C269.239 9.54102 269.806 10.9961 270.04 12.4219C270.275 13.8281 270.392 15.0293 270.392 16.0254C270.392 17.1387 270.255 18.584 269.982 20.3613C269.708 22.1387 268.966 24.3652 267.755 27.041L264.884 33.3691C264.415 34.4043 263.956 35.4102 263.507 36.3867C263.058 37.3633 262.638 38.2812 262.247 39.1406C261.329 41.1719 260.441 43.125 259.581 45H251.261L259.728 26.8066C261.154 23.8574 261.964 21.5918 262.159 20.0098C262.355 18.4082 262.452 17.2363 262.452 16.4941C262.452 15.127 262.238 13.7695 261.808 12.4219C261.378 11.0547 260.587 9.93164 259.435 9.05273C258.282 8.17383 256.984 7.73438 255.538 7.73438C254.113 7.73438 252.853 8.07617 251.759 8.75977C250.665 9.44336 249.767 10.293 249.064 11.3086C248.38 12.3242 247.941 13.291 247.745 14.209C247.55 15.1074 247.452 15.8496 247.452 16.4355C247.452 16.9629 247.54 17.6074 247.716 18.3691C247.892 19.1113 248.361 19.8242 249.122 20.5078C249.904 21.1914 250.968 21.5332 252.316 21.5332C253.195 21.5332 254.161 21.377 255.216 21.0645L257.032 25.1367L239.132 45H230.577L246.749 26.5723C245.695 26.3965 244.728 25.9277 243.849 25.166C242.97 24.4043 242.228 23.457 241.622 22.3242C241.036 21.1719 240.655 20.0684 240.48 19.0137C240.304 17.9395 240.216 17.0508 240.216 16.3477C240.216 15.5664 240.314 14.5898 240.509 13.418C240.704 12.2461 241.202 10.8887 242.003 9.3457C242.804 7.7832 243.937 6.31836 245.402 4.95117C247.12 3.56445 248.868 2.57812 250.646 1.99219C252.443 1.38672 254.318 1.08398 256.271 1.08398ZM314.685 19.1602C316.365 19.2969 317.859 19.7754 319.168 20.5957C320.496 21.3965 321.658 22.4219 322.654 23.6719C323.67 24.9023 324.548 26.2891 325.291 27.832C326.033 29.3555 326.658 30.9082 327.166 32.4902C328.377 36.2012 329.187 40.3711 329.597 45H321.716C321.404 41.3477 320.847 38.0859 320.046 35.2148C319.714 34.0039 319.304 32.8125 318.816 31.6406C318.347 30.4688 317.781 29.4238 317.117 28.5059C316.453 27.5879 315.691 26.8555 314.832 26.3086C313.992 25.7422 313.035 25.459 311.961 25.459C310.75 25.459 309.675 25.7422 308.738 26.3086C307.8 26.8555 306.99 27.5879 306.306 28.5059C305.623 29.4238 305.037 30.4688 304.548 31.6406C304.08 32.8125 303.689 34.0039 303.377 35.2148C302.634 38.0859 302.205 41.3477 302.087 45H294.734V2.05078H302.586V24.668C302.605 24.6289 302.634 24.5703 302.673 24.4922C302.712 24.4141 302.771 24.3262 302.849 24.2285L317.41 2.05078H326.199L314.685 19.1602ZM376.485 27.4512C376.466 27.8418 376.456 28.2422 376.456 28.6523C376.456 29.4141 376.495 30.293 376.573 31.2891C376.671 32.2852 376.846 33.3203 377.1 34.3945C377.354 35.4492 377.667 36.3672 378.038 37.1484C378.409 37.9102 378.829 38.418 379.298 38.6719L375.518 45.7324C374.757 45.3809 374.073 44.9316 373.468 44.3848C372.882 43.8184 372.354 43.1836 371.886 42.4805C371.417 41.7773 371.007 41.0254 370.655 40.2246C370.323 39.4238 370.03 38.6035 369.776 37.7637C368.663 38.9551 367.423 40.0488 366.055 41.0449C364.688 42.041 363.204 42.9102 361.602 43.6523C360.02 44.375 358.331 44.9414 356.534 45.3516C354.757 45.7812 352.891 46.0254 350.938 46.084C350.684 46.084 350.44 46.084 350.206 46.084C348.565 46.084 346.944 45.8984 345.343 45.5273C343.741 45.1758 342.218 44.6484 340.772 43.9453C339.346 43.2227 338.057 42.3828 336.905 41.4258C335.772 40.4492 334.805 39.4043 334.005 38.291C333.204 37.1777 332.589 36.0254 332.159 34.834C331.749 33.623 331.544 32.4414 331.544 31.2891C331.544 29.375 331.856 27.7539 332.481 26.4258C333.126 25.0781 333.946 23.9551 334.942 23.0566C335.958 22.1387 337.091 21.4062 338.341 20.8594C339.61 20.3125 340.87 19.8926 342.12 19.5996C343.389 19.3066 344.581 19.1016 345.694 18.9844C346.827 18.8672 347.764 18.7793 348.507 18.7207L348.917 18.6914C350.108 18.5938 351.475 18.5156 353.018 18.457C354.581 18.3789 356.221 18.3301 357.94 18.3105C359.659 18.2715 361.407 18.252 363.184 18.252C364.981 18.252 366.71 18.2617 368.37 18.2812C368.37 17.168 367.989 16.0156 367.227 14.8242C366.466 13.6133 365.421 12.5098 364.093 11.5137C362.764 10.498 361.182 9.66797 359.346 9.02344C357.53 8.35937 355.567 8.02734 353.458 8.02734C352.286 8.02734 351.075 8.14453 349.825 8.37891C348.595 8.61328 347.335 8.99414 346.046 9.52148C344.776 10.0488 343.487 10.7324 342.179 11.5723C340.87 12.3926 339.571 13.3984 338.282 14.5898L333.126 9.93164C334.532 8.34961 336.075 6.99219 337.755 5.85938C339.454 4.72656 341.192 3.79883 342.97 3.07617C344.766 2.35352 346.554 1.82617 348.331 1.49414C350.128 1.14258 351.837 0.966797 353.458 0.966797C356.348 0.966797 358.927 1.26953 361.192 1.875C363.458 2.48047 365.44 3.28125 367.139 4.27734C368.858 5.25391 370.304 6.36719 371.475 7.61719C372.667 8.86719 373.634 10.1367 374.376 11.4258C375.118 12.7148 375.655 13.9648 375.987 15.1758C376.319 16.3867 376.485 17.4512 376.485 18.3691C376.485 18.3887 376.466 18.3984 376.427 18.3984C376.407 18.3984 376.397 18.4082 376.397 18.4277H376.485V27.4512ZM341.27 35.3027C342.696 36.5918 344.268 37.5391 345.987 38.1445C347.706 38.75 349.483 39.0527 351.319 39.0527C353.311 39.0527 355.284 38.7207 357.237 38.0566C359.19 37.3926 360.977 36.4551 362.598 35.2441C364.239 34.0137 365.636 32.5488 366.788 30.8496C367.94 29.1309 368.702 27.2168 369.073 25.1074C367.413 25.0879 365.675 25.0781 363.858 25.0781C362.061 25.0781 360.294 25.0977 358.555 25.1367C356.817 25.1562 355.167 25.1953 353.604 25.2539C352.042 25.3125 350.675 25.3906 349.503 25.4883L349.063 25.5176C347.091 25.6934 345.47 25.918 344.2 26.1914C342.93 26.4648 341.925 26.8262 341.182 27.2754C340.44 27.7246 339.923 28.2812 339.63 28.9453C339.337 29.5898 339.19 30.3711 339.19 31.2891C339.19 32.0312 339.376 32.7344 339.747 33.3984C340.138 34.043 340.645 34.6777 341.27 35.3027ZM456.127 5.36133C457.533 6.72852 458.607 8.29102 459.35 10.0488C460.111 11.7871 460.492 13.6328 460.492 15.5859C460.492 17.6562 460.072 19.5996 459.232 21.416C458.412 23.2324 457.221 24.8438 455.658 26.25C453.959 27.7734 451.957 28.9258 449.652 29.707C447.348 30.4688 444.799 30.8496 442.006 30.8496C439.838 30.8496 437.855 30.6641 436.059 30.293C434.262 29.9023 432.631 29.375 431.166 28.7109C429.701 28.0469 428.393 27.2852 427.24 26.4258C426.088 25.5469 425.062 24.6289 424.164 23.6719V45H416.254V23.7012C415.355 24.6582 414.33 25.5762 413.178 26.4551C412.025 27.3145 410.717 28.0762 409.252 28.7402C407.787 29.4043 406.156 29.9316 404.359 30.3223C402.582 30.6934 400.609 30.8789 398.441 30.8789C395.629 30.8789 393.07 30.4883 390.766 29.707C388.461 28.9258 386.459 27.7832 384.76 26.2793C383.197 24.873 381.996 23.2617 381.156 21.4453C380.336 19.6094 379.926 17.6562 379.926 15.5859C379.926 13.6328 380.297 11.7871 381.039 10.0488C381.801 8.29102 382.885 6.73828 384.291 5.39062C385.814 3.92578 387.592 2.82227 389.623 2.08008C391.674 1.31836 393.92 0.9375 396.361 0.9375C400.229 0.9375 403.715 1.72852 406.82 3.31055C409.926 4.87305 412.572 7.19727 414.76 10.2832L409.252 14.209C407.689 12.0215 405.844 10.3906 403.715 9.31641C401.605 8.24219 399.154 7.70508 396.361 7.70508C394.701 7.70508 393.266 7.93945 392.055 8.4082C390.844 8.87695 389.838 9.48242 389.037 10.2246C388.256 10.9668 387.67 11.8164 387.279 12.7734C386.908 13.7109 386.723 14.6484 386.723 15.5859C386.723 16.6602 386.938 17.6855 387.367 18.6621C387.816 19.6387 388.461 20.498 389.301 21.2402C390.355 22.1777 391.654 22.8906 393.197 23.3789C394.74 23.8672 396.488 24.1113 398.441 24.1113C405.414 24.1113 410.453 21.3965 413.559 15.9668C414.027 15.1465 414.418 14.3359 414.73 13.5352C415.062 12.7344 415.326 11.9824 415.521 11.2793C415.736 10.5566 415.902 9.90234 416.02 9.31641C416.137 8.73047 416.215 8.26172 416.254 7.91016V2.02148H424.164V7.88086C424.223 8.25195 424.301 8.73047 424.398 9.31641C424.516 9.88281 424.672 10.5273 424.867 11.25C425.082 11.9531 425.346 12.7051 425.658 13.5059C425.99 14.3066 426.391 15.1172 426.859 15.9375C429.945 21.3672 434.994 24.082 442.006 24.082C443.959 24.082 445.697 23.8379 447.221 23.3496C448.764 22.8613 450.062 22.1484 451.117 21.2109C451.957 20.4688 452.602 19.6191 453.051 18.6621C453.5 17.6855 453.725 16.6602 453.725 15.5859C453.725 14.6289 453.529 13.6816 453.139 12.7441C452.748 11.8066 452.152 10.9668 451.352 10.2246C450.57 9.46289 449.574 8.85742 448.363 8.4082C447.152 7.93945 445.717 7.70508 444.057 7.70508C441.264 7.70508 438.803 8.24219 436.674 9.31641C434.564 10.3711 432.729 12.002 431.166 14.209L425.658 10.2832C427.846 7.19727 430.492 4.87305 433.598 3.31055C436.703 1.72852 440.189 0.9375 444.057 0.9375C446.498 0.9375 448.734 1.30859 450.766 2.05078C452.816 2.79297 454.604 3.89648 456.127 5.36133ZM472.282 9.08203V19.9512H482.068V27.0117H472.282V37.8809H484.148V44.9707H464.812V2.02148L484.148 1.99219V9.08203H472.282ZM498.34 2.05078C504.082 2.08984 509.463 2.37305 514.483 2.90039C519.502 3.42773 524.102 4.16016 528.282 5.09766C532.461 6.03516 536.182 7.1582 539.444 8.4668C542.725 9.77539 545.498 11.2207 547.764 12.8027C550.03 14.3848 551.758 16.084 552.95 17.9004C554.141 19.6973 554.737 21.5723 554.737 23.5254C554.737 25.4785 554.141 27.3633 552.95 29.1797C551.758 30.9961 550.03 32.6953 547.764 34.2773C545.498 35.8594 542.725 37.3047 539.444 38.6133C536.182 39.9023 532.461 41.0156 528.282 41.9531C524.102 42.8906 519.502 43.623 514.483 44.1504C509.463 44.6777 504.082 44.9609 498.34 45H490.489V2.05078H498.34ZM498.34 38.3203C502.286 38.2812 506.172 38.1152 510 37.8223C513.848 37.5293 517.51 37.1094 520.987 36.5625C524.463 35.9961 527.676 35.3027 530.625 34.4824C533.594 33.6621 536.153 32.7148 538.301 31.6406C540.469 30.5469 542.159 29.3262 543.37 27.9785C544.6 26.6309 545.215 25.1465 545.215 23.5254C545.215 21.9043 544.6 20.4199 543.37 19.0723C542.159 17.7246 540.469 16.5137 538.301 15.4395C536.153 14.3457 533.594 13.3887 530.625 12.5684C527.676 11.748 524.463 11.0645 520.987 10.5176C517.51 9.95117 513.848 9.52148 510 9.22852C506.153 8.91602 502.266 8.75 498.34 8.73047V38.3203ZM598.109 26.25C596.429 27.7734 594.427 28.9258 592.103 29.707C589.798 30.4688 587.25 30.8496 584.457 30.8496C582.289 30.8496 580.306 30.6641 578.509 30.293C576.713 29.9023 575.082 29.375 573.617 28.7109C572.152 28.0469 570.843 27.2852 569.691 26.4258C568.539 25.5469 567.513 24.6289 566.615 23.6719V45H558.617V2.02148H566.615V7.85156C566.673 8.20312 566.752 8.67188 566.849 9.25781C566.966 9.84375 567.123 10.498 567.318 11.2207C567.533 11.9238 567.797 12.6855 568.109 13.5059C568.441 14.3066 568.841 15.1172 569.31 15.9375C572.416 21.3672 577.464 24.082 584.457 24.082C586.41 24.082 588.158 23.8379 589.701 23.3496C591.244 22.8613 592.543 22.1484 593.597 21.2109C594.437 20.4688 595.072 19.6191 595.502 18.6621C595.951 17.6855 596.175 16.6602 596.175 15.5859C596.175 14.6289 595.98 13.6816 595.589 12.7441C595.218 11.8066 594.632 10.9668 593.832 10.2246C593.05 9.46289 592.045 8.85742 590.814 8.4082C589.603 7.93945 588.168 7.70508 586.507 7.70508C583.714 7.70508 581.263 8.24219 579.154 9.31641C577.045 10.3711 575.209 12.002 573.646 14.209L568.109 10.2832C570.297 7.19727 572.943 4.87305 576.048 3.31055C579.154 1.72852 582.64 0.9375 586.507 0.9375C588.949 0.9375 591.185 1.30859 593.216 2.05078C595.267 2.79297 597.054 3.89648 598.578 5.36133C599.984 6.72852 601.058 8.29102 601.8 10.0488C602.562 11.7871 602.943 13.6328 602.943 15.5859C602.943 17.6562 602.533 19.5996 601.713 21.416C600.892 23.2324 599.691 24.8438 598.109 26.25ZM647.077 20.8008C648.639 22.207 649.831 23.8184 650.651 25.6348C651.491 27.4512 651.911 29.3945 651.911 31.4648C651.911 33.418 651.53 35.2734 650.768 37.0312C650.026 38.7695 648.952 40.3223 647.546 41.6895C646.022 43.1543 644.235 44.2578 642.184 45C640.153 45.7422 637.917 46.1133 635.475 46.1133C631.608 46.1133 628.122 45.332 625.016 43.7695C621.911 42.1875 619.264 39.8535 617.077 36.7676L622.585 32.8418C624.147 35.0488 625.983 36.6895 628.093 37.7637C630.221 38.8184 632.682 39.3457 635.475 39.3457C637.136 39.3457 638.571 39.1113 639.782 38.6426C641.013 38.1738 642.018 37.5684 642.8 36.8262C643.6 36.084 644.186 35.2441 644.557 34.3066C644.948 33.3691 645.143 32.4219 645.143 31.4648C645.143 30.3906 644.919 29.375 644.47 28.418C644.02 27.4414 643.386 26.582 642.565 25.8398C641.511 24.9023 640.212 24.1895 638.669 23.7012C637.126 23.2129 635.378 22.9688 633.425 22.9688C626.413 22.9688 621.364 25.6738 618.278 31.084C617.809 31.9043 617.409 32.7246 617.077 33.5449C616.764 34.3457 616.501 35.1074 616.286 35.8301C616.091 36.5527 615.934 37.207 615.817 37.793C615.7 38.3789 615.622 38.8477 615.583 39.1992V45.0293H607.585V2.05078H615.583V23.3789C616.481 22.4023 617.507 21.4844 618.659 20.625C619.811 19.7461 621.12 18.9844 622.585 18.3398C624.05 17.6758 625.68 17.1484 627.477 16.7578C629.274 16.3672 631.257 16.1719 633.425 16.1719C636.218 16.1719 638.766 16.5625 641.071 17.3438C643.376 18.125 645.378 19.2773 647.077 20.8008ZM663.805 2.05078V45.0293H655.807V2.05078H663.805Z" fill="#303030"/>
</svg>
