<svg width="749" height="104" viewBox="0 0 749 104" fill="none" xmlns="http://www.w3.org/2000/svg">
<path d="M41.4766 39.8418C42.1211 40.584 42.7852 41.2383 43.4688 41.8047C44.1719 42.3516 44.875 42.8301 45.5781 43.2402C46.2812 43.6504 46.9746 43.9922 47.6582 44.2656C48.3418 44.5195 48.9961 44.7246 49.6211 44.8809C51.0078 45.2324 52.3848 45.4082 53.752 45.4082C53.8105 45.4082 53.8789 45.4082 53.957 45.4082L55.8906 51.9121C55.8125 51.9316 55.4609 52 54.8359 52.1172C54.2305 52.2539 53.4102 52.3223 52.375 52.3223C50.4609 52.3223 48.7129 52.127 47.1309 51.7363C45.5488 51.3457 44.1035 50.8281 42.7949 50.1836C41.4863 49.5391 40.2852 48.7969 39.1914 47.957C38.1172 47.0977 37.1016 46.1992 36.1445 45.2617C35.207 44.3242 34.3184 43.3867 33.4785 42.4492C32.6387 41.4922 31.8086 40.5938 30.9883 39.7539C30.168 38.9141 29.3281 38.1523 28.4688 37.4688C27.6289 36.7852 26.7305 36.248 25.7734 35.8574C24.6992 35.4082 23.5859 35.0469 22.4336 34.7734C21.3008 34.5 20.1777 34.2949 19.0645 34.1582C17.9512 34.002 16.8672 33.8945 15.8125 33.8359C14.7773 33.7773 13.8301 33.748 12.9707 33.748C11.7012 33.748 10.6953 33.7773 9.95312 33.8359C9.52344 33.8555 9.14258 33.8848 8.81055 33.9238V52H0.34375V9.05078H8.81055V26.9512C11.6816 26.9512 14.1914 26.834 16.3398 26.5996C18.4883 26.3652 20.3535 26.0527 21.9355 25.6621C23.5176 25.2715 24.8555 24.8125 25.9492 24.2852C27.0625 23.7578 28 23.2109 28.7617 22.6445C29.543 22.0586 30.207 21.4629 30.7539 20.8574C31.3008 20.252 31.7988 19.666 32.248 19.0996C34.0645 16.873 35.9199 15.0957 37.8145 13.7676C39.709 12.4199 41.5449 11.3848 43.3223 10.6621C45.0996 9.93945 46.7598 9.46094 48.3027 9.22656C49.8652 8.99219 51.2031 8.875 52.3164 8.875C53.2539 8.875 53.9961 8.91406 54.543 8.99219C55.1094 9.07031 55.4219 9.11914 55.4805 9.13867L53.5762 15.6426C53.4395 15.6035 53.2832 15.5742 53.1074 15.5547C52.7949 15.4961 52.3555 15.4668 51.7891 15.4668C51.125 15.4668 50.3047 15.5547 49.3281 15.7305C48.3711 15.8867 47.3066 16.2383 46.1348 16.7852C44.9629 17.3125 43.7227 18.0742 42.4141 19.0703C41.1055 20.0469 39.7773 21.3555 38.4297 22.9961C37.9219 23.6016 37.3359 24.2559 36.6719 24.959C36.0273 25.6426 35.3242 26.3066 34.5625 26.9512C33.8008 27.5762 32.9805 28.1426 32.1016 28.6504C31.2422 29.1582 30.3438 29.5293 29.4062 29.7637C30.0312 29.959 30.7344 30.3105 31.5156 30.8184C32.2969 31.3262 33.0977 31.9121 33.918 32.5762C34.7383 33.2207 35.5488 33.9238 36.3496 34.6855C37.1699 35.4277 37.9219 36.1406 38.6055 36.8242C39.2891 37.4883 39.8848 38.0938 40.3926 38.6406C40.9004 39.1875 41.2617 39.5879 41.4766 39.8418ZM102.163 34.4512C102.144 34.8418 102.134 35.2422 102.134 35.6523C102.134 36.4141 102.173 37.293 102.251 38.2891C102.349 39.2852 102.525 40.3203 102.779 41.3945C103.032 42.4492 103.345 43.3672 103.716 44.1484C104.087 44.9102 104.507 45.418 104.976 45.6719L101.196 52.7324C100.435 52.3809 99.7512 51.9316 99.1457 51.3848C98.5598 50.8184 98.0324 50.1836 97.5637 49.4805C97.0949 48.7773 96.6848 48.0254 96.3332 47.2246C96.0012 46.4238 95.7082 45.6035 95.4543 44.7637C94.341 45.9551 93.1008 47.0488 91.7336 48.0449C90.3664 49.041 88.882 49.9102 87.2805 50.6523C85.6984 51.375 84.009 51.9414 82.2121 52.3516C80.4348 52.7812 78.5695 53.0254 76.6164 53.084C76.3625 53.084 76.1184 53.084 75.884 53.084C74.2434 53.084 72.6223 52.8984 71.0207 52.5273C69.4191 52.1758 67.8957 51.6484 66.4504 50.9453C65.0246 50.2227 63.7355 49.3828 62.5832 48.4258C61.4504 47.4492 60.4836 46.4043 59.6828 45.291C58.882 44.1777 58.2668 43.0254 57.8371 41.834C57.427 40.623 57.2219 39.4414 57.2219 38.2891C57.2219 36.375 57.5344 34.7539 58.1594 33.4258C58.8039 32.0781 59.6242 30.9551 60.6203 30.0566C61.6359 29.1387 62.7687 28.4062 64.0187 27.8594C65.2883 27.3125 66.548 26.8926 67.798 26.5996C69.0676 26.3066 70.259 26.1016 71.3723 25.9844C72.5051 25.8672 73.4426 25.7793 74.1848 25.7207L74.5949 25.6914C75.7863 25.5938 77.1535 25.5156 78.6965 25.457C80.259 25.3789 81.8996 25.3301 83.6184 25.3105C85.3371 25.2715 87.0852 25.252 88.8625 25.252C90.6594 25.252 92.3879 25.2617 94.048 25.2812C94.048 24.168 93.6672 23.0156 92.9055 21.8242C92.1437 20.6133 91.0988 19.5098 89.7707 18.5137C88.4426 17.498 86.8605 16.668 85.0246 16.0234C83.2082 15.3594 81.2453 15.0273 79.1359 15.0273C77.9641 15.0273 76.7531 15.1445 75.5031 15.3789C74.2727 15.6133 73.0129 15.9941 71.7238 16.5215C70.4543 17.0488 69.1652 17.7324 67.8566 18.5723C66.548 19.3926 65.2492 20.3984 63.9602 21.5898L58.8039 16.9316C60.2102 15.3496 61.7531 13.9922 63.4328 12.8594C65.132 11.7266 66.8703 10.7988 68.6477 10.0762C70.4445 9.35352 72.2316 8.82617 74.009 8.49414C75.8059 8.14258 77.5148 7.9668 79.1359 7.9668C82.0266 7.9668 84.6047 8.26953 86.8703 8.875C89.1359 9.48047 91.1184 10.2812 92.8176 11.2773C94.5363 12.2539 95.9816 13.3672 97.1535 14.6172C98.3449 15.8672 99.3117 17.1367 100.054 18.4258C100.796 19.7148 101.333 20.9648 101.665 22.1758C101.997 23.3867 102.163 24.4512 102.163 25.3691C102.163 25.3887 102.144 25.3984 102.105 25.3984C102.085 25.3984 102.075 25.4082 102.075 25.4277H102.163V34.4512ZM66.9484 42.3027C68.3742 43.5918 69.9465 44.5391 71.6652 45.1445C73.384 45.75 75.1613 46.0527 76.9973 46.0527C78.9895 46.0527 80.9621 45.7207 82.9152 45.0566C84.8684 44.3926 86.6555 43.4551 88.2766 42.2441C89.9172 41.0137 91.3137 39.5488 92.466 37.8496C93.6184 36.1309 94.3801 34.2168 94.7512 32.1074C93.091 32.0879 91.3527 32.0781 89.5363 32.0781C87.7395 32.0781 85.9719 32.0977 84.2336 32.1367C82.4953 32.1562 80.8449 32.1953 79.2824 32.2539C77.7199 32.3125 76.3527 32.3906 75.1809 32.4883L74.7414 32.5176C72.7687 32.6934 71.1477 32.918 69.8781 33.1914C68.6086 33.4648 67.6027 33.8262 66.8605 34.2754C66.1184 34.7246 65.6008 35.2812 65.3078 35.9453C65.0148 36.5898 64.8684 37.3711 64.8684 38.2891C64.8684 39.0312 65.0539 39.7344 65.425 40.3984C65.8156 41.043 66.3234 41.6777 66.9484 42.3027ZM181.805 12.3613C183.211 13.7285 184.286 15.291 185.028 17.0488C185.789 18.7871 186.17 20.6328 186.17 22.5859C186.17 24.6562 185.75 26.5996 184.911 28.416C184.09 30.2324 182.899 31.8438 181.336 33.25C179.637 34.7734 177.635 35.9258 175.33 36.707C173.026 37.4688 170.477 37.8496 167.684 37.8496C165.516 37.8496 163.534 37.6641 161.737 37.293C159.94 36.9023 158.309 36.375 156.844 35.7109C155.379 35.0469 154.071 34.2852 152.918 33.4258C151.766 32.5469 150.741 31.6289 149.842 30.6719V52H141.932V30.7012C141.034 31.6582 140.008 32.5762 138.856 33.4551C137.704 34.3145 136.395 35.0762 134.93 35.7402C133.465 36.4043 131.834 36.9316 130.037 37.3223C128.26 37.6934 126.287 37.8789 124.12 37.8789C121.307 37.8789 118.748 37.4883 116.444 36.707C114.139 35.9258 112.137 34.7832 110.438 33.2793C108.875 31.873 107.674 30.2617 106.834 28.4453C106.014 26.6094 105.604 24.6562 105.604 22.5859C105.604 20.6328 105.975 18.7871 106.717 17.0488C107.479 15.291 108.563 13.7383 109.969 12.3906C111.493 10.9258 113.27 9.82227 115.301 9.08008C117.352 8.31836 119.598 7.9375 122.039 7.9375C125.907 7.9375 129.393 8.72852 132.498 10.3105C135.604 11.873 138.25 14.1973 140.438 17.2832L134.93 21.209C133.368 19.0215 131.522 17.3906 129.393 16.3164C127.284 15.2422 124.832 14.7051 122.039 14.7051C120.379 14.7051 118.944 14.9395 117.733 15.4082C116.522 15.877 115.516 16.4824 114.715 17.2246C113.934 17.9668 113.348 18.8164 112.957 19.7734C112.586 20.7109 112.401 21.6484 112.401 22.5859C112.401 23.6602 112.616 24.6855 113.045 25.6621C113.495 26.6387 114.139 27.498 114.979 28.2402C116.034 29.1777 117.332 29.8906 118.875 30.3789C120.418 30.8672 122.166 31.1113 124.12 31.1113C131.092 31.1113 136.131 28.3965 139.237 22.9668C139.705 22.1465 140.096 21.3359 140.409 20.5352C140.741 19.7344 141.004 18.9824 141.2 18.2793C141.414 17.5566 141.58 16.9023 141.698 16.3164C141.815 15.7305 141.893 15.2617 141.932 14.9102V9.02148H149.842V14.8809C149.901 15.252 149.979 15.7305 150.077 16.3164C150.194 16.8828 150.35 17.5273 150.545 18.25C150.76 18.9531 151.024 19.7051 151.336 20.5059C151.668 21.3066 152.069 22.1172 152.537 22.9375C155.623 28.3672 160.672 31.082 167.684 31.082C169.637 31.082 171.375 30.8379 172.899 30.3496C174.442 29.8613 175.741 29.1484 176.795 28.2109C177.635 27.4688 178.28 26.6191 178.729 25.6621C179.178 24.6855 179.403 23.6602 179.403 22.5859C179.403 21.6289 179.207 20.6816 178.817 19.7441C178.426 18.8066 177.83 17.9668 177.03 17.2246C176.248 16.4629 175.252 15.8574 174.041 15.4082C172.83 14.9395 171.395 14.7051 169.735 14.7051C166.942 14.7051 164.481 15.2422 162.352 16.3164C160.243 17.3711 158.407 19.002 156.844 21.209L151.336 17.2832C153.524 14.1973 156.17 11.873 159.276 10.3105C162.381 8.72852 165.868 7.9375 169.735 7.9375C172.176 7.9375 174.412 8.30859 176.444 9.05078C178.495 9.79297 180.282 10.8965 181.805 12.3613ZM197.961 16.082V26.9512H207.746V34.0117H197.961V44.8809H209.826V51.9707H190.49V9.02148L209.826 8.99219V16.082H197.961ZM224.018 9.05078C229.761 9.08984 235.141 9.37305 240.161 9.90039C245.18 10.4277 249.78 11.1602 253.96 12.0977C258.139 13.0352 261.86 14.1582 265.122 15.4668C268.403 16.7754 271.177 18.2207 273.442 19.8027C275.708 21.3848 277.436 23.084 278.628 24.9004C279.819 26.6973 280.415 28.5723 280.415 30.5254C280.415 32.4785 279.819 34.3633 278.628 36.1797C277.436 37.9961 275.708 39.6953 273.442 41.2773C271.177 42.8594 268.403 44.3047 265.122 45.6133C261.86 46.9023 258.139 48.0156 253.96 48.9531C249.78 49.8906 245.18 50.623 240.161 51.1504C235.141 51.6777 229.761 51.9609 224.018 52H216.167V9.05078H224.018ZM224.018 45.3203C227.964 45.2812 231.85 45.1152 235.679 44.8223C239.526 44.5293 243.188 44.1094 246.665 43.5625C250.141 42.9961 253.354 42.3027 256.304 41.4824C259.272 40.6621 261.831 39.7148 263.979 38.6406C266.147 37.5469 267.837 36.3262 269.048 34.9785C270.278 33.6309 270.893 32.1465 270.893 30.5254C270.893 28.9043 270.278 27.4199 269.048 26.0723C267.837 24.7246 266.147 23.5137 263.979 22.4395C261.831 21.3457 259.272 20.3887 256.304 19.5684C253.354 18.748 250.141 18.0645 246.665 17.5176C243.188 16.9512 239.526 16.5215 235.679 16.2285C231.831 15.916 227.944 15.75 224.018 15.7305V45.3203ZM323.787 33.25C322.107 34.7734 320.105 35.9258 317.781 36.707C315.477 37.4688 312.928 37.8496 310.135 37.8496C307.967 37.8496 305.984 37.6641 304.188 37.293C302.391 36.9023 300.76 36.375 299.295 35.7109C297.83 35.0469 296.521 34.2852 295.369 33.4258C294.217 32.5469 293.191 31.6289 292.293 30.6719V52H284.295V9.02148H292.293V14.8516C292.352 15.2031 292.43 15.6719 292.527 16.2578C292.645 16.8438 292.801 17.498 292.996 18.2207C293.211 18.9238 293.475 19.6855 293.787 20.5059C294.119 21.3066 294.52 22.1172 294.988 22.9375C298.094 28.3672 303.143 31.082 310.135 31.082C312.088 31.082 313.836 30.8379 315.379 30.3496C316.922 29.8613 318.221 29.1484 319.275 28.2109C320.115 27.4688 320.75 26.6191 321.18 25.6621C321.629 24.6855 321.854 23.6602 321.854 22.5859C321.854 21.6289 321.658 20.6816 321.268 19.7441C320.896 18.8066 320.311 17.9668 319.51 17.2246C318.729 16.4629 317.723 15.8574 316.492 15.4082C315.281 14.9395 313.846 14.7051 312.186 14.7051C309.393 14.7051 306.941 15.2422 304.832 16.3164C302.723 17.3711 300.887 19.002 299.324 21.209L293.787 17.2832C295.975 14.1973 298.621 11.873 301.727 10.3105C304.832 8.72852 308.318 7.9375 312.186 7.9375C314.627 7.9375 316.863 8.30859 318.895 9.05078C320.945 9.79297 322.732 10.8965 324.256 12.3613C325.662 13.7285 326.736 15.291 327.479 17.0488C328.24 18.7871 328.621 20.6328 328.621 22.5859C328.621 24.6562 328.211 26.5996 327.391 28.416C326.57 30.2324 325.369 31.8438 323.787 33.25ZM375.655 34.4512C375.636 34.8418 375.626 35.2422 375.626 35.6523C375.626 36.4141 375.665 37.293 375.743 38.2891C375.841 39.2852 376.017 40.3203 376.271 41.3945C376.525 42.4492 376.837 43.3672 377.208 44.1484C377.579 44.9102 377.999 45.418 378.468 45.6719L374.689 52.7324C373.927 52.3809 373.243 51.9316 372.638 51.3848C372.052 50.8184 371.525 50.1836 371.056 49.4805C370.587 48.7773 370.177 48.0254 369.825 47.2246C369.493 46.4238 369.2 45.6035 368.946 44.7637C367.833 45.9551 366.593 47.0488 365.226 48.0449C363.859 49.041 362.374 49.9102 360.773 50.6523C359.191 51.375 357.501 51.9414 355.704 52.3516C353.927 52.7812 352.062 53.0254 350.109 53.084C349.855 53.084 349.611 53.084 349.376 53.084C347.736 53.084 346.114 52.8984 344.513 52.5273C342.911 52.1758 341.388 51.6484 339.943 50.9453C338.517 50.2227 337.228 49.3828 336.075 48.4258C334.943 47.4492 333.976 46.4043 333.175 45.291C332.374 44.1777 331.759 43.0254 331.329 41.834C330.919 40.623 330.714 39.4414 330.714 38.2891C330.714 36.375 331.027 34.7539 331.652 33.4258C332.296 32.0781 333.116 30.9551 334.112 30.0566C335.128 29.1387 336.261 28.4062 337.511 27.8594C338.78 27.3125 340.04 26.8926 341.29 26.5996C342.56 26.3066 343.751 26.1016 344.864 25.9844C345.997 25.8672 346.935 25.7793 347.677 25.7207L348.087 25.6914C349.279 25.5938 350.646 25.5156 352.189 25.457C353.751 25.3789 355.392 25.3301 357.111 25.3105C358.829 25.2715 360.577 25.252 362.355 25.252C364.152 25.252 365.88 25.2617 367.54 25.2812C367.54 24.168 367.159 23.0156 366.398 21.8242C365.636 20.6133 364.591 19.5098 363.263 18.5137C361.935 17.498 360.353 16.668 358.517 16.0234C356.7 15.3594 354.737 15.0273 352.628 15.0273C351.456 15.0273 350.245 15.1445 348.995 15.3789C347.765 15.6133 346.505 15.9941 345.216 16.5215C343.946 17.0488 342.657 17.7324 341.349 18.5723C340.04 19.3926 338.741 20.3984 337.452 21.5898L332.296 16.9316C333.702 15.3496 335.245 13.9922 336.925 12.8594C338.624 11.7266 340.362 10.7988 342.14 10.0762C343.937 9.35352 345.724 8.82617 347.501 8.49414C349.298 8.14258 351.007 7.9668 352.628 7.9668C355.519 7.9668 358.097 8.26953 360.362 8.875C362.628 9.48047 364.611 10.2812 366.31 11.2773C368.029 12.2539 369.474 13.3672 370.646 14.6172C371.837 15.8672 372.804 17.1367 373.546 18.4258C374.288 19.7148 374.825 20.9648 375.157 22.1758C375.489 23.3867 375.655 24.4512 375.655 25.3691C375.655 25.3887 375.636 25.3984 375.597 25.3984C375.577 25.3984 375.568 25.4082 375.568 25.4277H375.655V34.4512ZM340.441 42.3027C341.866 43.5918 343.439 44.5391 345.157 45.1445C346.876 45.75 348.654 46.0527 350.489 46.0527C352.482 46.0527 354.454 45.7207 356.407 45.0566C358.361 44.3926 360.148 43.4551 361.769 42.2441C363.409 41.0137 364.806 39.5488 365.958 37.8496C367.111 36.1309 367.872 34.2168 368.243 32.1074C366.583 32.0879 364.845 32.0781 363.029 32.0781C361.232 32.0781 359.464 32.0977 357.726 32.1367C355.987 32.1562 354.337 32.1953 352.775 32.2539C351.212 32.3125 349.845 32.3906 348.673 32.4883L348.234 32.5176C346.261 32.6934 344.64 32.918 343.37 33.1914C342.101 33.4648 341.095 33.8262 340.353 34.2754C339.611 34.7246 339.093 35.2812 338.8 35.9453C338.507 36.5898 338.361 37.3711 338.361 38.2891C338.361 39.0312 338.546 39.7344 338.917 40.3984C339.308 41.043 339.816 41.6777 340.441 42.3027ZM409.168 9.05078C414.91 9.08984 420.291 9.37305 425.31 9.90039C430.33 10.4277 434.929 11.1602 439.109 12.0977C443.289 13.0352 447.009 14.1582 450.271 15.4668C453.552 16.7754 456.326 18.2207 458.591 19.8027C460.857 21.3848 462.586 23.084 463.777 24.9004C464.968 26.6973 465.564 28.5723 465.564 30.5254C465.564 32.4785 464.968 34.3633 463.777 36.1797C462.586 37.9961 460.857 39.6953 458.591 41.2773C456.326 42.8594 453.552 44.3047 450.271 45.6133C447.009 46.9023 443.289 48.0156 439.109 48.9531C434.929 49.8906 430.33 50.623 425.31 51.1504C420.291 51.6777 414.91 51.9609 409.168 52H401.316V9.05078H409.168ZM409.168 45.3203C413.113 45.2812 417 45.1152 420.828 44.8223C424.675 44.5293 428.337 44.1094 431.814 43.5625C435.291 42.9961 438.504 42.3027 441.453 41.4824C444.421 40.6621 446.98 39.7148 449.129 38.6406C451.296 37.5469 452.986 36.3262 454.197 34.9785C455.427 33.6309 456.043 32.1465 456.043 30.5254C456.043 28.9043 455.427 27.4199 454.197 26.0723C452.986 24.7246 451.296 23.5137 449.129 22.4395C446.98 21.3457 444.421 20.3887 441.453 19.5684C438.504 18.748 435.291 18.0645 431.814 17.5176C428.337 16.9512 424.675 16.5215 420.828 16.2285C416.98 15.916 413.093 15.75 409.168 15.7305V45.3203ZM497.628 9.05078V52H490.216V23.2598L477.208 52H469.737V9.05078H477.149V37.791L490.157 9.02148L497.628 9.05078ZM559.486 30.4961C560.189 30.9844 560.863 31.6875 561.508 32.6055C562.172 33.5039 562.67 34.4902 563.002 35.5645C563.334 36.6387 563.5 37.7227 563.5 38.8164C563.5 38.9922 563.48 39.4512 563.441 40.1934C563.422 40.9355 563.061 41.9512 562.357 43.2402C561.654 44.5293 560.561 45.7695 559.076 46.9609C557.611 48.1328 555.629 49.1777 553.129 50.0957C550.648 50.9941 547.602 51.707 543.988 52.2344C540.375 52.7812 536.078 53.0547 531.098 53.0547C527.895 53.0547 524.828 52.8789 521.898 52.5273C518.969 52.1758 516.234 51.7266 513.695 51.1797C511.176 50.6328 508.861 50.0469 506.752 49.4219C504.662 48.7773 502.855 48.1719 501.332 47.6055L504.145 41.3945C505.57 41.9023 507.25 42.4492 509.184 43.0352C511.117 43.6016 513.246 44.1289 515.57 44.6172C517.914 45.0859 520.404 45.4863 523.041 45.8184C525.697 46.1309 528.461 46.2871 531.332 46.2871C535.258 46.2871 538.617 46.1406 541.41 45.8477C544.223 45.5547 546.576 45.1738 548.471 44.7051C550.365 44.2168 551.85 43.6602 552.924 43.0352C554.018 42.3906 554.799 41.7266 555.268 41.043C555.756 40.3594 556 39.6855 556 39.0215C556 38.9824 555.99 38.7871 555.971 38.4355C555.971 38.0645 555.814 37.5762 555.502 36.9707C555.189 36.3457 554.779 35.7988 554.271 35.3301C553.764 34.8418 553.256 34.4707 552.748 34.2168C550.99 34.959 549.086 35.6035 547.035 36.1504C544.984 36.6777 542.865 37.1172 540.678 37.4688C538.51 37.8008 536.303 38.0547 534.057 38.2305C531.83 38.3867 529.633 38.4648 527.465 38.4648C525.141 38.4648 522.904 38.377 520.756 38.2012C518.627 38.0059 516.664 37.7324 514.867 37.3809C513.09 37.0293 511.537 36.5996 510.209 36.0918C508.881 35.584 507.865 35.0078 507.162 34.3633C506.654 33.8945 506.215 33.3672 505.844 32.7812C505.492 32.1953 505.297 31.707 505.258 31.3164C505.219 30.9062 505.199 30.6328 505.199 30.4961C505.199 29.9492 505.326 29.3535 505.58 28.709C505.854 28.0449 506.381 27.3516 507.162 26.6289C507.865 25.9844 508.881 25.4082 510.209 24.9004C511.557 24.373 513.119 23.9336 514.896 23.582C516.693 23.2305 518.666 22.9668 520.814 22.791C522.963 22.5957 525.209 22.498 527.553 22.498C529.701 22.498 531.889 22.5859 534.115 22.7617C536.342 22.918 538.539 23.1719 540.707 23.5234C542.895 23.8555 545.004 24.2949 547.035 24.8418C549.086 25.3691 550.99 26.0039 552.748 26.7461C553.256 26.4922 553.764 26.1309 554.271 25.6621C554.779 25.1738 555.189 24.627 555.502 24.0215C555.814 23.3965 555.971 22.9082 555.971 22.5566C555.99 22.1855 556 21.9805 556 21.9414C556 21.2773 555.766 20.6035 555.297 19.9199C554.828 19.2363 554.047 18.582 552.953 17.957C551.859 17.3125 550.365 16.7559 548.471 16.2871C546.576 15.7988 544.223 15.4082 541.41 15.1152C538.617 14.8223 535.258 14.6758 531.332 14.6758C528.91 14.6758 526.557 14.793 524.271 15.0273C521.986 15.2617 519.809 15.5645 517.738 15.9355C515.688 16.3066 513.754 16.7266 511.938 17.1953C510.141 17.6641 508.5 18.1328 507.016 18.6016L510.707 10.4863C513.559 9.7832 516.703 9.1875 520.141 8.69922C523.578 8.19141 527.23 7.9375 531.098 7.9375C535.688 7.9375 539.701 8.19141 543.139 8.69922C546.596 9.20703 549.564 9.89063 552.045 10.75C554.525 11.6094 556.557 12.6055 558.139 13.7383C559.721 14.8711 560.932 16.0723 561.771 17.3418C562.631 18.5918 563.129 19.6758 563.266 20.5938C563.422 21.5117 563.5 22.2344 563.5 22.7617C563.5 23.4844 563.393 24.3047 563.178 25.2227C562.963 26.1406 562.514 27.0977 561.83 28.0938C561.166 29.0703 560.385 29.8711 559.486 30.4961ZM521.664 32.1953C522.465 32.2344 523.256 32.2637 524.037 32.2832C524.838 32.2832 525.404 32.2832 525.736 32.2832C526.732 32.2832 527.895 32.2734 529.223 32.2539C530.57 32.2148 532.094 32.1562 533.793 32.0781C535.492 32 537.172 31.8926 538.832 31.7559C540.492 31.5996 542.094 31.4238 543.637 31.2285C545.18 31.0137 546.557 30.7695 547.768 30.4961C546.4 30.1836 544.828 29.9102 543.051 29.6758C541.293 29.4414 539.447 29.2559 537.514 29.1191C535.6 28.9629 533.676 28.8555 531.742 28.7969C529.828 28.7188 528.031 28.6797 526.352 28.6797C525.219 28.6797 524.125 28.6992 523.07 28.7383C522.035 28.7578 521 28.8262 519.965 28.9434C518.949 29.0605 517.924 29.2266 516.889 29.4414C515.873 29.6562 514.809 29.9492 513.695 30.3203C513.598 30.3594 513.549 30.418 513.549 30.4961C513.549 30.5742 513.598 30.6328 513.695 30.6719C514.398 30.9258 515.385 31.2188 516.654 31.5508C517.924 31.8633 519.594 32.0781 521.664 32.1953ZM612.527 34.4512C612.507 34.8418 612.497 35.2422 612.497 35.6523C612.497 36.4141 612.536 37.293 612.614 38.2891C612.712 39.2852 612.888 40.3203 613.142 41.3945C613.396 42.4492 613.708 43.3672 614.079 44.1484C614.45 44.9102 614.87 45.418 615.339 45.6719L611.56 52.7324C610.798 52.3809 610.114 51.9316 609.509 51.3848C608.923 50.8184 608.396 50.1836 607.927 49.4805C607.458 48.7773 607.048 48.0254 606.696 47.2246C606.364 46.4238 606.071 45.6035 605.818 44.7637C604.704 45.9551 603.464 47.0488 602.097 48.0449C600.73 49.041 599.245 49.9102 597.644 50.6523C596.062 51.375 594.372 51.9414 592.575 52.3516C590.798 52.7812 588.933 53.0254 586.98 53.084C586.726 53.084 586.482 53.084 586.247 53.084C584.607 53.084 582.986 52.8984 581.384 52.5273C579.782 52.1758 578.259 51.6484 576.814 50.9453C575.388 50.2227 574.099 49.3828 572.946 48.4258C571.814 47.4492 570.847 46.4043 570.046 45.291C569.245 44.1777 568.63 43.0254 568.2 41.834C567.79 40.623 567.585 39.4414 567.585 38.2891C567.585 36.375 567.898 34.7539 568.523 33.4258C569.167 32.0781 569.987 30.9551 570.984 30.0566C571.999 29.1387 573.132 28.4062 574.382 27.8594C575.652 27.3125 576.911 26.8926 578.161 26.5996C579.431 26.3066 580.622 26.1016 581.736 25.9844C582.868 25.8672 583.806 25.7793 584.548 25.7207L584.958 25.6914C586.15 25.5938 587.517 25.5156 589.06 25.457C590.622 25.3789 592.263 25.3301 593.982 25.3105C595.7 25.2715 597.448 25.252 599.226 25.252C601.023 25.252 602.751 25.2617 604.411 25.2812C604.411 24.168 604.03 23.0156 603.269 21.8242C602.507 20.6133 601.462 19.5098 600.134 18.5137C598.806 17.498 597.224 16.668 595.388 16.0234C593.571 15.3594 591.609 15.0273 589.499 15.0273C588.327 15.0273 587.116 15.1445 585.866 15.3789C584.636 15.6133 583.376 15.9941 582.087 16.5215C580.818 17.0488 579.529 17.7324 578.22 18.5723C576.911 19.3926 575.612 20.3984 574.323 21.5898L569.167 16.9316C570.573 15.3496 572.116 13.9922 573.796 12.8594C575.495 11.7266 577.234 10.7988 579.011 10.0762C580.808 9.35352 582.595 8.82617 584.372 8.49414C586.169 8.14258 587.878 7.9668 589.499 7.9668C592.39 7.9668 594.968 8.26953 597.234 8.875C599.499 9.48047 601.482 10.2812 603.181 11.2773C604.9 12.2539 606.345 13.3672 607.517 14.6172C608.708 15.8672 609.675 17.1367 610.417 18.4258C611.159 19.7148 611.696 20.9648 612.029 22.1758C612.361 23.3867 612.527 24.4512 612.527 25.3691C612.527 25.3887 612.507 25.3984 612.468 25.3984C612.448 25.3984 612.439 25.4082 612.439 25.4277H612.527V34.4512ZM577.312 42.3027C578.737 43.5918 580.31 44.5391 582.029 45.1445C583.747 45.75 585.525 46.0527 587.361 46.0527C589.353 46.0527 591.325 45.7207 593.279 45.0566C595.232 44.3926 597.019 43.4551 598.64 42.2441C600.28 41.0137 601.677 39.5488 602.829 37.8496C603.982 36.1309 604.743 34.2168 605.114 32.1074C603.454 32.0879 601.716 32.0781 599.9 32.0781C598.103 32.0781 596.335 32.0977 594.597 32.1367C592.859 32.1562 591.208 32.1953 589.646 32.2539C588.083 32.3125 586.716 32.3906 585.544 32.4883L585.105 32.5176C583.132 32.6934 581.511 32.918 580.241 33.1914C578.972 33.4648 577.966 33.8262 577.224 34.2754C576.482 34.7246 575.964 35.2812 575.671 35.9453C575.378 36.5898 575.232 37.3711 575.232 38.2891C575.232 39.0312 575.417 39.7344 575.788 40.3984C576.179 41.043 576.687 41.6777 577.312 42.3027ZM640.371 6.35547H627.979L630.762 0.203125H640.371V6.35547ZM648.135 9.05078V52H640.694V23.2598L627.686 52H620.215V9.05078H627.657V37.791L640.664 9.02148L648.135 9.05078ZM681.166 9.05078V52H673.109V33.8652H664.056V52H656V9.05078H664.056V27.0977H673.109V9.05078H681.166ZM731.481 34.4512C731.462 34.8418 731.452 35.2422 731.452 35.6523C731.452 36.4141 731.491 37.293 731.569 38.2891C731.667 39.2852 731.843 40.3203 732.096 41.3945C732.35 42.4492 732.663 43.3672 733.034 44.1484C733.405 44.9102 733.825 45.418 734.294 45.6719L730.514 52.7324C729.753 52.3809 729.069 51.9316 728.464 51.3848C727.878 50.8184 727.35 50.1836 726.882 49.4805C726.413 48.7773 726.003 48.0254 725.651 47.2246C725.319 46.4238 725.026 45.6035 724.772 44.7637C723.659 45.9551 722.419 47.0488 721.052 48.0449C719.684 49.041 718.2 49.9102 716.598 50.6523C715.016 51.375 713.327 51.9414 711.53 52.3516C709.753 52.7812 707.888 53.0254 705.934 53.084C705.68 53.084 705.436 53.084 705.202 53.084C703.561 53.084 701.94 52.8984 700.339 52.5273C698.737 52.1758 697.214 51.6484 695.768 50.9453C694.343 50.2227 693.054 49.3828 691.901 48.4258C690.768 47.4492 689.802 46.4043 689.001 45.291C688.2 44.1777 687.585 43.0254 687.155 41.834C686.745 40.623 686.54 39.4414 686.54 38.2891C686.54 36.375 686.852 34.7539 687.477 33.4258C688.122 32.0781 688.942 30.9551 689.938 30.0566C690.954 29.1387 692.087 28.4062 693.337 27.8594C694.606 27.3125 695.866 26.8926 697.116 26.5996C698.386 26.3066 699.577 26.1016 700.69 25.9844C701.823 25.8672 702.761 25.7793 703.503 25.7207L703.913 25.6914C705.104 25.5938 706.471 25.5156 708.014 25.457C709.577 25.3789 711.218 25.3301 712.936 25.3105C714.655 25.2715 716.403 25.252 718.18 25.252C719.977 25.252 721.706 25.2617 723.366 25.2812C723.366 24.168 722.985 23.0156 722.223 21.8242C721.462 20.6133 720.417 19.5098 719.089 18.5137C717.761 17.498 716.179 16.668 714.343 16.0234C712.526 15.3594 710.563 15.0273 708.454 15.0273C707.282 15.0273 706.071 15.1445 704.821 15.3789C703.591 15.6133 702.331 15.9941 701.042 16.5215C699.772 17.0488 698.483 17.7324 697.175 18.5723C695.866 19.3926 694.567 20.3984 693.278 21.5898L688.122 16.9316C689.528 15.3496 691.071 13.9922 692.751 12.8594C694.45 11.7266 696.188 10.7988 697.966 10.0762C699.763 9.35352 701.55 8.82617 703.327 8.49414C705.124 8.14258 706.833 7.9668 708.454 7.9668C711.345 7.9668 713.923 8.26953 716.188 8.875C718.454 9.48047 720.436 10.2812 722.136 11.2773C723.854 12.2539 725.3 13.3672 726.471 14.6172C727.663 15.8672 728.63 17.1367 729.372 18.4258C730.114 19.7148 730.651 20.9648 730.983 22.1758C731.315 23.3867 731.481 24.4512 731.481 25.3691C731.481 25.3887 731.462 25.3984 731.423 25.3984C731.403 25.3984 731.393 25.4082 731.393 25.4277H731.481V34.4512ZM696.266 42.3027C697.692 43.5918 699.264 44.5391 700.983 45.1445C702.702 45.75 704.479 46.0527 706.315 46.0527C708.307 46.0527 710.28 45.7207 712.233 45.0566C714.186 44.3926 715.973 43.4551 717.595 42.2441C719.235 41.0137 720.632 39.5488 721.784 37.8496C722.936 36.1309 723.698 34.2168 724.069 32.1074C722.409 32.0879 720.671 32.0781 718.854 32.0781C717.057 32.0781 715.29 32.0977 713.552 32.1367C711.813 32.1562 710.163 32.1953 708.6 32.2539C707.038 32.3125 705.671 32.3906 704.499 32.4883L704.059 32.5176C702.087 32.6934 700.466 32.918 699.196 33.1914C697.927 33.4648 696.921 33.8262 696.179 34.2754C695.436 34.7246 694.919 35.2812 694.626 35.9453C694.333 36.5898 694.186 37.3711 694.186 38.2891C694.186 39.0312 694.372 39.7344 694.743 40.3984C695.134 41.043 695.641 41.6777 696.266 42.3027ZM740.312 43.7676H748.545V49.6562C748.545 52.0391 748.34 53.9141 747.93 55.2812C747.52 56.668 746.738 57.9082 745.586 59.002C744.453 60.0957 743.008 60.9551 741.25 61.5801L739.639 58.1816C741.299 57.6348 742.48 56.8828 743.184 55.9258C743.887 54.9688 744.258 53.6602 744.297 52H740.312V43.7676ZM39.5137 83.25C37.834 84.7734 35.832 85.9258 33.5078 86.707C31.2031 87.4688 28.6543 87.8496 25.8613 87.8496C23.6934 87.8496 21.7109 87.6641 19.9141 87.293C18.1172 86.9023 16.4863 86.375 15.0215 85.7109C13.5566 85.0469 12.248 84.2852 11.0957 83.4258C9.94336 82.5469 8.91797 81.6289 8.01953 80.6719V102H0.0214844V59.0215H8.01953V64.8516C8.07812 65.2031 8.15625 65.6719 8.25391 66.2578C8.37109 66.8438 8.52734 67.498 8.72266 68.2207C8.9375 68.9238 9.20117 69.6855 9.51367 70.5059C9.8457 71.3066 10.2461 72.1172 10.7148 72.9375C13.8203 78.3672 18.8691 81.082 25.8613 81.082C27.8145 81.082 29.5625 80.8379 31.1055 80.3496C32.6484 79.8613 33.9473 79.1484 35.002 78.2109C35.8418 77.4688 36.4766 76.6191 36.9062 75.6621C37.3555 74.6855 37.5801 73.6602 37.5801 72.5859C37.5801 71.6289 37.3848 70.6816 36.9941 69.7441C36.623 68.8066 36.0371 67.9668 35.2363 67.2246C34.4551 66.4629 33.4492 65.8574 32.2188 65.4082C31.0078 64.9395 29.5723 64.7051 27.9121 64.7051C25.1191 64.7051 22.668 65.2422 20.5586 66.3164C18.4492 67.3711 16.6133 69.002 15.0508 71.209L9.51367 67.2832C11.7012 64.1973 14.3477 61.873 17.4531 60.3105C20.5586 58.7285 24.0449 57.9375 27.9121 57.9375C30.3535 57.9375 32.5898 58.3086 34.6211 59.0508C36.6719 59.793 38.459 60.8965 39.9824 62.3613C41.3887 63.7285 42.4629 65.291 43.2051 67.0488C43.9668 68.7871 44.3477 70.6328 44.3477 72.5859C44.3477 74.6562 43.9375 76.5996 43.1172 78.416C42.2969 80.2324 41.0957 81.8438 39.5137 83.25ZM76.7043 59.0508V102H69.2922V73.2598L56.2844 102H48.8137V59.0508H56.2258V87.791L69.2336 59.0215L76.7043 59.0508ZM111.727 102.117C108.993 102.117 106.346 101.932 103.787 101.561C101.229 101.189 98.8266 100.633 96.5805 99.8906C94.3344 99.1289 92.2836 98.1719 90.4281 97.0195C88.5727 95.8672 86.9711 94.5 85.6234 92.918C84.2953 91.3164 83.2602 89.4902 82.518 87.4395C81.7758 85.3887 81.4047 83.1035 81.4047 80.584C81.4047 78.1816 81.7758 75.9844 82.518 73.9922C83.2602 72 84.2953 70.2031 85.6234 68.6016C86.9711 67 88.5727 65.6035 90.4281 64.4121C92.2836 63.2012 94.3344 62.1953 96.5805 61.3945C98.8266 60.5938 101.229 59.998 103.787 59.6074C106.346 59.1973 108.993 58.9922 111.727 58.9922L111.698 66.1992C108.045 66.2188 104.813 66.6484 102 67.4883C99.2074 68.3086 96.8637 69.3926 94.9691 70.7402C93.0746 72.0684 91.6293 73.5918 90.6332 75.3105C89.6566 77.0098 89.1488 78.7578 89.1098 80.5547C89.1098 80.6328 89.1098 80.7109 89.1098 80.7891C89.1098 82.5078 89.559 84.207 90.4574 85.8867C91.3559 87.5664 92.7426 89.0801 94.6176 90.4277C96.5121 91.7754 98.8754 92.8691 101.707 93.709C104.559 94.5488 107.889 94.9785 111.698 94.998L111.727 102.117ZM140.07 85.418C140.07 88.9531 139.836 91.8828 139.367 94.207C138.898 96.5312 138.205 98.3867 137.287 99.7734C136.388 101.141 135.255 102.107 133.888 102.674C132.541 103.24 130.978 103.523 129.201 103.523C127.599 103.523 126.183 103.289 124.953 102.82C123.742 102.352 122.697 101.736 121.818 100.975C120.939 100.213 120.207 99.3633 119.621 98.4258C119.035 97.4883 118.566 96.5508 118.214 95.6133C117.863 94.6758 117.619 93.7871 117.482 92.9473C117.345 92.1074 117.277 91.4141 117.277 90.8672H124.25C124.25 93.0547 124.679 94.7148 125.539 95.8477C126.418 96.9609 127.541 97.5176 128.908 97.5176C129.689 97.5176 130.324 97.2734 130.812 96.7852C131.3 96.2773 131.681 95.5547 131.955 94.6172C132.248 93.6797 132.443 92.5566 132.541 91.248C132.638 89.9199 132.687 88.4355 132.687 86.7949V86.7363C132.023 86.834 131.388 86.9121 130.783 86.9707C130.197 87.0293 129.63 87.0586 129.084 87.0586C126.779 87.0586 124.855 86.6582 123.312 85.8574C121.769 85.0566 120.529 84.002 119.591 82.6934C118.654 81.3652 117.961 79.8711 117.511 78.2109C117.082 76.5312 116.818 74.8125 116.72 73.0547C116.681 72.3906 116.662 71.7168 116.662 71.0332C116.662 67.4395 117.179 63.4453 118.214 59.0508H125.744C124.787 63.1719 124.279 66.8438 124.22 70.0664C124.22 70.2031 124.22 70.3496 124.22 70.5059C124.22 71.7168 124.298 72.957 124.455 74.2266C124.611 75.4766 124.923 76.6191 125.392 77.6543C125.88 78.6699 126.545 79.5 127.384 80.1445C128.244 80.7695 129.338 81.082 130.666 81.082C131.232 81.082 131.906 81.0039 132.687 80.8477V59.0508H140.07V85.418ZM172.427 59.0508V102H164.37V83.8652H155.317V102H147.261V59.0508H155.317V77.0977H164.37V59.0508H172.427ZM200.008 76.1602C201.688 76.2969 203.182 76.7754 204.49 77.5957C205.818 78.3965 206.98 79.4219 207.977 80.6719C208.992 81.9023 209.871 83.2891 210.613 84.832C211.355 86.3555 211.98 87.9082 212.488 89.4902C213.699 93.2012 214.51 97.3711 214.92 102H207.039C206.727 98.3477 206.17 95.0859 205.369 92.2148C205.037 91.0039 204.627 89.8125 204.139 88.6406C203.67 87.4688 203.104 86.4238 202.439 85.5059C201.775 84.5879 201.014 83.8555 200.154 83.3086C199.314 82.7422 198.357 82.459 197.283 82.459C196.072 82.459 194.998 82.7422 194.061 83.3086C193.123 83.8555 192.312 84.5879 191.629 85.5059C190.945 86.4238 190.359 87.4688 189.871 88.6406C189.402 89.8125 189.012 91.0039 188.699 92.2148C187.957 95.0859 187.527 98.3477 187.41 102H180.057V59.0508H187.908V81.668C187.928 81.6289 187.957 81.5703 187.996 81.4922C188.035 81.4141 188.094 81.3262 188.172 81.2285L202.732 59.0508H211.521L200.008 76.1602ZM261.808 84.4512C261.788 84.8418 261.779 85.2422 261.779 85.6523C261.779 86.4141 261.818 87.293 261.896 88.2891C261.993 89.2852 262.169 90.3203 262.423 91.3945C262.677 92.4492 262.989 93.3672 263.361 94.1484C263.732 94.9102 264.152 95.418 264.62 95.6719L260.841 102.732C260.079 102.381 259.396 101.932 258.79 101.385C258.204 100.818 257.677 100.184 257.208 99.4805C256.739 98.7773 256.329 98.0254 255.978 97.2246C255.646 96.4238 255.353 95.6035 255.099 94.7637C253.986 95.9551 252.745 97.0488 251.378 98.0449C250.011 99.041 248.527 99.9102 246.925 100.652C245.343 101.375 243.654 101.941 241.857 102.352C240.079 102.781 238.214 103.025 236.261 103.084C236.007 103.084 235.763 103.084 235.529 103.084C233.888 103.084 232.267 102.898 230.665 102.527C229.064 102.176 227.54 101.648 226.095 100.945C224.669 100.223 223.38 99.3828 222.228 98.4258C221.095 97.4492 220.128 96.4043 219.327 95.291C218.527 94.1777 217.911 93.0254 217.482 91.834C217.071 90.623 216.866 89.4414 216.866 88.2891C216.866 86.375 217.179 84.7539 217.804 83.4258C218.448 82.0781 219.269 80.9551 220.265 80.0566C221.28 79.1387 222.413 78.4062 223.663 77.8594C224.933 77.3125 226.193 76.8926 227.443 76.5996C228.712 76.3066 229.904 76.1016 231.017 75.9844C232.15 75.8672 233.087 75.7793 233.829 75.7207L234.239 75.6914C235.431 75.5938 236.798 75.5156 238.341 75.457C239.904 75.3789 241.544 75.3301 243.263 75.3105C244.982 75.2715 246.73 75.252 248.507 75.252C250.304 75.252 252.032 75.2617 253.693 75.2812C253.693 74.168 253.312 73.0156 252.55 71.8242C251.788 70.6133 250.743 69.5098 249.415 68.5137C248.087 67.498 246.505 66.668 244.669 66.0234C242.853 65.3594 240.89 65.0273 238.78 65.0273C237.609 65.0273 236.398 65.1445 235.148 65.3789C233.917 65.6133 232.657 65.9941 231.368 66.5215C230.099 67.0488 228.81 67.7324 227.501 68.5723C226.193 69.3926 224.894 70.3984 223.605 71.5898L218.448 66.9316C219.855 65.3496 221.398 63.9922 223.077 62.8594C224.777 61.7266 226.515 60.7988 228.292 60.0762C230.089 59.3535 231.876 58.8262 233.654 58.4941C235.45 58.1426 237.159 57.9668 238.78 57.9668C241.671 57.9668 244.249 58.2695 246.515 58.875C248.78 59.4805 250.763 60.2812 252.462 61.2773C254.181 62.2539 255.626 63.3672 256.798 64.6172C257.989 65.8672 258.956 67.1367 259.698 68.4258C260.441 69.7148 260.978 70.9648 261.31 72.1758C261.642 73.3867 261.808 74.4512 261.808 75.3691C261.808 75.3887 261.788 75.3984 261.749 75.3984C261.73 75.3984 261.72 75.4082 261.72 75.4277H261.808V84.4512ZM226.593 92.3027C228.019 93.5918 229.591 94.5391 231.31 95.1445C233.029 95.75 234.806 96.0527 236.642 96.0527C238.634 96.0527 240.607 95.7207 242.56 95.0566C244.513 94.3926 246.3 93.4551 247.921 92.2441C249.562 91.0137 250.958 89.5488 252.111 87.8496C253.263 86.1309 254.025 84.2168 254.396 82.1074C252.736 82.0879 250.997 82.0781 249.181 82.0781C247.384 82.0781 245.616 82.0977 243.878 82.1367C242.14 82.1562 240.489 82.1953 238.927 82.2539C237.364 82.3125 235.997 82.3906 234.825 82.4883L234.386 82.5176C232.413 82.6934 230.792 82.918 229.523 83.1914C228.253 83.4648 227.247 83.8262 226.505 84.2754C225.763 84.7246 225.245 85.2812 224.952 85.9453C224.659 86.5898 224.513 87.3711 224.513 88.2891C224.513 89.0312 224.698 89.7344 225.07 90.3984C225.46 91.043 225.968 91.6777 226.593 92.3027ZM316.355 59.0508V102H308.943V73.2598L295.935 102H288.464V59.0508H295.877V87.791L308.884 59.0215L316.355 59.0508ZM364.164 80.5254L380.102 102H372.396L363.285 89.7246V102H356.811V89.7246L347.699 102H339.789L355.727 80.5254L339.789 59.0215H347.699L356.811 71.2969V59.0215H363.285V71.2969L372.396 59.0215H380.102L364.164 80.5254ZM411.872 59.0508V102H404.46V73.2598L391.452 102H383.982V59.0508H391.394V87.791L404.402 59.0215L411.872 59.0508ZM442.735 76.9805C444.043 77.918 445.03 79.0215 445.694 80.291C446.377 81.541 446.748 82.6055 446.807 83.4844C446.885 84.3438 446.924 84.9297 446.924 85.2422C446.924 86.3555 446.748 87.5664 446.397 88.875C446.065 90.1836 445.489 91.541 444.668 92.9473C443.848 94.3535 442.842 95.6816 441.651 96.9316C440.459 98.1816 439.112 99.2754 437.608 100.213C436.123 101.15 434.502 101.893 432.745 102.439C431.006 102.986 429.18 103.26 427.266 103.26C426.172 103.26 425.039 103.064 423.868 102.674C422.696 102.283 421.602 101.697 420.586 100.916C419.59 100.115 418.721 99.1094 417.979 97.8984C417.256 96.6875 416.797 95.4961 416.602 94.3242C416.426 93.1328 416.338 92.127 416.338 91.3066C416.338 90.291 416.465 88.9727 416.719 87.3516C416.973 85.7109 417.676 83.6211 418.829 81.082C419.297 80.0273 419.805 78.9043 420.352 77.7129C420.899 76.502 421.446 75.2715 421.993 74.0215C422.559 72.7715 423.125 71.5312 423.692 70.3008C424.258 69.0703 424.795 67.8887 425.303 66.7559C426.514 64.0996 427.725 61.4434 428.936 58.7871C429.58 58.6699 430.293 58.5625 431.075 58.4648C431.739 58.3672 432.51 58.2891 433.389 58.2305C434.268 58.1719 435.205 58.1426 436.202 58.1426C437.217 58.1426 438.252 58.1914 439.307 58.2891C440.381 58.3867 441.426 58.5625 442.442 58.8164C443.477 59.0703 444.444 59.4121 445.342 59.8418C446.26 60.2715 447.051 60.8281 447.715 61.5117C448.399 62.1758 448.936 62.9863 449.327 63.9434C449.737 64.8809 449.942 65.9844 449.942 67.2539C449.942 68.1719 449.737 69.0801 449.327 69.9785C448.936 70.8574 448.399 71.707 447.715 72.5273C447.051 73.3477 446.289 74.1387 445.43 74.9004C444.571 75.6426 443.672 76.3359 442.735 76.9805ZM427.998 96.5508C429.053 96.5508 430.088 96.3359 431.104 95.9062C432.139 95.4766 433.106 94.9102 434.004 94.207C434.903 93.4844 435.713 92.6738 436.436 91.7754C437.159 90.8574 437.754 89.9297 438.223 88.9922C438.711 88.0547 439.014 87.2539 439.131 86.5898C439.268 85.9258 439.336 85.4082 439.336 85.0371C439.336 84.5879 439.258 84.0898 439.102 83.543C438.946 82.9961 438.555 82.5078 437.93 82.0781C437.325 81.6484 436.455 81.4336 435.323 81.4336C434.19 81.4336 432.774 81.6973 431.075 82.2246L428.995 77.4492C431.534 76.1406 433.809 74.8613 435.821 73.6113C436.68 73.084 437.51 72.5371 438.311 71.9707C439.131 71.3848 439.854 70.8086 440.479 70.2422C441.123 69.6758 441.641 69.1289 442.032 68.6016C442.422 68.0742 442.618 67.5957 442.618 67.166C442.618 66.6387 442.403 66.209 441.973 65.877C441.563 65.5254 441.036 65.2422 440.391 65.0273C439.766 64.8125 439.073 64.666 438.311 64.5879C437.549 64.4902 436.817 64.4414 436.114 64.4414C435.743 64.4414 435.401 64.4512 435.088 64.4707C434.776 64.4902 434.483 64.5195 434.209 64.5586L428.291 77.2441C426.866 80.2129 425.733 82.8887 424.893 85.2715C424.073 87.6543 423.633 89.3145 423.575 90.252C423.536 91.1699 423.516 91.7168 423.516 91.8926C423.516 93.2988 423.848 94.4316 424.512 95.291C425.196 96.1309 426.358 96.5508 427.998 96.5508ZM471.605 58.8164C473.187 58.8164 474.769 59.0312 476.351 59.4609C477.933 59.8906 479.447 60.5254 480.892 61.3652C482.357 62.2051 483.714 63.25 484.964 64.5C486.214 65.7305 487.298 67.1465 488.216 68.748C489.134 70.3496 489.857 72.1465 490.384 74.1387C490.912 76.1113 491.175 78.25 491.175 80.5547C491.175 82.8984 490.912 85.0664 490.384 87.0586C489.857 89.0508 489.134 90.8477 488.216 92.4492C487.298 94.0508 486.214 95.4668 484.964 96.6973C483.714 97.9277 482.357 98.9531 480.892 99.7734C479.447 100.594 477.933 101.219 476.351 101.648C474.769 102.059 473.187 102.264 471.605 102.264C470.023 102.264 468.431 102.059 466.83 101.648C465.248 101.219 463.724 100.594 462.259 99.7734C460.814 98.9531 459.466 97.9277 458.216 96.6973C456.966 95.4668 455.882 94.0508 454.964 92.4492C454.046 90.8477 453.324 89.0508 452.796 87.0586C452.269 85.0664 452.005 82.8984 452.005 80.5547C452.005 78.2305 452.269 76.082 452.796 74.1094C453.324 72.1367 454.046 70.3496 454.964 68.748C455.882 67.1465 456.966 65.7305 458.216 64.5C459.466 63.25 460.814 62.2051 462.259 61.3652C463.724 60.5254 465.248 59.8906 466.83 59.4609C468.431 59.0312 470.023 58.8164 471.605 58.8164ZM471.605 96.2285C473.148 96.209 474.613 95.8672 476 95.2031C477.386 94.5195 478.597 93.5234 479.632 92.2148C480.687 90.8867 481.517 89.2559 482.123 87.3223C482.748 85.3691 483.06 83.1133 483.06 80.5547C483.06 77.9766 482.748 75.7207 482.123 73.7871C481.517 71.834 480.687 70.2031 479.632 68.8945C478.597 67.5859 477.386 66.5996 476 65.9355C474.613 65.252 473.148 64.9004 471.605 64.8809C470.062 64.9004 468.587 65.252 467.181 65.9355C465.795 66.5996 464.574 67.5859 463.519 68.8945C462.464 70.2031 461.625 71.834 461 73.7871C460.375 75.7207 460.062 77.9766 460.062 80.5547C460.062 83.1133 460.375 85.3691 461 87.3223C461.625 89.2559 462.464 90.8867 463.519 92.2148C464.574 93.5234 465.795 94.5195 467.181 95.2031C468.587 95.8672 470.062 96.209 471.605 96.2285ZM504.079 59.0508V65.5547C505.817 63.9727 507.526 62.6152 509.206 61.4824C510.905 60.3496 512.565 59.4219 514.186 58.6992C515.827 57.9766 517.419 57.4492 518.962 57.1172C520.505 56.7656 521.989 56.5898 523.415 56.5898C525.524 56.5898 527.487 56.9316 529.304 57.6152C531.12 58.2988 532.721 59.2559 534.108 60.4863C535.495 61.7168 536.647 63.1816 537.565 64.8809C538.483 66.5605 539.098 68.4062 539.411 70.418C539.626 71.8242 539.782 73.2012 539.88 74.5488C539.997 75.877 540.075 77.0684 540.114 78.123C540.153 79.0605 540.173 79.959 540.173 80.8184V102H531.735V78.0938C531.735 75.2227 531.501 72.8203 531.032 70.8867C530.583 68.9531 529.958 67.4004 529.157 66.2285C528.376 65.0371 527.448 64.1973 526.374 63.709C525.319 63.2012 524.177 62.9473 522.946 62.9473C521.657 62.9473 520.309 63.1816 518.903 63.6504C517.516 64.0996 516.149 64.6855 514.802 65.4082C513.454 66.1113 512.155 66.8926 510.905 67.752C509.675 68.6113 508.571 69.4316 507.595 70.2129C506.638 70.9941 505.846 71.6973 505.221 72.3223C504.596 72.9277 504.216 73.3477 504.079 73.582V102H496.139V59.0508H504.079ZM575.107 59.0508V102H567.695V73.2598L554.688 102H547.217V59.0508H554.629V87.791L567.637 59.0215L575.107 59.0508ZM610.13 102.117C607.396 102.117 604.749 101.932 602.191 101.561C599.632 101.189 597.23 100.633 594.984 99.8906C592.737 99.1289 590.687 98.1719 588.831 97.0195C586.976 95.8672 585.374 94.5 584.027 92.918C582.698 91.3164 581.663 89.4902 580.921 87.4395C580.179 85.3887 579.808 83.1035 579.808 80.584C579.808 78.1816 580.179 75.9844 580.921 73.9922C581.663 72 582.698 70.2031 584.027 68.6016C585.374 67 586.976 65.6035 588.831 64.4121C590.687 63.2012 592.737 62.1953 594.984 61.3945C597.23 60.5938 599.632 59.998 602.191 59.6074C604.749 59.1973 607.396 58.9922 610.13 58.9922L610.101 66.1992C606.448 66.2188 603.216 66.6484 600.404 67.4883C597.611 68.3086 595.267 69.3926 593.372 70.7402C591.478 72.0684 590.032 73.5918 589.036 75.3105C588.06 77.0098 587.552 78.7578 587.513 80.5547C587.513 80.6328 587.513 80.7109 587.513 80.7891C587.513 82.5078 587.962 84.207 588.861 85.8867C589.759 87.5664 591.146 89.0801 593.021 90.4277C594.915 91.7754 597.279 92.8691 600.111 93.709C602.962 94.5488 606.292 94.9785 610.101 94.998L610.13 102.117ZM643.629 59.0508V102H636.217V73.2598L623.209 102H615.739V59.0508H623.151V87.791L636.159 59.0215L643.629 59.0508Z" fill="#303030"/>
</svg>
