<svg width="197" height="29" viewBox="0 0 197 29" fill="none" xmlns="http://www.w3.org/2000/svg">
<path d="M18.5669 2.68799V12H16.7896V4.34473C16.633 4.39128 16.4214 4.4611 16.1548 4.5542C15.8924 4.64307 15.5941 4.75309 15.2598 4.88428C14.9255 5.01546 14.5658 5.16781 14.1807 5.34131C13.7998 5.51058 13.4126 5.70101 13.019 5.9126C12.6255 6.11995 12.234 6.34635 11.8447 6.5918C11.4596 6.83301 11.0978 7.09115 10.7593 7.36621C11.0428 7.72591 11.2607 8.07715 11.4131 8.41992C11.5654 8.75846 11.6649 9.05892 11.7114 9.32129C11.7622 9.58366 11.7876 9.81429 11.7876 10.0132C11.7876 10.0936 11.7791 10.2205 11.7622 10.394C11.7495 10.5675 11.7072 10.7643 11.6353 10.9844C11.5675 11.2002 11.4829 11.3885 11.3813 11.5493C11.2798 11.7101 11.1803 11.835 11.083 11.9238C10.8841 12.11 10.6556 12.2454 10.3975 12.3301C10.1393 12.4147 9.87695 12.457 9.61035 12.457C9.32259 12.457 9.04541 12.4105 8.77881 12.3174C8.51221 12.2285 8.28792 12.0973 8.10596 11.9238C7.8986 11.7292 7.72933 11.4689 7.59814 11.1431C7.47119 10.8172 7.40771 10.4512 7.40771 10.0449C7.40771 9.63867 7.486 9.20703 7.64258 8.75C7.80339 8.28874 8.06576 7.82747 8.42969 7.36621C8.12923 7.12077 7.80973 6.88802 7.47119 6.66797C7.13688 6.44792 6.79199 6.24056 6.43652 6.0459C6.08529 5.84701 5.72982 5.66292 5.37012 5.49365C5.01042 5.32015 4.65706 5.16357 4.31006 5.02393C3.96729 4.88005 3.63298 4.75098 3.30713 4.63672C2.98128 4.52246 2.67871 4.42513 2.39941 4.34473V12H0.62207V2.68799H2.23438C2.56022 2.77686 2.91992 2.889 3.31348 3.02441C3.70703 3.1556 4.11751 3.30583 4.54492 3.4751C4.97656 3.64437 5.41667 3.83268 5.86523 4.04004C6.31803 4.24316 6.76237 4.46322 7.19824 4.7002C7.63411 4.93717 8.05518 5.18896 8.46143 5.45557C8.87191 5.72217 9.25065 5.99935 9.59766 6.28711C9.99967 5.9528 10.4588 5.61849 10.9751 5.28418C11.4914 4.94987 12.0584 4.62826 12.6763 4.31934C13.2983 4.00618 13.967 3.71208 14.6821 3.43701C15.4015 3.15771 16.1611 2.90804 16.9609 2.68799H18.5669ZM10.1689 10.0894C10.1689 9.79313 10.1182 9.51172 10.0166 9.24512C9.91504 8.97428 9.77539 8.71191 9.59766 8.45801C9.41992 8.71191 9.28027 8.97428 9.17871 9.24512C9.07715 9.51172 9.02637 9.79313 9.02637 10.0894C9.02637 10.1909 9.03271 10.2925 9.04541 10.394C9.06234 10.4956 9.08984 10.5887 9.12793 10.6733C9.17025 10.758 9.22949 10.8278 9.30566 10.8828C9.38184 10.9336 9.48128 10.959 9.604 10.959C9.72249 10.959 9.81771 10.9315 9.88965 10.8765C9.96582 10.8215 10.0229 10.7516 10.061 10.667C10.1034 10.5824 10.1309 10.4893 10.1436 10.3877C10.1605 10.2819 10.1689 10.1825 10.1689 10.0894ZM21.6356 4.21777V6.57275H23.7557V8.10254H21.6356V10.4575H24.2064V11.9937H20.017V2.68799L24.2064 2.68164V4.21777H21.6356ZM30.0046 7.34717L33.4577 12H31.7883L29.8142 9.34033V12H28.4113V9.34033L26.4372 12H24.7234L28.1765 7.34717L24.7234 2.68799H26.4372L28.4113 5.34766V2.68799H29.8142V5.34766L31.7883 2.68799H33.4577L30.0046 7.34717ZM35.9742 2.69434C37.2183 2.7028 38.3842 2.76416 39.4718 2.87842C40.5593 2.99268 41.5559 3.15137 42.4615 3.35449C43.3671 3.55762 44.1733 3.80094 44.88 4.08447C45.5909 4.368 46.1918 4.68115 46.6827 5.02393C47.1736 5.3667 47.5481 5.73486 47.8062 6.12842C48.0644 6.51774 48.1934 6.92399 48.1934 7.34717C48.1934 7.77035 48.0644 8.17871 47.8062 8.57227C47.5481 8.96582 47.1736 9.33398 46.6827 9.67676C46.1918 10.0195 45.5909 10.3327 44.88 10.6162C44.1733 10.8955 43.3671 11.1367 42.4615 11.3398C41.5559 11.543 40.5593 11.7017 39.4718 11.8159C38.3842 11.9302 37.2183 11.9915 35.9742 12H34.273V2.69434H35.9742ZM35.9742 10.5527C36.829 10.5443 37.6711 10.5083 38.5006 10.4448C39.3342 10.3813 40.1277 10.2904 40.8809 10.1719C41.6342 10.0492 42.3303 9.89893 42.9693 9.72119C43.6125 9.54346 44.1669 9.33822 44.6324 9.10547C45.1021 8.86849 45.4682 8.604 45.7305 8.31201C45.9971 8.02002 46.1304 7.6984 46.1304 7.34717C46.1304 6.99593 45.9971 6.67432 45.7305 6.38232C45.4682 6.09033 45.1021 5.82796 44.6324 5.59521C44.1669 5.35824 43.6125 5.15088 42.9693 4.97314C42.3303 4.79541 41.6342 4.6473 40.8809 4.52881C40.1277 4.40609 39.3342 4.31299 38.5006 4.24951C37.6669 4.1818 36.8248 4.14583 35.9742 4.1416V10.5527ZM53.9853 8.40723C53.9853 9.17318 53.9345 9.80794 53.833 10.3115C53.7314 10.8151 53.5812 11.2171 53.3823 11.5176C53.1876 11.8138 52.9422 12.0233 52.6459 12.146C52.3539 12.2687 52.0154 12.3301 51.6303 12.3301C51.2833 12.3301 50.9765 12.2793 50.7099 12.1777C50.4475 12.0762 50.2211 11.9429 50.0307 11.7778C49.8403 11.6128 49.6816 11.4287 49.5546 11.2256C49.4277 11.0225 49.3261 10.8193 49.2499 10.6162C49.1738 10.4131 49.1209 10.2205 49.0913 10.0386C49.0616 9.85661 49.0468 9.70638 49.0468 9.58789H50.5576C50.5576 10.0618 50.6507 10.4215 50.8369 10.667C51.0273 10.9082 51.2706 11.0288 51.5668 11.0288C51.7361 11.0288 51.8736 10.9759 51.9794 10.8701C52.0852 10.7601 52.1677 10.6035 52.227 10.4004C52.2905 10.1973 52.3328 9.95394 52.3539 9.67041C52.3751 9.38265 52.3857 9.06104 52.3857 8.70557V8.69287C52.2418 8.71403 52.1043 8.73096 51.9731 8.74365C51.8461 8.75635 51.7234 8.7627 51.6049 8.7627C51.1056 8.7627 50.6887 8.67594 50.3544 8.50244C50.0201 8.32894 49.7514 8.10042 49.5483 7.81689C49.3452 7.52913 49.1949 7.2054 49.0976 6.8457C49.0045 6.48177 48.9474 6.10938 48.9262 5.72852C48.9177 5.58464 48.9135 5.43864 48.9135 5.29053C48.9135 4.51188 49.0257 3.64648 49.2499 2.69434H50.8813C50.6739 3.58724 50.5639 4.38281 50.5512 5.08105C50.5512 5.11068 50.5512 5.14242 50.5512 5.17627C50.5512 5.43864 50.5681 5.70736 50.602 5.98242C50.6358 6.25326 50.7036 6.50081 50.8051 6.7251C50.9109 6.94515 51.0548 7.125 51.2368 7.26465C51.423 7.40007 51.6599 7.46777 51.9477 7.46777C52.0704 7.46777 52.2164 7.45085 52.3857 7.41699V2.69434H53.9853V8.40723ZM60.9959 2.69434V12H59.2503V8.0708H57.2889V12H55.5433V2.69434H57.2889V6.60449H59.2503V2.69434H60.9959ZM71.8976 8.19775C71.8934 8.28239 71.8913 8.36914 71.8913 8.45801C71.8913 8.62305 71.8997 8.81348 71.9167 9.0293C71.9378 9.24512 71.9759 9.4694 72.0309 9.70215C72.0859 9.93066 72.1536 10.1296 72.234 10.2988C72.3144 10.4639 72.4054 10.5739 72.507 10.6289L71.6881 12.1587C71.5231 12.0825 71.375 11.9852 71.2438 11.8667C71.1169 11.744 71.0026 11.6064 70.901 11.4541C70.7995 11.3018 70.7106 11.1388 70.6344 10.9653C70.5625 10.7918 70.499 10.6141 70.444 10.4321C70.2028 10.6903 69.9341 10.9272 69.6379 11.1431C69.3416 11.3589 69.02 11.5472 68.673 11.708C68.3302 11.8646 67.9642 11.9873 67.5749 12.0762C67.1898 12.1693 66.7856 12.2222 66.3625 12.2349C66.3074 12.2349 66.2546 12.2349 66.2038 12.2349C65.8483 12.2349 65.4971 12.1947 65.1501 12.1143C64.8031 12.0381 64.473 11.9238 64.1598 11.7715C63.8509 11.6149 63.5716 11.4329 63.3219 11.2256C63.0765 11.014 62.867 10.7876 62.6935 10.5464C62.52 10.3052 62.3867 10.0555 62.2936 9.79736C62.2047 9.53499 62.1603 9.27897 62.1603 9.0293C62.1603 8.61458 62.228 8.26335 62.3634 7.97559C62.5031 7.68359 62.6808 7.44027 62.8966 7.24561C63.1167 7.04671 63.3621 6.88802 63.633 6.76953C63.908 6.65104 64.181 6.56006 64.4518 6.49658C64.7269 6.43311 64.985 6.38867 65.2262 6.36328C65.4717 6.33789 65.6748 6.31885 65.8356 6.30615L65.9245 6.2998C66.1826 6.27865 66.4788 6.26172 66.8131 6.24902C67.1517 6.2321 67.5072 6.22152 67.8796 6.21729C68.2519 6.20882 68.6307 6.20459 69.0158 6.20459C69.4051 6.20459 69.7796 6.20671 70.1393 6.21094C70.1393 5.96973 70.0568 5.72005 69.8918 5.46191C69.7267 5.19954 69.5003 4.96045 69.2126 4.74463C68.9248 4.52458 68.582 4.34473 68.1842 4.20508C67.7907 4.0612 67.3654 3.98926 66.9084 3.98926C66.6545 3.98926 66.3921 4.01465 66.1213 4.06543C65.8546 4.11621 65.5817 4.19873 65.3024 4.31299C65.0273 4.42725 64.748 4.57536 64.4645 4.75732C64.181 4.93506 63.8996 5.15299 63.6203 5.41113L62.5031 4.40186C62.8078 4.05908 63.1421 3.76497 63.506 3.51953C63.8742 3.27409 64.2508 3.07308 64.6359 2.9165C65.0252 2.75993 65.4124 2.64567 65.7975 2.57373C66.1868 2.49756 66.5571 2.45947 66.9084 2.45947C67.5347 2.45947 68.0933 2.52507 68.5841 2.65625C69.075 2.78743 69.5046 2.96094 69.8727 3.17676C70.2451 3.38835 70.5583 3.62956 70.8122 3.90039C71.0703 4.17122 71.2798 4.44629 71.4406 4.72559C71.6014 5.00488 71.7178 5.27572 71.7897 5.53809C71.8616 5.80046 71.8976 6.03109 71.8976 6.22998C71.8976 6.23421 71.8934 6.23633 71.8849 6.23633C71.8807 6.23633 71.8786 6.23844 71.8786 6.24268H71.8976V8.19775ZM64.2677 9.89893C64.5767 10.1782 64.9173 10.3835 65.2897 10.5146C65.6621 10.6458 66.0472 10.7114 66.445 10.7114C66.8766 10.7114 67.304 10.6395 67.7272 10.4956C68.1504 10.3517 68.5376 10.1486 68.8888 9.88623C69.2443 9.61963 69.5469 9.30225 69.7965 8.93408C70.0462 8.56169 70.2113 8.14697 70.2917 7.68994C69.932 7.68571 69.5553 7.68359 69.1618 7.68359C68.7725 7.68359 68.3895 7.68783 68.0129 7.69629C67.6362 7.70052 67.2786 7.70898 66.9401 7.72168C66.6016 7.73438 66.3053 7.7513 66.0514 7.77246L65.9562 7.77881C65.5288 7.81689 65.1776 7.86556 64.9025 7.9248C64.6274 7.98405 64.4095 8.06234 64.2487 8.15967C64.0879 8.257 63.9757 8.3776 63.9123 8.52148C63.8488 8.66113 63.8171 8.8304 63.8171 9.0293C63.8171 9.1901 63.8573 9.34245 63.9377 9.48633C64.0223 9.62598 64.1323 9.76351 64.2677 9.89893ZM82.0059 7.9375C81.6419 8.26758 81.2082 8.51725 80.7046 8.68652C80.2053 8.85156 79.653 8.93408 79.0479 8.93408C78.5781 8.93408 78.1486 8.89388 77.7593 8.81348C77.37 8.72884 77.0166 8.61458 76.6992 8.4707C76.3819 8.32682 76.0983 8.16178 75.8487 7.97559C75.599 7.78516 75.3768 7.58626 75.1822 7.37891V12H73.4492V2.68799H75.1822V3.95117C75.1948 4.02734 75.2118 4.12891 75.2329 4.25586C75.2583 4.38281 75.2922 4.52458 75.3345 4.68115C75.381 4.8335 75.4382 4.99854 75.5059 5.17627C75.5778 5.34977 75.6646 5.52539 75.7661 5.70312C76.439 6.87956 77.5329 7.46777 79.0479 7.46777C79.4711 7.46777 79.8498 7.41488 80.1841 7.30908C80.5184 7.20329 80.7998 7.04883 81.0283 6.8457C81.2103 6.6849 81.3478 6.50081 81.4409 6.29346C81.5383 6.08187 81.5869 5.8597 81.5869 5.62695C81.5869 5.4196 81.5446 5.21436 81.46 5.01123C81.3796 4.80811 81.2526 4.62614 81.0791 4.46533C80.9099 4.30029 80.6919 4.16911 80.4253 4.07178C80.1629 3.97021 79.8519 3.91943 79.4922 3.91943C78.8871 3.91943 78.356 4.03581 77.8989 4.26855C77.4419 4.49707 77.0441 4.85042 76.7056 5.32861L75.5059 4.47803C75.9798 3.80941 76.5532 3.30583 77.2261 2.96729C77.8989 2.62451 78.6543 2.45312 79.4922 2.45312C80.0212 2.45312 80.5057 2.53353 80.9458 2.69434C81.3902 2.85514 81.7774 3.09424 82.1074 3.41162C82.4121 3.70785 82.6449 4.04639 82.8057 4.42725C82.9707 4.80387 83.0532 5.20378 83.0532 5.62695C83.0532 6.07552 82.9644 6.49658 82.7866 6.89014C82.6089 7.28369 82.3487 7.63281 82.0059 7.9375ZM87.9564 2.64355C88.2992 2.64355 88.642 2.6901 88.9847 2.7832C89.3275 2.8763 89.6555 3.01383 89.9686 3.1958C90.286 3.37777 90.5801 3.60417 90.851 3.875C91.1218 4.1416 91.3567 4.4484 91.5555 4.79541C91.7544 5.14242 91.911 5.53174 92.0253 5.96338C92.1395 6.39079 92.1967 6.85417 92.1967 7.35352C92.1967 7.86133 92.1395 8.33105 92.0253 8.7627C91.911 9.19434 91.7544 9.58366 91.5555 9.93066C91.3567 10.2777 91.1218 10.5845 90.851 10.8511C90.5801 11.1177 90.286 11.3398 89.9686 11.5176C89.6555 11.6953 89.3275 11.8307 88.9847 11.9238C88.642 12.0127 88.2992 12.0571 87.9564 12.0571C87.6137 12.0571 87.2688 12.0127 86.9218 11.9238C86.579 11.8307 86.2489 11.6953 85.9315 11.5176C85.6184 11.3398 85.3264 11.1177 85.0555 10.8511C84.7847 10.5845 84.5499 10.2777 84.351 9.93066C84.1521 9.58366 83.9955 9.19434 83.8812 8.7627C83.767 8.33105 83.7098 7.86133 83.7098 7.35352C83.7098 6.84993 83.767 6.38444 83.8812 5.95703C83.9955 5.52962 84.1521 5.14242 84.351 4.79541C84.5499 4.4484 84.7847 4.1416 85.0555 3.875C85.3264 3.60417 85.6184 3.37777 85.9315 3.1958C86.2489 3.01383 86.579 2.8763 86.9218 2.7832C87.2688 2.6901 87.6137 2.64355 87.9564 2.64355ZM87.9564 10.7495C88.2907 10.7453 88.6081 10.6712 88.9086 10.5273C89.209 10.3792 89.4714 10.1634 89.6957 9.87988C89.9242 9.59212 90.1041 9.23877 90.2352 8.81982C90.3707 8.39665 90.4384 7.90788 90.4384 7.35352C90.4384 6.79492 90.3707 6.30615 90.2352 5.88721C90.1041 5.46403 89.9242 5.11068 89.6957 4.82715C89.4714 4.54362 89.209 4.32992 88.9086 4.18604C88.6081 4.03792 88.2907 3.96175 87.9564 3.95752C87.6221 3.96175 87.3026 4.03792 86.9979 4.18604C86.6975 4.32992 86.433 4.54362 86.2045 4.82715C85.976 5.11068 85.794 5.46403 85.6586 5.88721C85.5232 6.30615 85.4555 6.79492 85.4555 7.35352C85.4555 7.90788 85.5232 8.39665 85.6586 8.81982C85.794 9.23877 85.976 9.59212 86.2045 9.87988C86.433 10.1634 86.6975 10.3792 86.9979 10.5273C87.3026 10.6712 87.6221 10.7453 87.9564 10.7495ZM94.948 2.69434C96.1921 2.7028 97.358 2.76416 98.4455 2.87842C99.5331 2.99268 100.53 3.15137 101.435 3.35449C102.341 3.55762 103.147 3.80094 103.854 4.08447C104.565 4.368 105.166 4.68115 105.656 5.02393C106.147 5.3667 106.522 5.73486 106.78 6.12842C107.038 6.51774 107.167 6.92399 107.167 7.34717C107.167 7.77035 107.038 8.17871 106.78 8.57227C106.522 8.96582 106.147 9.33398 105.656 9.67676C105.166 10.0195 104.565 10.3327 103.854 10.6162C103.147 10.8955 102.341 11.1367 101.435 11.3398C100.53 11.543 99.5331 11.7017 98.4455 11.8159C97.358 11.9302 96.1921 11.9915 94.948 12H93.2468V2.69434H94.948ZM94.948 10.5527C95.8028 10.5443 96.6449 10.5083 97.4744 10.4448C98.308 10.3813 99.1015 10.2904 99.8547 10.1719C100.608 10.0492 101.304 9.89893 101.943 9.72119C102.586 9.54346 103.141 9.33822 103.606 9.10547C104.076 8.86849 104.442 8.604 104.704 8.31201C104.971 8.02002 105.104 7.6984 105.104 7.34717C105.104 6.99593 104.971 6.67432 104.704 6.38232C104.442 6.09033 104.076 5.82796 103.606 5.59521C103.141 5.35824 102.586 5.15088 101.943 4.97314C101.304 4.79541 100.608 4.6473 99.8547 4.52881C99.1015 4.40609 98.308 4.31299 97.4744 4.24951C96.6407 4.1818 95.7986 4.14583 94.948 4.1416V10.5527ZM113.499 2.69434V12H111.753V8.0708H109.792V12H108.046V2.69434H109.792V6.60449H111.753V2.69434H113.499ZM123.632 6.75684C123.971 7.06152 124.229 7.41064 124.407 7.8042C124.589 8.19775 124.68 8.61882 124.68 9.06738C124.68 9.49056 124.597 9.89258 124.432 10.2734C124.271 10.6501 124.039 10.9865 123.734 11.2827C123.404 11.6001 123.017 11.8392 122.572 12C122.132 12.1608 121.648 12.2412 121.119 12.2412C120.281 12.2412 119.525 12.0719 118.853 11.7334C118.18 11.3906 117.606 10.8849 117.132 10.2163L118.326 9.36572C118.664 9.84391 119.062 10.1994 119.519 10.4321C119.98 10.6606 120.513 10.7749 121.119 10.7749C121.478 10.7749 121.789 10.7241 122.052 10.6226C122.318 10.521 122.536 10.3898 122.706 10.229C122.879 10.0682 123.006 9.88623 123.086 9.68311C123.171 9.47998 123.213 9.27474 123.213 9.06738C123.213 8.83464 123.165 8.61458 123.067 8.40723C122.97 8.19564 122.832 8.00944 122.655 7.84863C122.426 7.64551 122.145 7.49105 121.811 7.38525C121.476 7.27946 121.097 7.22656 120.674 7.22656C119.155 7.22656 118.061 7.81266 117.393 8.98486C117.291 9.1626 117.204 9.34033 117.132 9.51807C117.065 9.69157 117.007 9.85661 116.961 10.0132C116.919 10.1698 116.885 10.3115 116.859 10.4385C116.834 10.5654 116.817 10.667 116.809 10.7432V12.0063H115.076V2.69434H116.809V7.31543C117.003 7.10384 117.225 6.90495 117.475 6.71875C117.725 6.52832 118.008 6.36328 118.326 6.22363C118.643 6.07975 118.996 5.96549 119.386 5.88086C119.775 5.79622 120.205 5.75391 120.674 5.75391C121.279 5.75391 121.832 5.83854 122.331 6.00781C122.83 6.17708 123.264 6.42676 123.632 6.75684ZM127.257 2.69434V12.0063H125.524V2.69434H127.257ZM133.43 2.11035H130.744L131.347 0.777344H133.43V2.11035ZM135.112 2.69434V12H133.499V5.77295L130.681 12H129.062V2.69434H130.675V8.92139L133.493 2.68799L135.112 2.69434ZM150.231 8.28662C150.227 8.36702 150.225 8.44954 150.225 8.53418C150.225 8.70345 150.235 8.89811 150.256 9.11816C150.278 9.33398 150.314 9.55827 150.364 9.79102C150.419 10.0195 150.487 10.2184 150.567 10.3877C150.648 10.5527 150.739 10.6628 150.84 10.7178L150.047 12.2412C149.861 12.1439 149.681 12.0021 149.507 11.8159C149.334 11.6255 149.179 11.4076 149.044 11.1621C148.913 10.9124 148.807 10.6416 148.727 10.3496C148.65 10.0534 148.612 9.75081 148.612 9.44189C148.549 9.5096 148.458 9.61328 148.339 9.75293C148.225 9.89258 148.088 10.0492 147.927 10.2227C147.77 10.3919 147.59 10.5718 147.387 10.7622C147.184 10.9484 146.962 11.1283 146.721 11.3018C146.484 11.4753 146.226 11.634 145.946 11.7778C145.671 11.9175 145.381 12.0233 145.077 12.0952C144.95 12.1291 144.8 12.1566 144.626 12.1777C144.457 12.1989 144.273 12.2095 144.074 12.2095C143.875 12.2095 143.668 12.1947 143.452 12.165C143.236 12.1354 143.022 12.0804 142.811 12C142.599 11.9238 142.394 11.8223 142.195 11.6953C142 11.5641 141.82 11.4012 141.655 11.2065C141.49 11.0076 141.346 10.7707 141.224 10.4956C141.105 10.2205 141.018 9.90104 140.963 9.53711C140.917 9.23242 140.881 8.9362 140.856 8.64844C140.834 8.35645 140.82 8.09619 140.811 7.86768C140.803 7.66455 140.798 7.46989 140.798 7.28369V2.69434H142.519V7.87402C142.519 8.37337 142.559 8.79443 142.639 9.13721C142.724 9.47998 142.836 9.75716 142.976 9.96875C143.12 10.1761 143.287 10.3263 143.477 10.4194C143.672 10.5083 143.879 10.5527 144.099 10.5527C144.328 10.5527 144.565 10.5125 144.81 10.4321C145.06 10.3475 145.305 10.2375 145.546 10.1021C145.788 9.96663 146.02 9.81217 146.245 9.63867C146.473 9.46517 146.678 9.28955 146.86 9.11182C147.284 8.70133 147.626 8.32682 147.889 7.98828C148.155 7.64551 148.363 7.35563 148.511 7.11865V2.69434H150.231V8.28662ZM157.267 2.69434V12H155.521V8.0708H153.56V12H151.814V2.69434H153.56V6.60449H155.521V2.69434H157.267ZM164.874 12.0254C164.282 12.0254 163.708 11.9852 163.154 11.9048C162.6 11.8244 162.079 11.7038 161.593 11.543C161.106 11.3779 160.662 11.1706 160.26 10.9209C159.858 10.6712 159.511 10.375 159.219 10.0322C158.931 9.68522 158.706 9.28955 158.546 8.84521C158.385 8.40088 158.304 7.90576 158.304 7.35986C158.304 6.83936 158.385 6.36328 158.546 5.93164C158.706 5.5 158.931 5.11068 159.219 4.76367C159.511 4.41667 159.858 4.1141 160.26 3.85596C160.662 3.59359 161.106 3.37565 161.593 3.20215C162.079 3.02865 162.6 2.89958 163.154 2.81494C163.708 2.72607 164.282 2.68164 164.874 2.68164L164.868 4.24316C164.077 4.2474 163.376 4.34049 162.767 4.52246C162.162 4.7002 161.654 4.93506 161.243 5.22705C160.833 5.51481 160.52 5.84489 160.304 6.21729C160.092 6.58545 159.982 6.96419 159.974 7.35352C159.974 7.37044 159.974 7.38737 159.974 7.4043C159.974 7.77669 160.071 8.14486 160.266 8.50879C160.461 8.87272 160.761 9.20068 161.167 9.49268C161.578 9.78467 162.09 10.0216 162.703 10.2036C163.321 10.3856 164.043 10.4787 164.868 10.4829L164.874 12.0254ZM170.882 2.69434V4.16064H169.257V12H167.588V4.16064H165.969V2.69434H170.882ZM178.058 2.69434V12H176.452V5.77295L173.633 12H172.015V2.69434H173.621V8.92139L176.439 2.68799L178.058 2.69434ZM184.091 2.69434V4.16064H182.466V12H180.796V4.16064H179.178V2.69434H184.091ZM190.086 8.40723C190.086 9.17318 190.035 9.80794 189.933 10.3115C189.832 10.8151 189.682 11.2171 189.483 11.5176C189.288 11.8138 189.043 12.0233 188.746 12.146C188.454 12.2687 188.116 12.3301 187.731 12.3301C187.384 12.3301 187.077 12.2793 186.81 12.1777C186.548 12.0762 186.321 11.9429 186.131 11.7778C185.941 11.6128 185.782 11.4287 185.655 11.2256C185.528 11.0225 185.426 10.8193 185.35 10.6162C185.274 10.4131 185.221 10.2205 185.192 10.0386C185.162 9.85661 185.147 9.70638 185.147 9.58789H186.658C186.658 10.0618 186.751 10.4215 186.937 10.667C187.128 10.9082 187.371 11.0288 187.667 11.0288C187.836 11.0288 187.974 10.9759 188.08 10.8701C188.186 10.7601 188.268 10.6035 188.327 10.4004C188.391 10.1973 188.433 9.95394 188.454 9.67041C188.475 9.38265 188.486 9.06104 188.486 8.70557V8.69287C188.342 8.71403 188.205 8.73096 188.073 8.74365C187.946 8.75635 187.824 8.7627 187.705 8.7627C187.206 8.7627 186.789 8.67594 186.455 8.50244C186.12 8.32894 185.852 8.10042 185.649 7.81689C185.446 7.52913 185.295 7.2054 185.198 6.8457C185.105 6.48177 185.048 6.10938 185.027 5.72852C185.018 5.58464 185.014 5.43864 185.014 5.29053C185.014 4.51188 185.126 3.64648 185.35 2.69434H186.982C186.774 3.58724 186.664 4.38281 186.652 5.08105C186.652 5.11068 186.652 5.14242 186.652 5.17627C186.652 5.43864 186.668 5.70736 186.702 5.98242C186.736 6.25326 186.804 6.50081 186.905 6.7251C187.011 6.94515 187.155 7.125 187.337 7.26465C187.523 7.40007 187.76 7.46777 188.048 7.46777C188.171 7.46777 188.317 7.45085 188.486 7.41699V2.69434H190.086V8.40723ZM196.068 2.69434V4.16064H194.443V12H192.773V4.16064H191.155V2.69434H196.068ZM0.780762 18.6436C0.92041 18.6266 1.09603 18.6097 1.30762 18.5928C1.51921 18.5716 1.75618 18.5526 2.01855 18.5356C2.28092 18.5187 2.56657 18.506 2.87549 18.4976C3.18864 18.4849 3.5166 18.4785 3.85938 18.4785C4.33757 18.4785 4.83903 18.4933 5.36377 18.5229C5.89274 18.5526 6.42383 18.6055 6.95703 18.6816C7.49023 18.7536 8.01497 18.8551 8.53125 18.9863C9.05176 19.1133 9.54264 19.2783 10.0039 19.4814C10.4694 19.6803 10.8968 19.9194 11.2861 20.1987C11.6755 20.478 12.0076 20.806 12.2827 21.1826C12.5578 21.555 12.7567 21.957 12.8794 22.3887C13.0063 22.8203 13.0698 23.2646 13.0698 23.7217C13.0698 23.8359 13.0656 23.9523 13.0571 24.0708C13.0317 24.5278 12.9471 24.9489 12.8032 25.334C12.6593 25.7191 12.471 26.0661 12.2383 26.375C12.0098 26.6797 11.7432 26.9484 11.4385 27.1812C11.138 27.4139 10.8122 27.6086 10.4609 27.7651C10.1097 27.9217 9.74154 28.0381 9.35645 28.1143C8.97135 28.1947 8.58415 28.2349 8.19482 28.2349C7.68701 28.2349 7.18766 28.1672 6.69678 28.0317C6.20589 27.9006 5.75098 27.6995 5.33203 27.4287C4.91732 27.1579 4.5555 26.8193 4.24658 26.4131C3.94189 26.0026 3.71973 25.5244 3.58008 24.9785L5.00195 24.6167C5.06966 24.8791 5.17334 25.116 5.31299 25.3276C5.45264 25.535 5.61556 25.7191 5.80176 25.8799C5.98796 26.0407 6.18896 26.1782 6.40479 26.2925C6.62061 26.4025 6.83643 26.4935 7.05225 26.5654C7.2723 26.6331 7.486 26.6839 7.69336 26.7178C7.90072 26.7516 8.08691 26.7686 8.25195 26.7686C8.60319 26.7686 8.9375 26.7072 9.25488 26.5845C9.57227 26.4618 9.86003 26.2967 10.1182 26.0894C10.3805 25.882 10.6048 25.6387 10.791 25.3594C10.9814 25.0758 11.1211 24.7839 11.21 24.4834C11.3031 24.1829 11.3496 23.8846 11.3496 23.5884C11.3496 23.5545 11.3454 23.4466 11.3369 23.2646C11.3327 23.0785 11.2586 22.8267 11.1147 22.5093C10.9709 22.1877 10.7572 21.8851 10.4736 21.6016C10.1901 21.3138 9.82194 21.0599 9.36914 20.8398C8.92057 20.6198 8.38102 20.4421 7.75049 20.3066C7.11995 20.1712 6.38786 20.0951 5.5542 20.0781L1.98682 28H0.152344L3.73242 20.0527C3.46159 20.0527 3.18441 20.0591 2.90088 20.0718C2.61735 20.0845 2.3444 20.1014 2.08203 20.1226C1.81966 20.1395 1.57422 20.1585 1.3457 20.1797C1.12142 20.2008 0.933105 20.2199 0.780762 20.2368V18.6436ZM20.3915 18.6943V28H18.7855V21.7729L15.9671 28H14.3485V18.6943H15.9545V24.9214L18.7728 18.688L20.3915 18.6943ZM33.7942 23.3408C33.9465 23.4466 34.0925 23.599 34.2321 23.7979C34.376 23.9925 34.4839 24.2062 34.5559 24.439C34.6278 24.6717 34.6638 24.9066 34.6638 25.1436C34.6638 25.1816 34.6596 25.2811 34.6511 25.4419C34.6469 25.6027 34.5686 25.8228 34.4162 26.1021C34.2639 26.3813 34.0269 26.6501 33.7053 26.9082C33.3879 27.1621 32.9584 27.3885 32.4167 27.5874C31.8793 27.7821 31.2191 27.9365 30.4363 28.0508C29.6534 28.1693 28.7224 28.2285 27.6433 28.2285C26.9493 28.2285 26.2849 28.1904 25.6501 28.1143C25.0154 28.0381 24.4229 27.9408 23.8728 27.8223C23.3269 27.7038 22.8254 27.5768 22.3684 27.4414C21.9156 27.3018 21.5241 27.1706 21.1941 27.0479L21.8034 25.7021C22.1124 25.8122 22.4763 25.9307 22.8952 26.0576C23.3142 26.1803 23.7754 26.2946 24.279 26.4004C24.7868 26.502 25.3264 26.5887 25.8977 26.6606C26.4732 26.7284 27.072 26.7622 27.6941 26.7622C28.5446 26.7622 29.2725 26.7305 29.8777 26.667C30.487 26.6035 30.997 26.521 31.4074 26.4194C31.8179 26.3136 32.1395 26.193 32.3723 26.0576C32.6093 25.918 32.7785 25.7741 32.8801 25.626C32.9859 25.4779 33.0388 25.3319 33.0388 25.188C33.0388 25.1795 33.0367 25.1372 33.0324 25.061C33.0324 24.9806 32.9986 24.8748 32.9309 24.7437C32.8632 24.6082 32.7743 24.4897 32.6643 24.3882C32.5543 24.2824 32.4442 24.202 32.3342 24.147C31.9533 24.3078 31.5407 24.4474 31.0964 24.5659C30.6521 24.6802 30.1929 24.7754 29.719 24.8516C29.2492 24.9235 28.771 24.9785 28.2844 25.0166C27.802 25.0505 27.3259 25.0674 26.8562 25.0674C26.3526 25.0674 25.8681 25.0483 25.4026 25.0103C24.9413 24.9679 24.516 24.9087 24.1267 24.8325C23.7416 24.7563 23.4052 24.6632 23.1174 24.5532C22.8296 24.4432 22.6096 24.3184 22.4572 24.1787C22.3472 24.0771 22.252 23.9629 22.1716 23.8359C22.0954 23.709 22.0531 23.6032 22.0446 23.5186C22.0362 23.4297 22.032 23.3704 22.032 23.3408C22.032 23.2223 22.0595 23.0933 22.1145 22.9536C22.1737 22.8097 22.288 22.6595 22.4572 22.5029C22.6096 22.3633 22.8296 22.2384 23.1174 22.1284C23.4094 22.0142 23.7479 21.9189 24.133 21.8428C24.5224 21.7666 24.9498 21.7095 25.4153 21.6714C25.8807 21.6291 26.3674 21.6079 26.8752 21.6079C27.3407 21.6079 27.8147 21.627 28.2971 21.665C28.7795 21.6989 29.2556 21.7539 29.7253 21.8301C30.1993 21.902 30.6563 21.9972 31.0964 22.1157C31.5407 22.23 31.9533 22.3675 32.3342 22.5283C32.4442 22.4733 32.5543 22.395 32.6643 22.2935C32.7743 22.1877 32.8632 22.0692 32.9309 21.938C32.9986 21.8026 33.0324 21.6968 33.0324 21.6206C33.0367 21.5402 33.0388 21.4958 33.0388 21.4873C33.0388 21.3434 32.988 21.1974 32.8864 21.0493C32.7849 20.9012 32.6156 20.7594 32.3786 20.624C32.1417 20.4844 31.8179 20.3638 31.4074 20.2622C30.997 20.1564 30.487 20.0718 29.8777 20.0083C29.2725 19.9448 28.5446 19.9131 27.6941 19.9131C27.1693 19.9131 26.6594 19.9385 26.1643 19.9893C25.6692 20.04 25.1973 20.1056 24.7488 20.186C24.3044 20.2664 23.8855 20.3574 23.4919 20.459C23.1026 20.5605 22.7471 20.6621 22.4255 20.7637L23.2253 19.0054C23.8432 18.853 24.5245 18.724 25.2693 18.6182C26.0141 18.5081 26.8054 18.4531 27.6433 18.4531C28.6377 18.4531 29.5074 18.5081 30.2522 18.6182C31.0012 18.7282 31.6444 18.8763 32.1819 19.0625C32.7193 19.2487 33.1594 19.4645 33.5022 19.71C33.8449 19.9554 34.1073 20.2157 34.2893 20.4907C34.4755 20.7616 34.5834 20.9964 34.613 21.1953C34.6469 21.3942 34.6638 21.5508 34.6638 21.665C34.6638 21.8216 34.6405 21.9993 34.594 22.1982C34.5474 22.3971 34.4501 22.6045 34.302 22.8203C34.1581 23.0319 33.9888 23.2054 33.7942 23.3408ZM25.5993 23.709C25.7728 23.7174 25.9442 23.7238 26.1135 23.728C26.287 23.728 26.4097 23.728 26.4817 23.728C26.6975 23.728 26.9493 23.7259 27.237 23.7217C27.529 23.7132 27.8591 23.7005 28.2273 23.6836C28.5954 23.6667 28.9594 23.6434 29.3191 23.6138C29.6788 23.5799 30.0258 23.5418 30.3601 23.4995C30.6944 23.453 30.9927 23.4001 31.2551 23.3408C30.9589 23.2731 30.6182 23.2139 30.2331 23.1631C29.8523 23.1123 29.4524 23.0721 29.0334 23.0425C28.6187 23.0086 28.2019 22.9854 27.7829 22.9727C27.3682 22.9557 26.9789 22.9473 26.615 22.9473C26.3695 22.9473 26.1325 22.9515 25.904 22.96C25.6797 22.9642 25.4555 22.979 25.2312 23.0044C25.0111 23.0298 24.789 23.0658 24.5647 23.1123C24.3446 23.1589 24.114 23.2223 23.8728 23.3027C23.8516 23.3112 23.841 23.3239 23.841 23.3408C23.841 23.3577 23.8516 23.3704 23.8728 23.3789C24.0251 23.4339 24.2388 23.4974 24.5139 23.5693C24.789 23.637 25.1508 23.6836 25.5993 23.709ZM45.2862 24.1978C45.282 24.2824 45.2799 24.3691 45.2799 24.458C45.2799 24.623 45.2883 24.8135 45.3053 25.0293C45.3264 25.2451 45.3645 25.4694 45.4195 25.7021C45.4745 25.9307 45.5422 26.1296 45.6226 26.2988C45.703 26.4639 45.794 26.5739 45.8956 26.6289L45.0767 28.1587C44.9117 28.0825 44.7636 27.9852 44.6324 27.8667C44.5054 27.744 44.3912 27.6064 44.2896 27.4541C44.1881 27.3018 44.0992 27.1388 44.023 26.9653C43.9511 26.7918 43.8876 26.6141 43.8326 26.4321C43.5914 26.6903 43.3227 26.9272 43.0264 27.1431C42.7302 27.3589 42.4086 27.5472 42.0616 27.708C41.7188 27.8646 41.3528 27.9873 40.9635 28.0762C40.5784 28.1693 40.1742 28.2222 39.7511 28.2349C39.696 28.2349 39.6431 28.2349 39.5924 28.2349C39.2369 28.2349 38.8857 28.1947 38.5387 28.1143C38.1916 28.0381 37.8616 27.9238 37.5484 27.7715C37.2395 27.6149 36.9602 27.4329 36.7105 27.2256C36.4651 27.014 36.2556 26.7876 36.0821 26.5464C35.9086 26.3052 35.7753 26.0555 35.6822 25.7974C35.5933 25.535 35.5489 25.279 35.5489 25.0293C35.5489 24.6146 35.6166 24.2633 35.752 23.9756C35.8917 23.6836 36.0694 23.4403 36.2852 23.2456C36.5053 23.0467 36.7507 22.888 37.0216 22.7695C37.2966 22.651 37.5696 22.5601 37.8404 22.4966C38.1155 22.4331 38.3736 22.3887 38.6148 22.3633C38.8603 22.3379 39.0634 22.3188 39.2242 22.3062L39.3131 22.2998C39.5712 22.2786 39.8674 22.2617 40.2017 22.249C40.5403 22.2321 40.8957 22.2215 41.2681 22.2173C41.6405 22.2088 42.0193 22.2046 42.4044 22.2046C42.7937 22.2046 43.1682 22.2067 43.5279 22.2109C43.5279 21.9697 43.4454 21.7201 43.2803 21.4619C43.1153 21.1995 42.8889 20.9604 42.6012 20.7446C42.3134 20.5246 41.9706 20.3447 41.5728 20.2051C41.1793 20.0612 40.754 19.9893 40.297 19.9893C40.043 19.9893 39.7807 20.0146 39.5098 20.0654C39.2432 20.1162 38.9703 20.1987 38.691 20.313C38.4159 20.4272 38.1366 20.5754 37.8531 20.7573C37.5696 20.9351 37.2882 21.153 37.0089 21.4111L35.8917 20.4019C36.1964 20.0591 36.5307 19.765 36.8946 19.5195C37.2628 19.2741 37.6394 19.0731 38.0245 18.9165C38.4138 18.7599 38.801 18.6457 39.1861 18.5737C39.5754 18.4976 39.9457 18.4595 40.297 18.4595C40.9233 18.4595 41.4818 18.5251 41.9727 18.6562C42.4636 18.7874 42.8931 18.9609 43.2613 19.1768C43.6337 19.3883 43.9469 19.6296 44.2008 19.9004C44.4589 20.1712 44.6684 20.4463 44.8292 20.7256C44.99 21.0049 45.1064 21.2757 45.1783 21.5381C45.2502 21.8005 45.2862 22.0311 45.2862 22.23C45.2862 22.2342 45.282 22.2363 45.2735 22.2363C45.2693 22.2363 45.2672 22.2384 45.2672 22.2427H45.2862V24.1978ZM37.6563 25.8989C37.9652 26.1782 38.3059 26.3835 38.6783 26.5146C39.0507 26.6458 39.4358 26.7114 39.8336 26.7114C40.2652 26.7114 40.6926 26.6395 41.1158 26.4956C41.539 26.3517 41.9262 26.1486 42.2774 25.8862C42.6329 25.6196 42.9355 25.3022 43.1851 24.9341C43.4348 24.5617 43.5998 24.147 43.6803 23.6899C43.3206 23.6857 42.9439 23.6836 42.5504 23.6836C42.161 23.6836 41.7781 23.6878 41.4014 23.6963C41.0248 23.7005 40.6672 23.709 40.3287 23.7217C39.9901 23.7344 39.6939 23.7513 39.44 23.7725L39.3448 23.7788C38.9174 23.8169 38.5662 23.8656 38.2911 23.9248C38.016 23.984 37.7981 24.0623 37.6373 24.1597C37.4765 24.257 37.3643 24.3776 37.3009 24.5215C37.2374 24.6611 37.2056 24.8304 37.2056 25.0293C37.2056 25.1901 37.2458 25.3424 37.3262 25.4863C37.4109 25.626 37.5209 25.7635 37.6563 25.8989ZM51.3193 18.1104H48.6342L49.2372 16.7773H51.3193V18.1104ZM53.0014 18.6943V28H51.3891V21.7729L48.5707 28H46.9521V18.6943H48.5644V24.9214L51.3828 18.688L53.0014 18.6943ZM60.158 18.6943V28H58.4124V24.0708H56.451V28H54.7054V18.6943H56.451V22.6045H58.4124V18.6943H60.158ZM71.0597 24.1978C71.0555 24.2824 71.0534 24.3691 71.0534 24.458C71.0534 24.623 71.0618 24.8135 71.0788 25.0293C71.0999 25.2451 71.138 25.4694 71.193 25.7021C71.248 25.9307 71.3157 26.1296 71.3962 26.2988C71.4766 26.4639 71.5675 26.5739 71.6691 26.6289L70.8503 28.1587C70.6852 28.0825 70.5371 27.9852 70.4059 27.8667C70.279 27.744 70.1647 27.6064 70.0631 27.4541C69.9616 27.3018 69.8727 27.1388 69.7965 26.9653C69.7246 26.7918 69.6611 26.6141 69.6061 26.4321C69.3649 26.6903 69.0962 26.9272 68.8 27.1431C68.5037 27.3589 68.1821 27.5472 67.8351 27.708C67.4923 27.8646 67.1263 27.9873 66.737 28.0762C66.3519 28.1693 65.9477 28.2222 65.5246 28.2349C65.4696 28.2349 65.4167 28.2349 65.3659 28.2349C65.0104 28.2349 64.6592 28.1947 64.3122 28.1143C63.9652 28.0381 63.6351 27.9238 63.3219 27.7715C63.013 27.6149 62.7337 27.4329 62.484 27.2256C62.2386 27.014 62.0291 26.7876 61.8556 26.5464C61.6821 26.3052 61.5488 26.0555 61.4557 25.7974C61.3669 25.535 61.3224 25.279 61.3224 25.0293C61.3224 24.6146 61.3901 24.2633 61.5255 23.9756C61.6652 23.6836 61.8429 23.4403 62.0588 23.2456C62.2788 23.0467 62.5242 22.888 62.7951 22.7695C63.0701 22.651 63.3431 22.5601 63.6139 22.4966C63.889 22.4331 64.1471 22.3887 64.3883 22.3633C64.6338 22.3379 64.8369 22.3188 64.9977 22.3062L65.0866 22.2998C65.3447 22.2786 65.6409 22.2617 65.9753 22.249C66.3138 22.2321 66.6693 22.2215 67.0417 22.2173C67.4141 22.2088 67.7928 22.2046 68.1779 22.2046C68.5672 22.2046 68.9417 22.2067 69.3014 22.2109C69.3014 21.9697 69.2189 21.7201 69.0539 21.4619C68.8888 21.1995 68.6624 20.9604 68.3747 20.7446C68.0869 20.5246 67.7441 20.3447 67.3463 20.2051C66.9528 20.0612 66.5275 19.9893 66.0705 19.9893C65.8166 19.9893 65.5542 20.0146 65.2834 20.0654C65.0168 20.1162 64.7438 20.1987 64.4645 20.313C64.1894 20.4272 63.9101 20.5754 63.6266 20.7573C63.3431 20.9351 63.0617 21.153 62.7824 21.4111L61.6652 20.4019C61.9699 20.0591 62.3042 19.765 62.6681 19.5195C63.0363 19.2741 63.4129 19.0731 63.798 18.9165C64.1873 18.7599 64.5745 18.6457 64.9596 18.5737C65.349 18.4976 65.7192 18.4595 66.0705 18.4595C66.6968 18.4595 67.2554 18.5251 67.7463 18.6562C68.2371 18.7874 68.6667 18.9609 69.0348 19.1768C69.4072 19.3883 69.7204 19.6296 69.9743 19.9004C70.2324 20.1712 70.4419 20.4463 70.6027 20.7256C70.7635 21.0049 70.8799 21.2757 70.9518 21.5381C71.0238 21.8005 71.0597 22.0311 71.0597 22.23C71.0597 22.2342 71.0555 22.2363 71.047 22.2363C71.0428 22.2363 71.0407 22.2384 71.0407 22.2427H71.0597V24.1978ZM63.4298 25.8989C63.7388 26.1782 64.0794 26.3835 64.4518 26.5146C64.8242 26.6458 65.2093 26.7114 65.6071 26.7114C66.0387 26.7114 66.4661 26.6395 66.8893 26.4956C67.3125 26.3517 67.6997 26.1486 68.0509 25.8862C68.4064 25.6196 68.709 25.3022 68.9587 24.9341C69.2083 24.5617 69.3734 24.147 69.4538 23.6899C69.0941 23.6857 68.7174 23.6836 68.3239 23.6836C67.9346 23.6836 67.5516 23.6878 67.175 23.6963C66.7983 23.7005 66.4407 23.709 66.1022 23.7217C65.7637 23.7344 65.4674 23.7513 65.2135 23.7725L65.1183 23.7788C64.6909 23.8169 64.3397 23.8656 64.0646 23.9248C63.7895 23.984 63.5716 24.0623 63.4108 24.1597C63.25 24.257 63.1379 24.3776 63.0744 24.5215C63.0109 24.6611 62.9792 24.8304 62.9792 25.0293C62.9792 25.1901 63.0194 25.3424 63.0998 25.4863C63.1844 25.626 63.2944 25.7635 63.4298 25.8989ZM82.8783 18.6943V28H81.2723V21.7729L78.454 28H76.8353V18.6943H78.4413V24.9214L81.2597 18.688L82.8783 18.6943ZM100.473 25.8291C100.19 26.1719 99.8427 26.4914 99.4322 26.7876C99.026 27.0796 98.5753 27.3335 98.0802 27.5493C97.5893 27.7651 97.0646 27.9323 96.506 28.0508C95.9474 28.1735 95.3761 28.2349 94.7921 28.2349C94.1996 28.2349 93.6199 28.1756 93.0528 28.0571C92.49 27.9386 91.9589 27.7715 91.4596 27.5557C90.9602 27.3398 90.5011 27.0817 90.0821 26.7812C89.6632 26.4808 89.3035 26.1507 89.003 25.791C88.7026 25.4271 88.4677 25.0399 88.2984 24.6294C88.1292 24.2147 88.0445 23.7873 88.0445 23.3472C88.0445 22.9071 88.1292 22.4818 88.2984 22.0713C88.4677 21.6566 88.7026 21.2694 89.003 20.9097C89.3035 20.5457 89.6632 20.2135 90.0821 19.9131C90.5011 19.6126 90.9602 19.3545 91.4596 19.1387C91.9589 18.9229 92.49 18.7557 93.0528 18.6372C93.6199 18.5187 94.1996 18.4595 94.7921 18.4595C95.3761 18.4595 95.9474 18.5208 96.506 18.6436C97.0646 18.762 97.5893 18.9292 98.0802 19.145C98.5753 19.3566 99.026 19.6105 99.4322 19.9067C99.8427 20.1987 100.19 20.5161 100.473 20.8589L99.026 21.7412C98.9879 21.6947 98.9223 21.6206 98.8292 21.519C98.7403 21.4132 98.6176 21.2969 98.461 21.1699C98.3045 21.0387 98.114 20.9054 97.8897 20.77C97.6697 20.6304 97.4094 20.5055 97.109 20.3955C96.8128 20.2812 96.4742 20.1882 96.0934 20.1162C95.7167 20.04 95.2957 20.002 94.8302 20.002C94.0261 20.002 93.3194 20.0993 92.7101 20.2939C92.1007 20.4844 91.5886 20.7362 91.1739 21.0493C90.7634 21.3625 90.4524 21.7201 90.2408 22.1221C90.0292 22.5199 89.9213 22.8267 89.9171 23.0425C89.9129 23.2583 89.9107 23.3726 89.9107 23.3853C89.9107 23.7915 90.0081 24.1914 90.2027 24.585C90.4016 24.9785 90.7042 25.3319 91.1105 25.645C91.5167 25.9582 92.0287 26.2121 92.6466 26.4067C93.2687 26.5972 93.9965 26.6924 94.8302 26.6924C95.2999 26.6924 95.7252 26.6543 96.1061 26.5781C96.4869 26.502 96.8276 26.4067 97.128 26.2925C97.4285 26.1782 97.6887 26.0513 97.9088 25.9116C98.1331 25.7677 98.3214 25.6323 98.4737 25.5054C98.6303 25.3784 98.753 25.2642 98.8419 25.1626C98.9308 25.061 98.9921 24.9912 99.026 24.9531L100.473 25.8291ZM103.04 20.2178V22.5728H105.161V24.1025H103.04V26.4575H105.611V27.9937H101.422V18.688L105.611 18.6816V20.2178H103.04ZM115.529 23.9375C115.165 24.2676 114.731 24.5173 114.228 24.6865C113.729 24.8516 113.176 24.9341 112.571 24.9341C112.101 24.9341 111.672 24.8939 111.283 24.8135C110.893 24.7288 110.54 24.6146 110.222 24.4707C109.905 24.3268 109.622 24.1618 109.372 23.9756C109.122 23.7852 108.9 23.5863 108.705 23.3789V28H106.972V18.688H108.705V19.9512C108.718 20.0273 108.735 20.1289 108.756 20.2559C108.782 20.3828 108.815 20.5246 108.858 20.6812C108.904 20.8335 108.961 20.9985 109.029 21.1763C109.101 21.3498 109.188 21.5254 109.289 21.7031C109.962 22.8796 111.056 23.4678 112.571 23.4678C112.994 23.4678 113.373 23.4149 113.707 23.3091C114.042 23.2033 114.323 23.0488 114.552 22.8457C114.734 22.6849 114.871 22.5008 114.964 22.2935C115.062 22.0819 115.11 21.8597 115.11 21.627C115.11 21.4196 115.068 21.2144 114.983 21.0112C114.903 20.8081 114.776 20.6261 114.602 20.4653C114.433 20.3003 114.215 20.1691 113.949 20.0718C113.686 19.9702 113.375 19.9194 113.015 19.9194C112.41 19.9194 111.879 20.0358 111.422 20.2686C110.965 20.4971 110.567 20.8504 110.229 21.3286L109.029 20.478C109.503 19.8094 110.076 19.3058 110.749 18.9673C111.422 18.6245 112.178 18.4531 113.015 18.4531C113.544 18.4531 114.029 18.5335 114.469 18.6943C114.913 18.8551 115.301 19.0942 115.631 19.4116C115.935 19.7078 116.168 20.0464 116.329 20.4272C116.494 20.8039 116.576 21.2038 116.576 21.627C116.576 22.0755 116.488 22.4966 116.31 22.8901C116.132 23.2837 115.872 23.6328 115.529 23.9375ZM122.292 22.5791C122.576 22.7822 122.789 23.0213 122.933 23.2964C123.081 23.5672 123.162 23.7979 123.174 23.9883C123.191 24.1745 123.2 24.3014 123.2 24.3691C123.2 24.6104 123.162 24.8727 123.086 25.1562C123.014 25.4398 122.889 25.7339 122.711 26.0386C122.533 26.3433 122.315 26.631 122.057 26.9019C121.799 27.1727 121.507 27.4097 121.181 27.6128C120.86 27.8159 120.508 27.9767 120.128 28.0952C119.751 28.2137 119.355 28.2729 118.941 28.2729C118.704 28.2729 118.458 28.2306 118.204 28.146C117.95 28.0614 117.713 27.9344 117.493 27.7651C117.278 27.5916 117.089 27.3737 116.928 27.1113C116.772 26.849 116.672 26.5908 116.63 26.3369C116.592 26.0788 116.573 25.8608 116.573 25.6831C116.573 25.4631 116.6 25.1774 116.655 24.8262C116.71 24.4707 116.863 24.0179 117.112 23.4678C117.214 23.2393 117.324 22.9959 117.443 22.7378C117.561 22.4754 117.68 22.2088 117.798 21.938C117.921 21.6672 118.043 21.3984 118.166 21.1318C118.289 20.8652 118.405 20.6092 118.515 20.3638C118.778 19.7882 119.04 19.2127 119.302 18.6372C119.442 18.6118 119.597 18.5885 119.766 18.5674C119.91 18.5462 120.077 18.5293 120.267 18.5166C120.458 18.5039 120.661 18.4976 120.877 18.4976C121.097 18.4976 121.321 18.5081 121.549 18.5293C121.782 18.5505 122.009 18.5885 122.229 18.6436C122.453 18.6986 122.662 18.7726 122.857 18.8657C123.056 18.9588 123.227 19.0794 123.371 19.2275C123.519 19.3714 123.636 19.547 123.72 19.7544C123.809 19.9575 123.854 20.1966 123.854 20.4717C123.854 20.6706 123.809 20.8674 123.72 21.062C123.636 21.2524 123.519 21.4365 123.371 21.6143C123.227 21.792 123.062 21.9634 122.876 22.1284C122.69 22.2892 122.495 22.4395 122.292 22.5791ZM119.099 26.8193C119.328 26.8193 119.552 26.7728 119.772 26.6797C119.996 26.5866 120.206 26.4639 120.401 26.3115C120.595 26.1549 120.771 25.9793 120.927 25.7847C121.084 25.5858 121.213 25.3848 121.315 25.1816C121.42 24.9785 121.486 24.805 121.511 24.6611C121.541 24.5173 121.556 24.4051 121.556 24.3247C121.556 24.2274 121.539 24.1195 121.505 24.001C121.471 23.8825 121.387 23.7767 121.251 23.6836C121.12 23.5905 120.932 23.5439 120.686 23.5439C120.441 23.5439 120.134 23.6011 119.766 23.7153L119.315 22.6807C119.865 22.3971 120.358 22.12 120.794 21.8491C120.98 21.7349 121.16 21.6164 121.334 21.4937C121.511 21.3667 121.668 21.2419 121.803 21.1191C121.943 20.9964 122.055 20.8779 122.14 20.7637C122.224 20.6494 122.267 20.5457 122.267 20.4526C122.267 20.3384 122.22 20.2453 122.127 20.1733C122.038 20.0972 121.924 20.0358 121.784 19.9893C121.649 19.9427 121.499 19.911 121.334 19.894C121.169 19.8729 121.01 19.8623 120.858 19.8623C120.777 19.8623 120.703 19.8644 120.635 19.8687C120.568 19.8729 120.504 19.8792 120.445 19.8877L119.163 22.6362C118.854 23.2795 118.608 23.8592 118.426 24.3755C118.249 24.8918 118.153 25.2515 118.141 25.4546C118.132 25.6535 118.128 25.772 118.128 25.8101C118.128 26.1147 118.2 26.3602 118.344 26.5464C118.492 26.7284 118.744 26.8193 119.099 26.8193ZM130.794 18.6943V28H129.189V21.7729L126.37 28H124.752V18.6943H126.357V24.9214L129.176 18.688L130.794 18.6943ZM138.383 28.0254C137.79 28.0254 137.217 27.9852 136.663 27.9048C136.108 27.8244 135.588 27.7038 135.101 27.543C134.614 27.3779 134.17 27.1706 133.768 26.9209C133.366 26.6712 133.019 26.375 132.727 26.0322C132.439 25.6852 132.215 25.2896 132.054 24.8452C131.893 24.4009 131.813 23.9058 131.813 23.3599C131.813 22.8394 131.893 22.3633 132.054 21.9316C132.215 21.5 132.439 21.1107 132.727 20.7637C133.019 20.4167 133.366 20.1141 133.768 19.856C134.17 19.5936 134.614 19.3757 135.101 19.2021C135.588 19.0286 136.108 18.8996 136.663 18.8149C137.217 18.7261 137.79 18.6816 138.383 18.6816L138.376 20.2432C137.585 20.2474 136.885 20.3405 136.275 20.5225C135.67 20.7002 135.162 20.9351 134.752 21.2271C134.341 21.5148 134.028 21.8449 133.812 22.2173C133.601 22.5854 133.491 22.9642 133.482 23.3535C133.482 23.3704 133.482 23.3874 133.482 23.4043C133.482 23.7767 133.58 24.1449 133.774 24.5088C133.969 24.8727 134.269 25.2007 134.676 25.4927C135.086 25.7847 135.598 26.0216 136.212 26.2036C136.83 26.3856 137.551 26.4787 138.376 26.4829L138.383 28.0254ZM148.77 24.1978C148.766 24.2824 148.764 24.3691 148.764 24.458C148.764 24.623 148.772 24.8135 148.789 25.0293C148.81 25.2451 148.849 25.4694 148.904 25.7021C148.959 25.9307 149.026 26.1296 149.107 26.2988C149.187 26.4639 149.278 26.5739 149.38 26.6289L148.561 28.1587C148.396 28.0825 148.248 27.9852 148.116 27.8667C147.99 27.744 147.875 27.6064 147.774 27.4541C147.672 27.3018 147.583 27.1388 147.507 26.9653C147.435 26.7918 147.372 26.6141 147.317 26.4321C147.075 26.6903 146.807 26.9272 146.511 27.1431C146.214 27.3589 145.893 27.5472 145.546 27.708C145.203 27.8646 144.837 27.9873 144.448 28.0762C144.062 28.1693 143.658 28.2222 143.235 28.2349C143.18 28.2349 143.127 28.2349 143.076 28.2349C142.721 28.2349 142.37 28.1947 142.023 28.1143C141.676 28.0381 141.346 27.9238 141.032 27.7715C140.724 27.6149 140.444 27.4329 140.195 27.2256C139.949 27.014 139.74 26.7876 139.566 26.5464C139.393 26.3052 139.259 26.0555 139.166 25.7974C139.077 25.535 139.033 25.279 139.033 25.0293C139.033 24.6146 139.101 24.2633 139.236 23.9756C139.376 23.6836 139.553 23.4403 139.769 23.2456C139.989 23.0467 140.235 22.888 140.506 22.7695C140.781 22.651 141.054 22.5601 141.324 22.4966C141.6 22.4331 141.858 22.3887 142.099 22.3633C142.344 22.3379 142.547 22.3188 142.708 22.3062L142.797 22.2998C143.055 22.2786 143.351 22.2617 143.686 22.249C144.024 22.2321 144.38 22.2215 144.752 22.2173C145.125 22.2088 145.503 22.2046 145.888 22.2046C146.278 22.2046 146.652 22.2067 147.012 22.2109C147.012 21.9697 146.929 21.7201 146.764 21.4619C146.599 21.1995 146.373 20.9604 146.085 20.7446C145.797 20.5246 145.455 20.3447 145.057 20.2051C144.663 20.0612 144.238 19.9893 143.781 19.9893C143.527 19.9893 143.265 20.0146 142.994 20.0654C142.727 20.1162 142.454 20.1987 142.175 20.313C141.9 20.4272 141.621 20.5754 141.337 20.7573C141.054 20.9351 140.772 21.153 140.493 21.4111L139.376 20.4019C139.68 20.0591 140.015 19.765 140.379 19.5195C140.747 19.2741 141.123 19.0731 141.509 18.9165C141.898 18.7599 142.285 18.6457 142.67 18.5737C143.06 18.4976 143.43 18.4595 143.781 18.4595C144.407 18.4595 144.966 18.5251 145.457 18.6562C145.948 18.7874 146.377 18.9609 146.745 19.1768C147.118 19.3883 147.431 19.6296 147.685 19.9004C147.943 20.1712 148.152 20.4463 148.313 20.7256C148.474 21.0049 148.59 21.2757 148.662 21.5381C148.734 21.8005 148.77 22.0311 148.77 22.23C148.77 22.2342 148.766 22.2363 148.758 22.2363C148.753 22.2363 148.751 22.2384 148.751 22.2427H148.77V24.1978ZM141.14 25.8989C141.449 26.1782 141.79 26.3835 142.162 26.5146C142.535 26.6458 142.92 26.7114 143.318 26.7114C143.749 26.7114 144.177 26.6395 144.6 26.4956C145.023 26.3517 145.41 26.1486 145.761 25.8862C146.117 25.6196 146.42 25.3022 146.669 24.9341C146.919 24.5617 147.084 24.147 147.164 23.6899C146.805 23.6857 146.428 23.6836 146.034 23.6836C145.645 23.6836 145.262 23.6878 144.886 23.6963C144.509 23.7005 144.151 23.709 143.813 23.7217C143.474 23.7344 143.178 23.7513 142.924 23.7725L142.829 23.7788C142.401 23.8169 142.05 23.8656 141.775 23.9248C141.5 23.984 141.282 24.0623 141.121 24.1597C140.961 24.257 140.848 24.3776 140.785 24.5215C140.721 24.6611 140.69 24.8304 140.69 25.0293C140.69 25.1901 140.73 25.3424 140.81 25.4863C140.895 25.626 141.005 25.7635 141.14 25.8989Z" fill="#303030"/>
</svg>
