<svg width="145" height="28" viewBox="0 0 145 28" fill="none" xmlns="http://www.w3.org/2000/svg">
<g clip-path="url(#clip0_33_41)">
<path d="M5.25368 24.0001V12.5001L1.05078 19.0001V24.0001H5.25368Z" fill="white"/>
<path d="M7.35513 9.07481e-05H2.10151V0.500091L13.6595 17.0001L22.0653 5.50009H22.5906V24.0001H27.3189V9.07481e-05H21.0146L13.6595 9.50009L7.35513 9.07481e-05Z" fill="white"/>
<path d="M39.9276 24.0001H34.1486V9.07481e-05H38.3515V18.0001H38.8769L51.4856 9.07481e-05H56.7392V24.0001H52.5363V6.50009H52.0109L39.9276 24.0001Z" fill="white"/>
<path fill-rule="evenodd" clip-rule="evenodd" d="M60.9421 20.5001V27.5001H65.145V24.0001H85.6341V27.5001H89.837V20.5001H85.6341V9.07481e-05H66.7211C66.8962 5.33342 66.5109 16.9001 63.5689 20.5001H60.9421ZM81.4312 20.5001H68.8225C70.5037 18.1001 71.2742 8.50009 71.4493 4.00009H81.4312V20.5001Z" fill="white"/>
<path d="M94.0399 9.07481e-05V24.0001H99.8189L111.902 7.00009H112.428V24.0001H117.156V9.07481e-05H111.377L99.2935 18.0001H98.7682V9.07481e-05H94.0399Z" fill="white"/>
<path d="M144.475 19.0001C139.746 25.0001 121.884 27.5001 120.833 12.0001C120.308 3.50009 132.917 -6.49991 144.475 5.50009L140.797 7.50009C132.917 -0.999908 124.511 6.50009 125.036 12.0001C126.14 23.5499 138.17 20.5001 140.797 16.5001L144.475 19.0001Z" fill="white"/>
</g>
<defs>
<clipPath id="clip0_33_41">
<rect width="145" height="28" fill="white"/>
</clipPath>
</defs>
</svg>
