<svg width="751" height="48" viewBox="0 0 751 48" fill="none" xmlns="http://www.w3.org/2000/svg">
<path d="M25.8906 3.05078V46H17.834V27.8652H8.78125V46H0.724609V3.05078H8.78125V21.0977H17.834V3.05078H25.8906ZM76.2062 28.4512C76.1867 28.8418 76.177 29.2422 76.177 29.6523C76.177 30.4141 76.216 31.293 76.2941 32.2891C76.3918 33.2852 76.5676 34.3203 76.8215 35.3945C77.0754 36.4492 77.3879 37.3672 77.759 38.1484C78.1301 38.9102 78.55 39.418 79.0187 39.6719L75.2395 46.7324C74.4777 46.3809 73.7941 45.9316 73.1887 45.3848C72.6027 44.8184 72.0754 44.1836 71.6066 43.4805C71.1379 42.7773 70.7277 42.0254 70.3762 41.2246C70.0441 40.4238 69.7512 39.6035 69.4973 38.7637C68.384 39.9551 67.1437 41.0488 65.7766 42.0449C64.4094 43.041 62.925 43.9102 61.3234 44.6523C59.7414 45.375 58.052 45.9414 56.2551 46.3516C54.4777 46.7812 52.6125 47.0254 50.6594 47.084C50.4055 47.084 50.1613 47.084 49.927 47.084C48.2863 47.084 46.6652 46.8984 45.0637 46.5273C43.4621 46.1758 41.9387 45.6484 40.4934 44.9453C39.0676 44.2227 37.7785 43.3828 36.6262 42.4258C35.4934 41.4492 34.5266 40.4043 33.7258 39.291C32.925 38.1777 32.3098 37.0254 31.8801 35.834C31.4699 34.623 31.2648 33.4414 31.2648 32.2891C31.2648 30.375 31.5773 28.7539 32.2023 27.4258C32.8469 26.0781 33.6672 24.9551 34.6633 24.0566C35.6789 23.1387 36.8117 22.4062 38.0617 21.8594C39.3312 21.3125 40.591 20.8926 41.841 20.5996C43.1105 20.3066 44.302 20.1016 45.4152 19.9844C46.548 19.8672 47.4855 19.7793 48.2277 19.7207L48.6379 19.6914C49.8293 19.5938 51.1965 19.5156 52.7395 19.457C54.302 19.3789 55.9426 19.3301 57.6613 19.3105C59.3801 19.2715 61.1281 19.252 62.9055 19.252C64.7023 19.252 66.4309 19.2617 68.091 19.2812C68.091 18.168 67.7102 17.0156 66.9484 15.8242C66.1867 14.6133 65.1418 13.5098 63.8137 12.5137C62.4855 11.498 60.9035 10.668 59.0676 10.0234C57.2512 9.35937 55.2883 9.02734 53.1789 9.02734C52.007 9.02734 50.7961 9.14453 49.5461 9.37891C48.3156 9.61328 47.0559 9.99414 45.7668 10.5215C44.4973 11.0488 43.2082 11.7324 41.8996 12.5723C40.591 13.3926 39.2922 14.3984 38.0031 15.5898L32.8469 10.9316C34.2531 9.34961 35.7961 7.99219 37.4758 6.85938C39.175 5.72656 40.9133 4.79883 42.6906 4.07617C44.4875 3.35352 46.2746 2.82617 48.052 2.49414C49.8488 2.14258 51.5578 1.9668 53.1789 1.9668C56.0695 1.9668 58.6477 2.26953 60.9133 2.875C63.1789 3.48047 65.1613 4.28125 66.8605 5.27734C68.5793 6.25391 70.0246 7.36719 71.1965 8.61719C72.3879 9.86719 73.3547 11.1367 74.0969 12.4258C74.8391 13.7148 75.3762 14.9648 75.7082 16.1758C76.0402 17.3867 76.2062 18.4512 76.2062 19.3691C76.2062 19.3887 76.1867 19.3984 76.1477 19.3984C76.1281 19.3984 76.1184 19.4082 76.1184 19.4277H76.2062V28.4512ZM40.9914 36.3027C42.4172 37.5918 43.9895 38.5391 45.7082 39.1445C47.427 39.75 49.2043 40.0527 51.0402 40.0527C53.0324 40.0527 55.0051 39.7207 56.9582 39.0566C58.9113 38.3926 60.6984 37.4551 62.3195 36.2441C63.9602 35.0137 65.3566 33.5488 66.509 31.8496C67.6613 30.1309 68.423 28.2168 68.7941 26.1074C67.134 26.0879 65.3957 26.0781 63.5793 26.0781C61.7824 26.0781 60.0148 26.0977 58.2766 26.1367C56.5383 26.1562 54.8879 26.1953 53.3254 26.2539C51.7629 26.3125 50.3957 26.3906 49.2238 26.4883L48.7844 26.5176C46.8117 26.6934 45.1906 26.918 43.9211 27.1914C42.6516 27.4648 41.6457 27.8262 40.9035 28.2754C40.1613 28.7246 39.6437 29.2812 39.3508 29.9453C39.0578 30.5898 38.9113 31.3711 38.9113 32.2891C38.9113 33.0312 39.0969 33.7344 39.468 34.3984C39.8586 35.043 40.3664 35.6777 40.9914 36.3027ZM91.3656 3.05078V9.55469C93.1039 7.97266 94.8129 6.61523 96.4926 5.48242C98.1918 4.34961 99.852 3.42188 101.473 2.69922C103.114 1.97656 104.705 1.44922 106.248 1.11719C107.791 0.765625 109.276 0.589844 110.702 0.589844C112.811 0.589844 114.774 0.931641 116.59 1.61523C118.407 2.29883 120.008 3.25586 121.395 4.48633C122.782 5.7168 123.934 7.18164 124.852 8.88086C125.77 10.5605 126.385 12.4062 126.698 14.418C126.912 15.8242 127.069 17.2012 127.166 18.5488C127.284 19.877 127.362 21.0684 127.401 22.123C127.44 23.0605 127.459 23.959 127.459 24.8184V46H119.022V22.0938C119.022 19.2227 118.787 16.8203 118.319 14.8867C117.87 12.9531 117.245 11.4004 116.444 10.2285C115.662 9.03711 114.735 8.19727 113.661 7.70898C112.606 7.20117 111.463 6.94727 110.233 6.94727C108.944 6.94727 107.596 7.18164 106.19 7.65039C104.803 8.09961 103.436 8.68555 102.088 9.4082C100.741 10.1113 99.4418 10.8926 98.1918 11.752C96.9613 12.6113 95.8578 13.4316 94.8812 14.2129C93.9242 14.9941 93.1332 15.6973 92.5082 16.3223C91.8832 16.9277 91.5023 17.3477 91.3656 17.582V46H83.4262V3.05078H91.3656ZM173.175 27.25C171.496 28.7734 169.494 29.9258 167.17 30.707C164.865 31.4688 162.316 31.8496 159.523 31.8496C157.355 31.8496 155.373 31.6641 153.576 31.293C151.779 30.9023 150.148 30.375 148.683 29.7109C147.218 29.0469 145.91 28.2852 144.757 27.4258C143.605 26.5469 142.58 25.6289 141.681 24.6719V46H133.683V3.02148H141.681V8.85156C141.74 9.20312 141.818 9.67188 141.916 10.2578C142.033 10.8438 142.189 11.498 142.384 12.2207C142.599 12.9238 142.863 13.6855 143.175 14.5059C143.507 15.3066 143.908 16.1172 144.377 16.9375C147.482 22.3672 152.531 25.082 159.523 25.082C161.476 25.082 163.224 24.8379 164.767 24.3496C166.31 23.8613 167.609 23.1484 168.664 22.2109C169.504 21.4688 170.138 20.6191 170.568 19.6621C171.017 18.6855 171.242 17.6602 171.242 16.5859C171.242 15.6289 171.046 14.6816 170.656 13.7441C170.285 12.8066 169.699 11.9668 168.898 11.2246C168.117 10.4629 167.111 9.85742 165.88 9.4082C164.67 8.93945 163.234 8.70508 161.574 8.70508C158.781 8.70508 156.33 9.24219 154.22 10.3164C152.111 11.3711 150.275 13.002 148.712 15.209L143.175 11.2832C145.363 8.19727 148.009 5.87305 151.115 4.31055C154.22 2.72852 157.707 1.9375 161.574 1.9375C164.015 1.9375 166.252 2.30859 168.283 3.05078C170.334 3.79297 172.121 4.89648 173.644 6.36133C175.05 7.72852 176.125 9.29102 176.867 11.0488C177.629 12.7871 178.009 14.6328 178.009 16.5859C178.009 18.6562 177.599 20.5996 176.779 22.416C175.959 24.2324 174.757 25.8438 173.175 27.25ZM225.044 28.4512C225.024 28.8418 225.014 29.2422 225.014 29.6523C225.014 30.4141 225.054 31.293 225.132 32.2891C225.229 33.2852 225.405 34.3203 225.659 35.3945C225.913 36.4492 226.225 37.3672 226.596 38.1484C226.968 38.9102 227.387 39.418 227.856 39.6719L224.077 46.7324C223.315 46.3809 222.632 45.9316 222.026 45.3848C221.44 44.8184 220.913 44.1836 220.444 43.4805C219.975 42.7773 219.565 42.0254 219.214 41.2246C218.882 40.4238 218.589 39.6035 218.335 38.7637C217.221 39.9551 215.981 41.0488 214.614 42.0449C213.247 43.041 211.762 43.9102 210.161 44.6523C208.579 45.375 206.889 45.9414 205.093 46.3516C203.315 46.7812 201.45 47.0254 199.497 47.084C199.243 47.084 198.999 47.084 198.764 47.084C197.124 47.084 195.503 46.8984 193.901 46.5273C192.3 46.1758 190.776 45.6484 189.331 44.9453C187.905 44.2227 186.616 43.3828 185.464 42.4258C184.331 41.4492 183.364 40.4043 182.563 39.291C181.762 38.1777 181.147 37.0254 180.718 35.834C180.307 34.623 180.102 33.4414 180.102 32.2891C180.102 30.375 180.415 28.7539 181.04 27.4258C181.684 26.0781 182.505 24.9551 183.501 24.0566C184.516 23.1387 185.649 22.4062 186.899 21.8594C188.169 21.3125 189.429 20.8926 190.679 20.5996C191.948 20.3066 193.139 20.1016 194.253 19.9844C195.386 19.8672 196.323 19.7793 197.065 19.7207L197.475 19.6914C198.667 19.5938 200.034 19.5156 201.577 19.457C203.139 19.3789 204.78 19.3301 206.499 19.3105C208.218 19.2715 209.966 19.252 211.743 19.252C213.54 19.252 215.268 19.2617 216.929 19.2812C216.929 18.168 216.548 17.0156 215.786 15.8242C215.024 14.6133 213.979 13.5098 212.651 12.5137C211.323 11.498 209.741 10.668 207.905 10.0234C206.089 9.35937 204.126 9.02734 202.016 9.02734C200.845 9.02734 199.634 9.14453 198.384 9.37891C197.153 9.61328 195.893 9.99414 194.604 10.5215C193.335 11.0488 192.046 11.7324 190.737 12.5723C189.429 13.3926 188.13 14.3984 186.841 15.5898L181.684 10.9316C183.091 9.34961 184.634 7.99219 186.313 6.85938C188.012 5.72656 189.751 4.79883 191.528 4.07617C193.325 3.35352 195.112 2.82617 196.889 2.49414C198.686 2.14258 200.395 1.9668 202.016 1.9668C204.907 1.9668 207.485 2.26953 209.751 2.875C212.016 3.48047 213.999 4.28125 215.698 5.27734C217.417 6.25391 218.862 7.36719 220.034 8.61719C221.225 9.86719 222.192 11.1367 222.934 12.4258C223.677 13.7148 224.214 14.9648 224.546 16.1758C224.878 17.3867 225.044 18.4512 225.044 19.3691C225.044 19.3887 225.024 19.3984 224.985 19.3984C224.966 19.3984 224.956 19.4082 224.956 19.4277H225.044V28.4512ZM189.829 36.3027C191.255 37.5918 192.827 38.5391 194.546 39.1445C196.264 39.75 198.042 40.0527 199.878 40.0527C201.87 40.0527 203.843 39.7207 205.796 39.0566C207.749 38.3926 209.536 37.4551 211.157 36.2441C212.798 35.0137 214.194 33.5488 215.346 31.8496C216.499 30.1309 217.261 28.2168 217.632 26.1074C215.971 26.0879 214.233 26.0781 212.417 26.0781C210.62 26.0781 208.852 26.0977 207.114 26.1367C205.376 26.1562 203.725 26.1953 202.163 26.2539C200.6 26.3125 199.233 26.3906 198.061 26.4883L197.622 26.5176C195.649 26.6934 194.028 26.918 192.759 27.1914C191.489 27.4648 190.483 27.8262 189.741 28.2754C188.999 28.7246 188.481 29.2812 188.188 29.9453C187.895 30.5898 187.749 31.3711 187.749 32.2891C187.749 33.0312 187.934 33.7344 188.305 34.3984C188.696 35.043 189.204 35.6777 189.829 36.3027ZM257.342 20.9805C258.65 21.918 259.637 23.0215 260.301 24.291C260.984 25.541 261.355 26.6055 261.414 27.4844C261.492 28.3438 261.531 28.9297 261.531 29.2422C261.531 30.3555 261.355 31.5664 261.004 32.875C260.672 34.1836 260.096 35.541 259.275 36.9473C258.455 38.3535 257.449 39.6816 256.258 40.9316C255.066 42.1816 253.719 43.2754 252.215 44.2129C250.73 45.1504 249.109 45.8926 247.352 46.4395C245.613 46.9863 243.787 47.2598 241.873 47.2598C240.779 47.2598 239.646 47.0645 238.475 46.6738C237.303 46.2832 236.209 45.6973 235.193 44.916C234.197 44.1152 233.328 43.1094 232.586 41.8984C231.863 40.6875 231.404 39.4961 231.209 38.3242C231.033 37.1328 230.945 36.127 230.945 35.3066C230.945 34.291 231.072 32.9727 231.326 31.3516C231.58 29.7109 232.283 27.6211 233.436 25.082C233.904 24.0273 234.412 22.9043 234.959 21.7129C235.506 20.502 236.053 19.2715 236.6 18.0215C237.166 16.7715 237.732 15.5312 238.299 14.3008C238.865 13.0703 239.402 11.8887 239.91 10.7559C241.121 8.09961 242.332 5.44336 243.543 2.78711C244.188 2.66992 244.9 2.5625 245.682 2.46484C246.346 2.36719 247.117 2.28906 247.996 2.23047C248.875 2.17188 249.812 2.14258 250.809 2.14258C251.824 2.14258 252.859 2.19141 253.914 2.28906C254.988 2.38672 256.033 2.5625 257.049 2.81641C258.084 3.07031 259.051 3.41211 259.949 3.8418C260.867 4.27148 261.658 4.82813 262.322 5.51172C263.006 6.17578 263.543 6.98633 263.934 7.94336C264.344 8.88086 264.549 9.98438 264.549 11.2539C264.549 12.1719 264.344 13.0801 263.934 13.9785C263.543 14.8574 263.006 15.707 262.322 16.5273C261.658 17.3477 260.896 18.1387 260.037 18.9004C259.178 19.6426 258.279 20.3359 257.342 20.9805ZM242.605 40.5508C243.66 40.5508 244.695 40.3359 245.711 39.9062C246.746 39.4766 247.713 38.9102 248.611 38.207C249.51 37.4844 250.32 36.6738 251.043 35.7754C251.766 34.8574 252.361 33.9297 252.83 32.9922C253.318 32.0547 253.621 31.2539 253.738 30.5898C253.875 29.9258 253.943 29.4082 253.943 29.0371C253.943 28.5879 253.865 28.0898 253.709 27.543C253.553 26.9961 253.162 26.5078 252.537 26.0781C251.932 25.6484 251.062 25.4336 249.93 25.4336C248.797 25.4336 247.381 25.6973 245.682 26.2246L243.602 21.4492C246.141 20.1406 248.416 18.8613 250.428 17.6113C251.287 17.084 252.117 16.5371 252.918 15.9707C253.738 15.3848 254.461 14.8086 255.086 14.2422C255.73 13.6758 256.248 13.1289 256.639 12.6016C257.029 12.0742 257.225 11.5957 257.225 11.166C257.225 10.6387 257.01 10.209 256.58 9.87695C256.17 9.52539 255.643 9.24219 254.998 9.02734C254.373 8.8125 253.68 8.66602 252.918 8.58789C252.156 8.49023 251.424 8.44141 250.721 8.44141C250.35 8.44141 250.008 8.45117 249.695 8.4707C249.383 8.49023 249.09 8.51953 248.816 8.55859L242.898 21.2441C241.473 24.2129 240.34 26.8887 239.5 29.2715C238.68 31.6543 238.24 33.3145 238.182 34.252C238.143 35.1699 238.123 35.7168 238.123 35.8926C238.123 37.2988 238.455 38.4316 239.119 39.291C239.803 40.1309 240.965 40.5508 242.605 40.5508ZM316.505 3.02148V46H308.068V10.6094C305.958 11.2148 303.634 11.9375 301.095 12.7773C298.575 13.5977 295.831 14.6816 292.862 16.0293C291.32 16.7324 289.747 17.5137 288.146 18.373C286.544 19.2129 284.991 20.1309 283.487 21.127C281.984 22.123 280.568 23.1875 279.239 24.3203C277.911 25.4336 276.749 26.625 275.753 27.8945C274.777 29.1445 273.995 30.4629 273.409 31.8496C272.843 33.2363 272.56 34.6816 272.56 36.1855C272.56 37.123 272.706 37.8652 272.999 38.4121C273.312 38.9395 273.673 39.3398 274.083 39.6133C274.493 39.8672 274.923 40.0332 275.372 40.1113C275.821 40.1699 276.193 40.1992 276.486 40.1992V47.1426C276.154 47.1426 275.626 47.0938 274.904 46.9961C274.181 46.918 273.38 46.752 272.501 46.498C271.622 46.2441 270.714 45.873 269.777 45.3848C268.859 44.8965 268.009 44.252 267.228 43.4512C266.466 42.6309 265.841 41.6348 265.353 40.4629C264.864 39.2715 264.62 37.8457 264.62 36.1855C264.62 33.9004 265.04 31.7324 265.88 29.6816C266.72 27.6113 267.862 25.668 269.308 23.8516C270.753 22.0352 272.452 20.3359 274.405 18.7539C276.378 17.1523 278.487 15.668 280.734 14.3008C282.999 12.9336 285.353 11.6836 287.794 10.5508C290.236 9.39844 292.657 8.35352 295.06 7.41602C297.462 6.47852 299.786 5.64844 302.032 4.92578C304.298 4.18359 306.378 3.54883 308.273 3.02148H316.505ZM331.43 10.082V20.9512H341.215V28.0117H331.43V38.8809H343.295V45.9707H323.959V3.02148L343.295 2.99219V10.082H331.43ZM375.271 3.05078V46H367.214V27.8652H358.162V46H350.105V3.05078H358.162V21.0977H367.214V3.05078H375.271ZM409.854 3.05078V46H402.442V17.2598L389.434 46H381.964V3.05078H389.376V31.791L402.384 3.02148L409.854 3.05078ZM437.084 2.08398C438.686 2.08398 440.248 2.35742 441.771 2.9043C443.295 3.43164 444.682 4.21289 445.932 5.24805C447.182 6.2832 448.256 7.55273 449.154 9.05664C450.053 10.541 450.619 11.9961 450.854 13.4219C451.088 14.8281 451.205 16.0293 451.205 17.0254C451.205 18.1387 451.068 19.584 450.795 21.3613C450.521 23.1387 449.779 25.3652 448.568 28.041L445.697 34.3691C445.229 35.4043 444.77 36.4102 444.32 37.3867C443.871 38.3633 443.451 39.2812 443.061 40.1406C442.143 42.1719 441.254 44.125 440.395 46H432.074L440.541 27.8066C441.967 24.8574 442.777 22.5918 442.973 21.0098C443.168 19.4082 443.266 18.2363 443.266 17.4941C443.266 16.127 443.051 14.7695 442.621 13.4219C442.191 12.0547 441.4 10.9316 440.248 10.0527C439.096 9.17383 437.797 8.73438 436.352 8.73438C434.926 8.73438 433.666 9.07617 432.572 9.75977C431.479 10.4434 430.58 11.293 429.877 12.3086C429.193 13.3242 428.754 14.291 428.559 15.209C428.363 16.1074 428.266 16.8496 428.266 17.4355C428.266 17.9629 428.354 18.6074 428.529 19.3691C428.705 20.1113 429.174 20.8242 429.936 21.5078C430.717 22.1914 431.781 22.5332 433.129 22.5332C434.008 22.5332 434.975 22.377 436.029 22.0645L437.846 26.1367L419.945 46H411.391L427.562 27.5723C426.508 27.3965 425.541 26.9277 424.662 26.166C423.783 25.4043 423.041 24.457 422.436 23.3242C421.85 22.1719 421.469 21.0684 421.293 20.0137C421.117 18.9395 421.029 18.0508 421.029 17.3477C421.029 16.5664 421.127 15.5898 421.322 14.418C421.518 13.2461 422.016 11.8887 422.816 10.3457C423.617 8.7832 424.75 7.31836 426.215 5.95117C427.934 4.56445 429.682 3.57812 431.459 2.99219C433.256 2.38672 435.131 2.08398 437.084 2.08398ZM492.129 2.81641C493.711 2.81641 495.293 3.03125 496.875 3.46094C498.457 3.89063 499.971 4.52539 501.416 5.36523C502.881 6.20508 504.239 7.25 505.489 8.5C506.739 9.73047 507.823 11.1465 508.741 12.748C509.659 14.3496 510.381 16.1465 510.909 18.1387C511.436 20.1113 511.7 22.25 511.7 24.5547C511.7 26.8984 511.436 29.0664 510.909 31.0586C510.381 33.0508 509.659 34.8477 508.741 36.4492C507.823 38.0508 506.739 39.4668 505.489 40.6973C504.239 41.9277 502.881 42.9531 501.416 43.7734C499.971 44.5938 498.457 45.2188 496.875 45.6484C495.293 46.0586 493.711 46.2637 492.129 46.2637C490.547 46.2637 488.955 46.0586 487.354 45.6484C485.772 45.2188 484.248 44.5938 482.784 43.7734C481.338 42.9531 479.991 41.9277 478.741 40.6973C477.491 39.4668 476.407 38.0508 475.489 36.4492C474.571 34.8477 473.848 33.0508 473.321 31.0586C472.793 29.0664 472.53 26.8984 472.53 24.5547C472.53 22.2305 472.793 20.082 473.321 18.1094C473.848 16.1367 474.571 14.3496 475.489 12.748C476.407 11.1465 477.491 9.73047 478.741 8.5C479.991 7.25 481.338 6.20508 482.784 5.36523C484.248 4.52539 485.772 3.89063 487.354 3.46094C488.955 3.03125 490.547 2.81641 492.129 2.81641ZM492.129 40.2285C493.672 40.209 495.137 39.8672 496.524 39.2031C497.911 38.5195 499.121 37.5234 500.157 36.2148C501.211 34.8867 502.041 33.2559 502.647 31.3223C503.272 29.3691 503.584 27.1133 503.584 24.5547C503.584 21.9766 503.272 19.7207 502.647 17.7871C502.041 15.834 501.211 14.2031 500.157 12.8945C499.121 11.5859 497.911 10.5996 496.524 9.93555C495.137 9.25195 493.672 8.90039 492.129 8.88086C490.586 8.90039 489.112 9.25195 487.705 9.93555C486.319 10.5996 485.098 11.5859 484.043 12.8945C482.989 14.2031 482.149 15.834 481.524 17.7871C480.899 19.7207 480.586 21.9766 480.586 24.5547C480.586 27.1133 480.899 29.3691 481.524 31.3223C482.149 33.2559 482.989 34.8867 484.043 36.2148C485.098 37.5234 486.319 38.5195 487.705 39.2031C489.112 39.8672 490.586 40.209 492.129 40.2285ZM555.863 21.7715C557.425 23.1777 558.617 24.7988 559.437 26.6348C560.277 28.4512 560.697 30.3945 560.697 32.4648C560.697 34.418 560.316 36.2734 559.554 38.0312C558.812 39.7695 557.738 41.3125 556.332 42.6602C554.808 44.125 553.021 45.2383 550.97 46C548.939 46.7422 546.703 47.1133 544.261 47.1133C540.394 47.1133 536.908 46.3223 533.802 44.7402C530.697 43.1582 528.05 40.8242 525.863 37.7383L531.4 33.8418C532.963 36.0293 534.798 37.6602 536.908 38.7344C539.017 39.8086 541.468 40.3457 544.261 40.3457C545.922 40.3457 547.357 40.1113 548.568 39.6426C549.798 39.1738 550.804 38.5684 551.586 37.8262C552.386 37.084 552.972 36.2441 553.343 35.3066C553.734 34.3496 553.929 33.4023 553.929 32.4648C553.929 31.3711 553.705 30.3457 553.255 29.3887C552.826 28.4121 552.191 27.5527 551.351 26.8105C550.297 25.873 548.998 25.1602 547.455 24.6719C545.912 24.1836 544.164 23.9395 542.211 23.9395C535.238 23.9395 530.189 26.6543 527.064 32.084C526.595 32.9043 526.195 33.7246 525.863 34.5449C525.55 35.3457 525.287 36.1074 525.072 36.8301C524.877 37.5332 524.72 38.1777 524.603 38.7637C524.505 39.3496 524.427 39.8184 524.369 40.1699V46H517.103V3.02148L545.287 3.05078C545.443 3.05078 545.599 3.05078 545.755 3.05078C546.38 3.05078 547.142 3.02148 548.041 2.96289C548.939 2.88477 549.896 2.74805 550.912 2.55273C551.947 2.33789 552.914 2.05469 553.812 1.70312C554.73 1.33203 555.472 0.882812 556.039 0.355469L560.697 5.30664C559.974 5.99023 559.164 6.58594 558.265 7.09375C557.367 7.58203 556.439 7.99219 555.482 8.32422C554.525 8.65625 553.558 8.91992 552.582 9.11523C551.625 9.31055 550.716 9.4668 549.857 9.58398C548.998 9.68164 548.216 9.75 547.513 9.78906C546.83 9.80859 546.263 9.81836 545.814 9.81836H524.369V24.3496C525.267 23.373 526.293 22.4551 527.445 21.5957C528.597 20.7363 529.906 19.9746 531.371 19.3105C532.836 18.6465 534.466 18.1289 536.263 17.7578C538.06 17.3672 540.043 17.1719 542.211 17.1719C545.004 17.1719 547.552 17.5625 549.857 18.3438C552.181 19.1055 554.183 20.248 555.863 21.7715ZM587.429 29.418C587.429 32.9531 587.194 35.8828 586.725 38.207C586.257 40.5312 585.563 42.3867 584.645 43.7734C583.747 45.1406 582.614 46.1074 581.247 46.6738C579.899 47.2402 578.337 47.5234 576.559 47.5234C574.958 47.5234 573.542 47.2891 572.311 46.8203C571.1 46.3516 570.055 45.7363 569.177 44.9746C568.298 44.2129 567.565 43.3633 566.979 42.4258C566.393 41.4883 565.925 40.5508 565.573 39.6133C565.221 38.6758 564.977 37.7871 564.841 36.9473C564.704 36.1074 564.636 35.4141 564.636 34.8672H571.608C571.608 37.0547 572.038 38.7148 572.897 39.8477C573.776 40.9609 574.899 41.5176 576.266 41.5176C577.048 41.5176 577.682 41.2734 578.171 40.7852C578.659 40.2773 579.04 39.5547 579.313 38.6172C579.606 37.6797 579.802 36.5566 579.899 35.248C579.997 33.9199 580.046 32.4355 580.046 30.7949V30.7363C579.382 30.834 578.747 30.9121 578.141 30.9707C577.555 31.0293 576.989 31.0586 576.442 31.0586C574.138 31.0586 572.214 30.6582 570.671 29.8574C569.128 29.0566 567.888 28.002 566.95 26.6934C566.013 25.3652 565.319 23.8711 564.87 22.2109C564.44 20.5312 564.177 18.8125 564.079 17.0547C564.04 16.3906 564.02 15.7168 564.02 15.0332C564.02 11.4395 564.538 7.44531 565.573 3.05078H573.102C572.145 7.17188 571.638 10.8438 571.579 14.0664C571.579 14.2031 571.579 14.3496 571.579 14.5059C571.579 15.7168 571.657 16.957 571.813 18.2266C571.97 19.4766 572.282 20.6191 572.751 21.6543C573.239 22.6699 573.903 23.5 574.743 24.1445C575.602 24.7695 576.696 25.082 578.024 25.082C578.591 25.082 579.264 25.0039 580.046 24.8477V3.05078H587.429V29.418ZM610.615 40.3164C611.475 40.3164 612.354 40.1992 613.252 39.9648C614.17 39.7109 614.941 39.3691 615.566 38.9395L618.818 44.7695C617.49 45.5508 616.113 46.1074 614.688 46.4395C613.262 46.791 611.807 46.9668 610.322 46.9668C609.229 46.9668 608.096 46.7715 606.924 46.3809C605.752 46.0098 604.648 45.4336 603.613 44.6523C602.598 43.8516 601.699 42.8555 600.918 41.6641C600.137 40.4727 599.639 39.2812 599.424 38.0898C599.209 36.8789 599.102 35.834 599.102 34.9551C599.102 33.998 599.219 32.7383 599.453 31.1758C599.688 29.6133 600.361 27.5723 601.475 25.0527C601.982 23.9395 602.52 22.7188 603.086 21.3906C603.672 20.0625 604.268 18.7148 604.873 17.3477C605.479 15.9609 606.074 14.5938 606.66 13.2461C607.266 11.8789 607.832 10.6289 608.359 9.49609H599.6V15.4727H593.154V3.05078H617.031V9.17383L610.938 21.2441C609.473 24.1543 608.359 26.791 607.598 29.1543C606.836 31.498 606.445 33.0996 606.426 33.959C606.406 34.8184 606.396 35.2773 606.396 35.3359C606.396 36.8984 606.738 38.1191 607.422 38.998C608.105 39.877 609.17 40.3164 610.615 40.3164ZM631.107 10.082V20.9512H640.892V28.0117H631.107V38.8809H642.972V45.9707H623.636V3.02148L642.972 2.99219V10.082H631.107ZM674.948 3.05078V46H666.891V27.8652H657.838V46H649.782V3.05078H657.838V21.0977H666.891V3.05078H674.948ZM709.531 3.05078V46H702.119V17.2598L689.111 46H681.64V3.05078H689.052V31.791L702.06 3.02148L709.531 3.05078ZM736.761 2.08398C738.362 2.08398 739.925 2.35742 741.448 2.9043C742.971 3.43164 744.358 4.21289 745.608 5.24805C746.858 6.2832 747.932 7.55273 748.831 9.05664C749.729 10.541 750.296 11.9961 750.53 13.4219C750.764 14.8281 750.882 16.0293 750.882 17.0254C750.882 18.1387 750.745 19.584 750.471 21.3613C750.198 23.1387 749.456 25.3652 748.245 28.041L745.374 34.3691C744.905 35.4043 744.446 36.4102 743.997 37.3867C743.548 38.3633 743.128 39.2812 742.737 40.1406C741.819 42.1719 740.93 44.125 740.071 46H731.751L740.218 27.8066C741.643 24.8574 742.454 22.5918 742.649 21.0098C742.845 19.4082 742.942 18.2363 742.942 17.4941C742.942 16.127 742.727 14.7695 742.298 13.4219C741.868 12.0547 741.077 10.9316 739.925 10.0527C738.772 9.17383 737.473 8.73438 736.028 8.73438C734.602 8.73438 733.343 9.07617 732.249 9.75977C731.155 10.4434 730.257 11.293 729.554 12.3086C728.87 13.3242 728.43 14.291 728.235 15.209C728.04 16.1074 727.942 16.8496 727.942 17.4355C727.942 17.9629 728.03 18.6074 728.206 19.3691C728.382 20.1113 728.85 20.8242 729.612 21.5078C730.393 22.1914 731.458 22.5332 732.805 22.5332C733.684 22.5332 734.651 22.377 735.706 22.0645L737.522 26.1367L719.622 46H711.067L727.239 27.5723C726.184 27.3965 725.218 26.9277 724.339 26.166C723.46 25.4043 722.718 24.457 722.112 23.3242C721.526 22.1719 721.145 21.0684 720.97 20.0137C720.794 18.9395 720.706 18.0508 720.706 17.3477C720.706 16.5664 720.804 15.5898 720.999 14.418C721.194 13.2461 721.692 11.8887 722.493 10.3457C723.294 8.7832 724.427 7.31836 725.891 5.95117C727.61 4.56445 729.358 3.57812 731.136 2.99219C732.932 2.38672 734.807 2.08398 736.761 2.08398Z" fill="#303030"/>
</svg>
