<svg width="411" height="47" viewBox="0 0 411 47" fill="none" xmlns="http://www.w3.org/2000/svg">
<path d="M58.0078 34.9805C56.6992 36.5625 55.0977 38.0371 53.2031 39.4043C51.3281 40.752 49.248 41.9238 46.9629 42.9199C44.6973 43.916 42.2754 44.6875 39.6973 45.2344C37.1191 45.8008 34.4824 46.084 31.7871 46.084C29.0527 46.084 26.377 45.8105 23.7598 45.2637C21.1621 44.7168 18.7109 43.9453 16.4062 42.9492C14.1016 41.9531 11.9824 40.7617 10.0488 39.375C8.11523 37.9883 6.45508 36.4648 5.06836 34.8047C3.68164 33.125 2.59766 31.3379 1.81641 29.4434C1.03516 27.5293 0.644531 25.5566 0.644531 23.5254C0.644531 21.4941 1.03516 19.5312 1.81641 17.6367C2.59766 15.7227 3.68164 13.9355 5.06836 12.2754C6.45508 10.5957 8.11523 9.0625 10.0488 7.67578C11.9824 6.28906 14.1016 5.09766 16.4062 4.10156C18.7109 3.10547 21.1621 2.33398 23.7598 1.78711C26.377 1.24023 29.0527 0.966797 31.7871 0.966797C34.4824 0.966797 37.1191 1.25 39.6973 1.81641C42.2754 2.36328 44.6973 3.13477 46.9629 4.13086C49.248 5.10742 51.3281 6.2793 53.2031 7.64648C55.0977 8.99414 56.6992 10.459 58.0078 12.041L51.3281 16.1133C51.1523 15.8984 50.8496 15.5566 50.4199 15.0879C50.0098 14.5996 49.4434 14.0625 48.7207 13.4766C47.998 12.8711 47.1191 12.2559 46.084 11.6309C45.0684 10.9863 43.8672 10.4102 42.4805 9.90234C41.1133 9.375 39.5508 8.94531 37.793 8.61328C36.0547 8.26172 34.1113 8.08594 31.9629 8.08594C28.252 8.08594 24.9902 8.53516 22.1777 9.43359C19.3652 10.3125 17.002 11.4746 15.0879 12.9199C13.1934 14.3652 11.7578 16.0156 10.7812 17.8711C9.80469 19.707 9.30664 21.123 9.28711 22.1191C9.26758 23.1152 9.25781 23.6426 9.25781 23.7012C9.25781 25.5762 9.70703 27.4219 10.6055 29.2383C11.5234 31.0547 12.9199 32.6855 14.7949 34.1309C16.6699 35.5762 19.0332 36.748 21.8848 37.6465C24.7559 38.5254 28.1152 38.9648 31.9629 38.9648C34.1309 38.9648 36.0938 38.7891 37.8516 38.4375C39.6094 38.0859 41.1816 37.6465 42.5684 37.1191C43.9551 36.5918 45.1562 36.0059 46.1719 35.3613C47.207 34.6973 48.0762 34.0723 48.7793 33.4863C49.502 32.9004 50.0684 32.373 50.4785 31.9043C50.8887 31.4355 51.1719 31.1133 51.3281 30.9375L58.0078 34.9805ZM79.5832 1.81641C81.1652 1.81641 82.7473 2.03125 84.3293 2.46094C85.9113 2.89063 87.425 3.52539 88.8703 4.36523C90.3352 5.20508 91.6926 6.25 92.9426 7.5C94.1926 8.73047 95.2766 10.1465 96.1945 11.748C97.1125 13.3496 97.8352 15.1465 98.3625 17.1387C98.8898 19.1113 99.1535 21.25 99.1535 23.5547C99.1535 25.8984 98.8898 28.0664 98.3625 30.0586C97.8352 32.0508 97.1125 33.8477 96.1945 35.4492C95.2766 37.0508 94.1926 38.4668 92.9426 39.6973C91.6926 40.9277 90.3352 41.9531 88.8703 42.7734C87.425 43.5938 85.9113 44.2188 84.3293 44.6484C82.7473 45.0586 81.1652 45.2637 79.5832 45.2637C78.0012 45.2637 76.4094 45.0586 74.8078 44.6484C73.2258 44.2188 71.7023 43.5938 70.2375 42.7734C68.7922 41.9531 67.4445 40.9277 66.1945 39.6973C64.9445 38.4668 63.8605 37.0508 62.9426 35.4492C62.0246 33.8477 61.302 32.0508 60.7746 30.0586C60.2473 28.0664 59.9836 25.8984 59.9836 23.5547C59.9836 21.2305 60.2473 19.082 60.7746 17.1094C61.302 15.1367 62.0246 13.3496 62.9426 11.748C63.8605 10.1465 64.9445 8.73047 66.1945 7.5C67.4445 6.25 68.7922 5.20508 70.2375 4.36523C71.7023 3.52539 73.2258 2.89063 74.8078 2.46094C76.4094 2.03125 78.0012 1.81641 79.5832 1.81641ZM79.5832 39.2285C81.1262 39.209 82.591 38.8672 83.9777 38.2031C85.3645 37.5195 86.5754 36.5234 87.6105 35.2148C88.6652 33.8867 89.4953 32.2559 90.1008 30.3223C90.7258 28.3691 91.0383 26.1133 91.0383 23.5547C91.0383 20.9766 90.7258 18.7207 90.1008 16.7871C89.4953 14.834 88.6652 13.2031 87.6105 11.8945C86.5754 10.5859 85.3645 9.59961 83.9777 8.93555C82.591 8.25195 81.1262 7.90039 79.5832 7.88086C78.0402 7.90039 76.5656 8.25195 75.1594 8.93555C73.7727 9.59961 72.552 10.5859 71.4973 11.8945C70.4426 13.2031 69.6027 14.834 68.9777 16.7871C68.3527 18.7207 68.0402 20.9766 68.0402 23.5547C68.0402 26.1133 68.3527 28.3691 68.9777 30.3223C69.6027 32.2559 70.4426 33.8867 71.4973 35.2148C72.552 36.5234 73.7727 37.5195 75.1594 38.2031C76.5656 38.8672 78.0402 39.209 79.5832 39.2285ZM123.19 2.05078V8.81836H115.69V45H107.985V8.81836H100.514V2.05078H123.19ZM167.675 26.25C165.996 27.7734 163.994 28.9258 161.67 29.707C159.365 30.4688 156.816 30.8496 154.023 30.8496C151.855 30.8496 149.873 30.6641 148.076 30.293C146.279 29.9023 144.648 29.375 143.183 28.7109C141.718 28.0469 140.41 27.2852 139.257 26.4258C138.105 25.5469 137.08 24.6289 136.181 23.6719V45H128.183V2.02148H136.181V7.85156C136.24 8.20312 136.318 8.67188 136.416 9.25781C136.533 9.84375 136.689 10.498 136.884 11.2207C137.099 11.9238 137.363 12.6855 137.675 13.5059C138.007 14.3066 138.408 15.1172 138.877 15.9375C141.982 21.3672 147.031 24.082 154.023 24.082C155.976 24.082 157.724 23.8379 159.267 23.3496C160.81 22.8613 162.109 22.1484 163.164 21.2109C164.004 20.4688 164.638 19.6191 165.068 18.6621C165.517 17.6855 165.742 16.6602 165.742 15.5859C165.742 14.6289 165.546 13.6816 165.156 12.7441C164.785 11.8066 164.199 10.9668 163.398 10.2246C162.617 9.46289 161.611 8.85742 160.38 8.4082C159.17 7.93945 157.734 7.70508 156.074 7.70508C153.281 7.70508 150.83 8.24219 148.72 9.31641C146.611 10.3711 144.775 12.002 143.213 14.209L137.675 10.2832C139.863 7.19727 142.509 4.87305 145.615 3.31055C148.72 1.72852 152.207 0.9375 156.074 0.9375C158.515 0.9375 160.752 1.30859 162.783 2.05078C164.834 2.79297 166.621 3.89648 168.144 5.36133C169.55 6.72852 170.625 8.29102 171.367 10.0488C172.129 11.7871 172.509 13.6328 172.509 15.5859C172.509 17.6562 172.099 19.5996 171.279 21.416C170.459 23.2324 169.257 24.8438 167.675 26.25ZM199.944 28.418C199.944 31.9531 199.71 34.8828 199.241 37.207C198.772 39.5312 198.079 41.3867 197.161 42.7734C196.262 44.1406 195.13 45.1074 193.762 45.6738C192.415 46.2402 190.852 46.5234 189.075 46.5234C187.473 46.5234 186.057 46.2891 184.827 45.8203C183.616 45.3516 182.571 44.7363 181.692 43.9746C180.813 43.2129 180.081 42.3633 179.495 41.4258C178.909 40.4883 178.44 39.5508 178.089 38.6133C177.737 37.6758 177.493 36.7871 177.356 35.9473C177.22 35.1074 177.151 34.4141 177.151 33.8672H184.124C184.124 36.0547 184.554 37.7148 185.413 38.8477C186.292 39.9609 187.415 40.5176 188.782 40.5176C189.563 40.5176 190.198 40.2734 190.686 39.7852C191.175 39.2773 191.555 38.5547 191.829 37.6172C192.122 36.6797 192.317 35.5566 192.415 34.248C192.512 32.9199 192.561 31.4355 192.561 29.7949V29.7363C191.897 29.834 191.262 29.9121 190.657 29.9707C190.071 30.0293 189.505 30.0586 188.958 30.0586C186.653 30.0586 184.729 29.6582 183.186 28.8574C181.643 28.0566 180.403 27.002 179.466 25.6934C178.528 24.3652 177.835 22.8711 177.386 21.2109C176.956 19.5312 176.692 17.8125 176.595 16.0547C176.555 15.3906 176.536 14.7168 176.536 14.0332C176.536 10.4395 177.054 6.44531 178.089 2.05078H185.618C184.661 6.17188 184.153 9.84375 184.095 13.0664C184.095 13.2031 184.095 13.3496 184.095 13.5059C184.095 14.7168 184.173 15.957 184.329 17.2266C184.485 18.4766 184.798 19.6191 185.266 20.6543C185.755 21.6699 186.419 22.5 187.259 23.1445C188.118 23.7695 189.212 24.082 190.54 24.082C191.106 24.082 191.78 24.0039 192.561 23.8477V2.05078H199.944V28.418ZM215.338 2.05078C221.08 2.08984 226.461 2.37305 231.48 2.90039C236.5 3.42773 241.1 4.16016 245.279 5.09766C249.459 6.03516 253.18 7.1582 256.441 8.4668C259.723 9.77539 262.496 11.2207 264.762 12.8027C267.027 14.3848 268.756 16.084 269.947 17.9004C271.139 19.6973 271.734 21.5723 271.734 23.5254C271.734 25.4785 271.139 27.3633 269.947 29.1797C268.756 30.9961 267.027 32.6953 264.762 34.2773C262.496 35.8594 259.723 37.3047 256.441 38.6133C253.18 39.9023 249.459 41.0156 245.279 41.9531C241.1 42.8906 236.5 43.623 231.48 44.1504C226.461 44.6777 221.08 44.9609 215.338 45H207.486V2.05078H215.338ZM215.338 38.3203C219.283 38.2812 223.17 38.1152 226.998 37.8223C230.846 37.5293 234.508 37.1094 237.984 36.5625C241.461 35.9961 244.674 35.3027 247.623 34.4824C250.592 33.6621 253.15 32.7148 255.299 31.6406C257.467 30.5469 259.156 29.3262 260.367 27.9785C261.598 26.6309 262.213 25.1465 262.213 23.5254C262.213 21.9043 261.598 20.4199 260.367 19.0723C259.156 17.7246 257.467 16.5137 255.299 15.4395C253.15 14.3457 250.592 13.3887 247.623 12.5684C244.674 11.748 241.461 11.0645 237.984 10.5176C234.508 9.95117 230.846 9.52148 226.998 9.22852C223.15 8.91602 219.264 8.75 215.338 8.73047V38.3203ZM300.956 2.05078V45H292.9V26.8652H283.847V45H275.79V2.05078H283.847V20.0977H292.9V2.05078H300.956ZM335.539 2.05078V45H328.127V16.2598L315.12 45H307.649V2.05078H315.061V30.791L328.069 2.02148L335.539 2.05078ZM363.209 19.1602C364.888 19.2969 366.382 19.7754 367.691 20.5957C369.019 21.3965 370.181 22.4219 371.177 23.6719C372.193 24.9023 373.072 26.2891 373.814 27.832C374.556 29.3555 375.181 30.9082 375.689 32.4902C376.9 36.2012 377.711 40.3711 378.121 45H370.24C369.927 41.3477 369.371 38.0859 368.57 35.2148C368.238 34.0039 367.828 32.8125 367.339 31.6406C366.871 30.4688 366.304 29.4238 365.64 28.5059C364.976 27.5879 364.214 26.8555 363.355 26.3086C362.515 25.7422 361.558 25.459 360.484 25.459C359.273 25.459 358.199 25.7422 357.261 26.3086C356.324 26.8555 355.513 27.5879 354.83 28.5059C354.146 29.4238 353.56 30.4688 353.072 31.6406C352.603 32.8125 352.212 34.0039 351.9 35.2148C351.158 38.0859 350.728 41.3477 350.611 45H343.257V2.05078H351.109V24.668C351.129 24.6289 351.158 24.5703 351.197 24.4922C351.236 24.4141 351.295 24.3262 351.373 24.2285L365.933 2.05078H374.722L363.209 19.1602ZM410.272 2.05078V45H402.86V16.2598L389.852 45H382.382V2.05078H389.794V30.791L402.802 2.02148L410.272 2.05078Z" fill="#303030"/>
</svg>
