<svg width="387" height="47" viewBox="0 0 387 47" fill="none" xmlns="http://www.w3.org/2000/svg">
<path d="M45.5859 2.05078V45H37.5879V21.7383C37.5293 21.8359 37.2949 22.168 36.8848 22.7344C36.4941 23.3008 35.9473 23.9844 35.2441 24.7852C34.541 25.5664 33.6914 26.4062 32.6953 27.3047C31.7188 28.2031 30.6152 29.0332 29.3848 29.7949C28.1543 30.5566 26.8164 31.1914 25.3711 31.6992C23.9258 32.1875 22.3828 32.4316 20.7422 32.4316C18.2812 32.4316 15.918 31.8262 13.6523 30.6152C11.4062 29.3848 9.30664 27.5879 7.35352 25.2246C6.49414 24.1699 5.74219 23.0371 5.09766 21.8262C4.45312 20.6152 3.89648 19.375 3.42773 18.1055C2.95898 16.8164 2.56836 15.5273 2.25586 14.2383C1.94336 12.9492 1.68945 11.709 1.49414 10.5176C1.04492 7.72461 0.810547 4.90234 0.791016 2.05078H8.20312C8.30078 4.41406 8.55469 6.73828 8.96484 9.02344C9.14062 9.98047 9.36523 10.9863 9.63867 12.041C9.91211 13.0957 10.2344 14.1406 10.6055 15.1758C10.9961 16.1914 11.4453 17.1875 11.9531 18.1641C12.4609 19.1211 13.0469 20 13.7109 20.8008C16.25 23.9258 18.9258 25.4883 21.7383 25.4883C23.2812 25.4883 24.6875 25.1562 25.957 24.4922C27.2266 23.8086 28.3691 22.9199 29.3848 21.8262C30.4199 20.7324 31.3379 19.4824 32.1387 18.0762C32.959 16.6699 33.6719 15.2344 34.2773 13.7695C35.6836 10.332 36.7773 6.42578 37.5586 2.05078H45.5859ZM72.8742 2.05078V8.81836H65.3742V45H57.6691V8.81836H50.1984V2.05078H72.8742ZM92.8676 1.81641C94.4496 1.81641 96.0316 2.03125 97.6137 2.46094C99.1957 2.89063 100.709 3.52539 102.155 4.36523C103.62 5.20508 104.977 6.25 106.227 7.5C107.477 8.73047 108.561 10.1465 109.479 11.748C110.397 13.3496 111.12 15.1465 111.647 17.1387C112.174 19.1113 112.438 21.25 112.438 23.5547C112.438 25.8984 112.174 28.0664 111.647 30.0586C111.12 32.0508 110.397 33.8477 109.479 35.4492C108.561 37.0508 107.477 38.4668 106.227 39.6973C104.977 40.9277 103.62 41.9531 102.155 42.7734C100.709 43.5938 99.1957 44.2188 97.6137 44.6484C96.0316 45.0586 94.4496 45.2637 92.8676 45.2637C91.2855 45.2637 89.6937 45.0586 88.0922 44.6484C86.5102 44.2188 84.9867 43.5938 83.5219 42.7734C82.0766 41.9531 80.7289 40.9277 79.4789 39.6973C78.2289 38.4668 77.1449 37.0508 76.227 35.4492C75.309 33.8477 74.5863 32.0508 74.059 30.0586C73.5316 28.0664 73.268 25.8984 73.268 23.5547C73.268 21.2305 73.5316 19.082 74.059 17.1094C74.5863 15.1367 75.309 13.3496 76.227 11.748C77.1449 10.1465 78.2289 8.73047 79.4789 7.5C80.7289 6.25 82.0766 5.20508 83.5219 4.36523C84.9867 3.52539 86.5102 2.89063 88.0922 2.46094C89.6937 2.03125 91.2855 1.81641 92.8676 1.81641ZM92.8676 39.2285C94.4105 39.209 95.8754 38.8672 97.2621 38.2031C98.6488 37.5195 99.8598 36.5234 100.895 35.2148C101.95 33.8867 102.78 32.2559 103.385 30.3223C104.01 28.3691 104.323 26.1133 104.323 23.5547C104.323 20.9766 104.01 18.7207 103.385 16.7871C102.78 14.834 101.95 13.2031 100.895 11.8945C99.8598 10.5859 98.6488 9.59961 97.2621 8.93555C95.8754 8.25195 94.4105 7.90039 92.8676 7.88086C91.3246 7.90039 89.85 8.25195 88.4437 8.93555C87.057 9.59961 85.8363 10.5859 84.7816 11.8945C83.727 13.2031 82.8871 14.834 82.2621 16.7871C81.6371 18.7207 81.3246 20.9766 81.3246 23.5547C81.3246 26.1133 81.6371 28.3691 82.2621 30.3223C82.8871 32.2559 83.727 33.8867 84.7816 35.2148C85.8363 36.5234 87.057 37.5195 88.4437 38.2031C89.85 38.8672 91.3246 39.209 92.8676 39.2285ZM161.243 2.05078V45H153.186V26.8652H144.134V45H136.077V2.05078H144.134V20.0977H153.186V2.05078H161.243ZM186.275 1.81641C187.857 1.81641 189.439 2.03125 191.021 2.46094C192.604 2.89063 194.117 3.52539 195.562 4.36523C197.027 5.20508 198.385 6.25 199.635 7.5C200.885 8.73047 201.969 10.1465 202.887 11.748C203.805 13.3496 204.527 15.1465 205.055 17.1387C205.582 19.1113 205.846 21.25 205.846 23.5547C205.846 25.8984 205.582 28.0664 205.055 30.0586C204.527 32.0508 203.805 33.8477 202.887 35.4492C201.969 37.0508 200.885 38.4668 199.635 39.6973C198.385 40.9277 197.027 41.9531 195.562 42.7734C194.117 43.5938 192.604 44.2188 191.021 44.6484C189.439 45.0586 187.857 45.2637 186.275 45.2637C184.693 45.2637 183.102 45.0586 181.5 44.6484C179.918 44.2188 178.395 43.5938 176.93 42.7734C175.484 41.9531 174.137 40.9277 172.887 39.6973C171.637 38.4668 170.553 37.0508 169.635 35.4492C168.717 33.8477 167.994 32.0508 167.467 30.0586C166.939 28.0664 166.676 25.8984 166.676 23.5547C166.676 21.2305 166.939 19.082 167.467 17.1094C167.994 15.1367 168.717 13.3496 169.635 11.748C170.553 10.1465 171.637 8.73047 172.887 7.5C174.137 6.25 175.484 5.20508 176.93 4.36523C178.395 3.52539 179.918 2.89063 181.5 2.46094C183.102 2.03125 184.693 1.81641 186.275 1.81641ZM186.275 39.2285C187.818 39.209 189.283 38.8672 190.67 38.2031C192.057 37.5195 193.268 36.5234 194.303 35.2148C195.357 33.8867 196.188 32.2559 196.793 30.3223C197.418 28.3691 197.73 26.1133 197.73 23.5547C197.73 20.9766 197.418 18.7207 196.793 16.7871C196.188 14.834 195.357 13.2031 194.303 11.8945C193.268 10.5859 192.057 9.59961 190.67 8.93555C189.283 8.25195 187.818 7.90039 186.275 7.88086C184.732 7.90039 183.258 8.25195 181.852 8.93555C180.465 9.59961 179.244 10.5859 178.189 11.8945C177.135 13.2031 176.295 14.834 175.67 16.7871C175.045 18.7207 174.732 20.9766 174.732 23.5547C174.732 26.1133 175.045 28.3691 175.67 30.3223C176.295 32.2559 177.135 33.8867 178.189 35.2148C179.244 36.5234 180.465 37.5195 181.852 38.2031C183.258 38.8672 184.732 39.209 186.275 39.2285ZM235.478 19.9805C236.786 20.918 237.773 22.0215 238.437 23.291C239.12 24.541 239.491 25.6055 239.55 26.4844C239.628 27.3438 239.667 27.9297 239.667 28.2422C239.667 29.3555 239.491 30.5664 239.14 31.875C238.808 33.1836 238.232 34.541 237.411 35.9473C236.591 37.3535 235.585 38.6816 234.394 39.9316C233.202 41.1816 231.855 42.2754 230.351 43.2129C228.866 44.1504 227.245 44.8926 225.488 45.4395C223.749 45.9863 221.923 46.2598 220.009 46.2598C218.915 46.2598 217.782 46.0645 216.611 45.6738C215.439 45.2832 214.345 44.6973 213.329 43.916C212.333 43.1152 211.464 42.1094 210.722 40.8984C209.999 39.6875 209.54 38.4961 209.345 37.3242C209.169 36.1328 209.081 35.127 209.081 34.3066C209.081 33.291 209.208 31.9727 209.462 30.3516C209.716 28.7109 210.419 26.6211 211.571 24.082C212.04 23.0273 212.548 21.9043 213.095 20.7129C213.642 19.502 214.189 18.2715 214.736 17.0215C215.302 15.7715 215.868 14.5312 216.435 13.3008C217.001 12.0703 217.538 10.8887 218.046 9.75586C219.257 7.09961 220.468 4.44336 221.679 1.78711C222.323 1.66992 223.036 1.5625 223.818 1.46484C224.482 1.36719 225.253 1.28906 226.132 1.23047C227.011 1.17188 227.948 1.14258 228.945 1.14258C229.96 1.14258 230.995 1.19141 232.05 1.28906C233.124 1.38672 234.169 1.5625 235.185 1.81641C236.22 2.07031 237.187 2.41211 238.085 2.8418C239.003 3.27148 239.794 3.82813 240.458 4.51172C241.142 5.17578 241.679 5.98633 242.07 6.94336C242.48 7.88086 242.685 8.98438 242.685 10.2539C242.685 11.1719 242.48 12.0801 242.07 12.9785C241.679 13.8574 241.142 14.707 240.458 15.5273C239.794 16.3477 239.032 17.1387 238.173 17.9004C237.314 18.6426 236.415 19.3359 235.478 19.9805ZM220.741 39.5508C221.796 39.5508 222.831 39.3359 223.847 38.9062C224.882 38.4766 225.849 37.9102 226.747 37.207C227.646 36.4844 228.456 35.6738 229.179 34.7754C229.902 33.8574 230.497 32.9297 230.966 31.9922C231.454 31.0547 231.757 30.2539 231.874 29.5898C232.011 28.9258 232.079 28.4082 232.079 28.0371C232.079 27.5879 232.001 27.0898 231.845 26.543C231.689 25.9961 231.298 25.5078 230.673 25.0781C230.068 24.6484 229.198 24.4336 228.066 24.4336C226.933 24.4336 225.517 24.6973 223.818 25.2246L221.738 20.4492C224.277 19.1406 226.552 17.8613 228.564 16.6113C229.423 16.084 230.253 15.5371 231.054 14.9707C231.874 14.3848 232.597 13.8086 233.222 13.2422C233.866 12.6758 234.384 12.1289 234.775 11.6016C235.165 11.0742 235.361 10.5957 235.361 10.166C235.361 9.63867 235.146 9.20898 234.716 8.87695C234.306 8.52539 233.779 8.24219 233.134 8.02734C232.509 7.8125 231.816 7.66602 231.054 7.58789C230.292 7.49023 229.56 7.44141 228.857 7.44141C228.486 7.44141 228.144 7.45117 227.831 7.4707C227.519 7.49023 227.226 7.51953 226.952 7.55859L221.034 20.2441C219.609 23.2129 218.476 25.8887 217.636 28.2715C216.816 30.6543 216.376 32.3145 216.318 33.252C216.279 34.1699 216.259 34.7168 216.259 34.8926C216.259 36.2988 216.591 37.4316 217.255 38.291C217.939 39.1309 219.101 39.5508 220.741 39.5508ZM264.348 1.81641C265.93 1.81641 267.512 2.03125 269.094 2.46094C270.676 2.89063 272.19 3.52539 273.635 4.36523C275.1 5.20508 276.457 6.25 277.707 7.5C278.957 8.73047 280.041 10.1465 280.959 11.748C281.877 13.3496 282.6 15.1465 283.127 17.1387C283.655 19.1113 283.918 21.25 283.918 23.5547C283.918 25.8984 283.655 28.0664 283.127 30.0586C282.6 32.0508 281.877 33.8477 280.959 35.4492C280.041 37.0508 278.957 38.4668 277.707 39.6973C276.457 40.9277 275.1 41.9531 273.635 42.7734C272.19 43.5938 270.676 44.2188 269.094 44.6484C267.512 45.0586 265.93 45.2637 264.348 45.2637C262.766 45.2637 261.174 45.0586 259.573 44.6484C257.991 44.2188 256.467 43.5938 255.002 42.7734C253.557 41.9531 252.209 40.9277 250.959 39.6973C249.709 38.4668 248.625 37.0508 247.707 35.4492C246.789 33.8477 246.067 32.0508 245.539 30.0586C245.012 28.0664 244.748 25.8984 244.748 23.5547C244.748 21.2305 245.012 19.082 245.539 17.1094C246.067 15.1367 246.789 13.3496 247.707 11.748C248.625 10.1465 249.709 8.73047 250.959 7.5C252.209 6.25 253.557 5.20508 255.002 4.36523C256.467 3.52539 257.991 2.89063 259.573 2.46094C261.174 2.03125 262.766 1.81641 264.348 1.81641ZM264.348 39.2285C265.891 39.209 267.356 38.8672 268.743 38.2031C270.129 37.5195 271.34 36.5234 272.375 35.2148C273.43 33.8867 274.26 32.2559 274.866 30.3223C275.491 28.3691 275.803 26.1133 275.803 23.5547C275.803 20.9766 275.491 18.7207 274.866 16.7871C274.26 14.834 273.43 13.2031 272.375 11.8945C271.34 10.5859 270.129 9.59961 268.743 8.93555C267.356 8.25195 265.891 7.90039 264.348 7.88086C262.805 7.90039 261.33 8.25195 259.924 8.93555C258.538 9.59961 257.317 10.5859 256.262 11.8945C255.207 13.2031 254.368 14.834 253.743 16.7871C253.118 18.7207 252.805 20.9766 252.805 23.5547C252.805 26.1133 253.118 28.3691 253.743 30.3223C254.368 32.2559 255.207 33.8867 256.262 35.2148C257.317 36.5234 258.538 37.5195 259.924 38.2031C261.33 38.8672 262.805 39.209 264.348 39.2285ZM304.791 9.11133H296.851V45H289.322V2.05078H304.791V9.11133ZM326.132 1.81641C327.714 1.81641 329.296 2.03125 330.878 2.46094C332.46 2.89063 333.973 3.52539 335.419 4.36523C336.884 5.20508 338.241 6.25 339.491 7.5C340.741 8.73047 341.825 10.1465 342.743 11.748C343.661 13.3496 344.384 15.1465 344.911 17.1387C345.438 19.1113 345.702 21.25 345.702 23.5547C345.702 25.8984 345.438 28.0664 344.911 30.0586C344.384 32.0508 343.661 33.8477 342.743 35.4492C341.825 37.0508 340.741 38.4668 339.491 39.6973C338.241 40.9277 336.884 41.9531 335.419 42.7734C333.973 43.5938 332.46 44.2188 330.878 44.6484C329.296 45.0586 327.714 45.2637 326.132 45.2637C324.55 45.2637 322.958 45.0586 321.356 44.6484C319.774 44.2188 318.251 43.5938 316.786 42.7734C315.341 41.9531 313.993 40.9277 312.743 39.6973C311.493 38.4668 310.409 37.0508 309.491 35.4492C308.573 33.8477 307.85 32.0508 307.323 30.0586C306.796 28.0664 306.532 25.8984 306.532 23.5547C306.532 21.2305 306.796 19.082 307.323 17.1094C307.85 15.1367 308.573 13.3496 309.491 11.748C310.409 10.1465 311.493 8.73047 312.743 7.5C313.993 6.25 315.341 5.20508 316.786 4.36523C318.251 3.52539 319.774 2.89063 321.356 2.46094C322.958 2.03125 324.55 1.81641 326.132 1.81641ZM326.132 39.2285C327.675 39.209 329.139 38.8672 330.526 38.2031C331.913 37.5195 333.124 36.5234 334.159 35.2148C335.214 33.8867 336.044 32.2559 336.649 30.3223C337.274 28.3691 337.587 26.1133 337.587 23.5547C337.587 20.9766 337.274 18.7207 336.649 16.7871C336.044 14.834 335.214 13.2031 334.159 11.8945C333.124 10.5859 331.913 9.59961 330.526 8.93555C329.139 8.25195 327.675 7.90039 326.132 7.88086C324.589 7.90039 323.114 8.25195 321.708 8.93555C320.321 9.59961 319.1 10.5859 318.046 11.8945C316.991 13.2031 316.151 14.834 315.526 16.7871C314.901 18.7207 314.589 20.9766 314.589 23.5547C314.589 26.1133 314.901 28.3691 315.526 30.3223C316.151 32.2559 316.991 33.8867 318.046 35.2148C319.1 36.5234 320.321 37.5195 321.708 38.2031C323.114 38.8672 324.589 39.209 326.132 39.2285ZM379.611 3.54492C381.682 4.77539 383.264 6.34766 384.357 8.26172C385.471 10.1758 386.027 12.3242 386.027 14.707C386.027 16.3672 385.715 17.832 385.09 19.1016C384.484 20.3516 383.693 21.4746 382.717 22.4707C381.76 23.4473 380.695 24.3164 379.523 25.0781C378.352 25.8203 377.209 26.5137 376.096 27.1582C375.061 27.7637 374.133 28.3301 373.312 28.8574C372.492 29.3848 371.789 29.9121 371.203 30.4395C370.637 30.9473 370.197 31.4844 369.885 32.0508C369.592 32.5977 369.445 33.2129 369.445 33.8965H362.678C362.678 32.2168 362.99 30.7422 363.615 29.4727C364.24 28.1836 365.031 27.0508 365.988 26.0742C366.965 25.0781 368.039 24.1992 369.211 23.4375C370.402 22.6758 371.555 21.9727 372.668 21.3281C373.703 20.7227 374.621 20.166 375.422 19.6582C376.242 19.1309 376.936 18.6133 377.502 18.1055C378.068 17.5977 378.498 17.0703 378.791 16.5234C379.104 15.9766 379.26 15.3711 379.26 14.707C379.26 13.75 379.094 12.9102 378.762 12.1875C378.43 11.4648 377.98 10.8398 377.414 10.3125C376.848 9.78516 376.193 9.3457 375.451 8.99414C374.729 8.64258 373.957 8.36914 373.137 8.17383C372.316 7.95898 371.486 7.8125 370.646 7.73438C369.807 7.63672 369.006 7.58789 368.244 7.58789C366.643 7.58789 365.1 7.75391 363.615 8.08594C362.131 8.39844 360.881 8.83789 359.865 9.4043C358.83 9.99023 357.99 10.7031 357.346 11.543C356.721 12.3828 356.232 13.2031 355.881 14.0039C355.549 14.7852 355.324 15.459 355.207 16.0254C355.109 16.5723 355.061 16.8555 355.061 16.875L348.322 16.1719C348.771 13.457 349.582 11.1328 350.754 9.19922C351.926 7.26562 353.381 5.68359 355.119 4.45312C356.877 3.20312 358.869 2.29492 361.096 1.72852C363.322 1.14258 365.715 0.849609 368.273 0.849609C370.285 0.849609 372.268 1.06445 374.221 1.49414C376.193 1.92383 377.99 2.60742 379.611 3.54492ZM362.531 37.3535H370.178V45H362.531V37.3535Z" fill="#303030"/>
</svg>
